<svg width="280" height="50" viewBox="0 0 280 50" fill="none" xmlns="http://www.w3.org/2000/svg">
<rect width="280" height="50" fill="white"/>
<rect x="10" y="9" width="32" height="32" rx="10" fill="#E6EAF3"/>
<path d="M27.25 20.3125V15H19.4375C18.918 15 18.5 15.418 18.5 15.9375V34.0625C18.5 34.582 18.918 35 19.4375 35H32.5625C33.082 35 33.5 34.582 33.5 34.0625V21.25H28.1875C27.6719 21.25 27.25 20.8281 27.25 20.3125ZM30.375 31V31.75C30.375 32.1645 29.9832 32.5 29.5 32.5H22.5C22.0168 32.5 21.625 32.1641 21.625 31.75V31C21.625 29.7574 22.8004 28.75 24.25 28.75H24.4434C24.9234 28.95 25.4484 29.0625 26 29.0625C26.5516 29.0625 27.0766 28.95 27.5566 28.75H27.75C29.1996 28.75 30.375 29.7574 30.375 31V31ZM26 27.5C24.6191 27.5 23.5 26.3809 23.5 25C23.5 23.6191 24.6191 22.5 26 22.5C27.3809 22.5 28.5 23.6191 28.5 25C28.5 26.3809 27.3809 27.5 26 27.5ZM33.2266 19.1016L29.4023 15.2734C29.2266 15.0977 28.9883 15 28.7383 15H28.5V20H33.5V19.7617C33.5 19.5156 33.4023 19.2773 33.2266 19.1016Z" fill="#BCC8E7"/>
<path d="M58.422 28.154H54.639L53.989 30H52.442L55.679 20.952H57.395L60.632 30H59.072L58.422 28.154ZM58.006 26.945L56.537 22.746L55.055 26.945H58.006ZM61.5455 26.386C61.5455 25.6667 61.6928 25.0297 61.9875 24.475C62.2908 23.9203 62.6981 23.4913 63.2095 23.188C63.7295 22.876 64.3058 22.72 64.9385 22.72C65.4065 22.72 65.8658 22.824 66.3165 23.032C66.7758 23.2313 67.1398 23.5 67.4085 23.838V20.38H68.9035V30H67.4085V28.921C67.1658 29.2677 66.8278 29.5537 66.3945 29.779C65.9698 30.0043 65.4801 30.117 64.9255 30.117C64.3015 30.117 63.7295 29.961 63.2095 29.649C62.6981 29.3283 62.2908 28.8863 61.9875 28.323C61.6928 27.751 61.5455 27.1053 61.5455 26.386ZM67.4085 26.412C67.4085 25.918 67.3045 25.489 67.0965 25.125C66.8971 24.761 66.6328 24.4837 66.3035 24.293C65.9741 24.1023 65.6188 24.007 65.2375 24.007C64.8561 24.007 64.5008 24.1023 64.1715 24.293C63.8421 24.475 63.5735 24.748 63.3655 25.112C63.1661 25.4673 63.0665 25.892 63.0665 26.386C63.0665 26.88 63.1661 27.3133 63.3655 27.686C63.5735 28.0587 63.8421 28.3447 64.1715 28.544C64.5095 28.7347 64.8648 28.83 65.2375 28.83C65.6188 28.83 65.9741 28.7347 66.3035 28.544C66.6328 28.3533 66.8971 28.076 67.0965 27.712C67.3045 27.3393 67.4085 26.906 67.4085 26.412ZM79.521 22.72C80.0843 22.72 80.587 22.837 81.029 23.071C81.4797 23.305 81.8307 23.6517 82.082 24.111C82.342 24.5703 82.472 25.125 82.472 25.775V30H81.003V25.996C81.003 25.3547 80.8427 24.865 80.522 24.527C80.2013 24.1803 79.7637 24.007 79.209 24.007C78.6543 24.007 78.2123 24.1803 77.883 24.527C77.5623 24.865 77.402 25.3547 77.402 25.996V30H75.933V25.996C75.933 25.3547 75.7727 24.865 75.452 24.527C75.1313 24.1803 74.6937 24.007 74.139 24.007C73.5843 24.007 73.1423 24.1803 72.813 24.527C72.4923 24.865 72.332 25.3547 72.332 25.996V30H70.85V22.837H72.332V23.656C72.5747 23.3613 72.8823 23.1317 73.255 22.967C73.6277 22.8023 74.0263 22.72 74.451 22.72C75.023 22.72 75.5343 22.8413 75.985 23.084C76.4357 23.3267 76.7823 23.6777 77.025 24.137C77.2417 23.7037 77.5797 23.3613 78.039 23.11C78.4983 22.85 78.9923 22.72 79.521 22.72ZM85.1118 21.888C84.8431 21.888 84.6178 21.797 84.4358 21.615C84.2538 21.433 84.1628 21.2077 84.1628 20.939C84.1628 20.6703 84.2538 20.445 84.4358 20.263C84.6178 20.081 84.8431 19.99 85.1118 19.99C85.3718 19.99 85.5928 20.081 85.7748 20.263C85.9568 20.445 86.0478 20.6703 86.0478 20.939C86.0478 21.2077 85.9568 21.433 85.7748 21.615C85.5928 21.797 85.3718 21.888 85.1118 21.888ZM85.8398 22.837V30H84.3578V22.837H85.8398ZM91.3995 22.72C91.9629 22.72 92.4655 22.837 92.9075 23.071C93.3582 23.305 93.7092 23.6517 93.9605 24.111C94.2119 24.5703 94.3375 25.125 94.3375 25.775V30H92.8685V25.996C92.8685 25.3547 92.7082 24.865 92.3875 24.527C92.0669 24.1803 91.6292 24.007 91.0745 24.007C90.5199 24.007 90.0779 24.1803 89.7485 24.527C89.4279 24.865 89.2675 25.3547 89.2675 25.996V30H87.7855V22.837H89.2675V23.656C89.5102 23.3613 89.8179 23.1317 90.1905 22.967C90.5719 22.8023 90.9749 22.72 91.3995 22.72ZM96.9819 21.888C96.7133 21.888 96.4879 21.797 96.3059 21.615C96.1239 21.433 96.0329 21.2077 96.0329 20.939C96.0329 20.6703 96.1239 20.445 96.3059 20.263C96.4879 20.081 96.7133 19.99 96.9819 19.99C97.2419 19.99 97.4629 20.081 97.6449 20.263C97.8269 20.445 97.9179 20.6703 97.9179 20.939C97.9179 21.2077 97.8269 21.433 97.6449 21.615C97.4629 21.797 97.2419 21.888 96.9819 21.888ZM97.7099 22.837V30H96.2279V22.837H97.7099ZM102.256 30.117C101.692 30.117 101.185 30.0173 100.735 29.818C100.293 29.61 99.9417 29.3327 99.6817 28.986C99.4217 28.6307 99.283 28.2363 99.2657 27.803H100.8C100.826 28.1063 100.969 28.362 101.229 28.57C101.497 28.7693 101.831 28.869 102.23 28.869C102.646 28.869 102.966 28.791 103.192 28.635C103.426 28.4703 103.543 28.2623 103.543 28.011C103.543 27.7423 103.413 27.543 103.153 27.413C102.901 27.283 102.498 27.14 101.944 26.984C101.406 26.8367 100.969 26.6937 100.631 26.555C100.293 26.4163 99.998 26.204 99.7467 25.918C99.504 25.632 99.3827 25.255 99.3827 24.787C99.3827 24.4057 99.4953 24.059 99.7207 23.747C99.946 23.4263 100.267 23.175 100.683 22.993C101.107 22.811 101.593 22.72 102.139 22.72C102.953 22.72 103.608 22.928 104.102 23.344C104.604 23.7513 104.873 24.3103 104.908 25.021H103.426C103.4 24.7003 103.27 24.4447 103.036 24.254C102.802 24.0633 102.485 23.968 102.087 23.968C101.697 23.968 101.398 24.0417 101.19 24.189C100.982 24.3363 100.878 24.5313 100.878 24.774C100.878 24.9647 100.947 25.125 101.086 25.255C101.224 25.385 101.393 25.489 101.593 25.567C101.792 25.6363 102.087 25.7273 102.477 25.84C102.997 25.9787 103.421 26.1217 103.751 26.269C104.089 26.4077 104.379 26.6157 104.622 26.893C104.864 27.1703 104.99 27.5387 104.999 27.998C104.999 28.4053 104.886 28.7693 104.661 29.09C104.435 29.4107 104.115 29.662 103.699 29.844C103.291 30.026 102.81 30.117 102.256 30.117ZM108.329 24.046V28.011C108.329 28.2797 108.39 28.4747 108.511 28.596C108.641 28.7087 108.858 28.765 109.161 28.765H110.071V30H108.901C108.234 30 107.722 29.844 107.367 29.532C107.012 29.22 106.834 28.713 106.834 28.011V24.046H105.989V22.837H106.834V21.056H108.329V22.837H110.071V24.046H108.329ZM112.919 23.877C113.136 23.513 113.422 23.2313 113.777 23.032C114.141 22.824 114.57 22.72 115.064 22.72V24.254H114.687C114.106 24.254 113.664 24.4013 113.361 24.696C113.066 24.9907 112.919 25.502 112.919 26.23V30H111.437V22.837H112.919V23.877ZM115.932 26.386C115.932 25.6667 116.08 25.0297 116.374 24.475C116.678 23.9203 117.085 23.4913 117.596 23.188C118.116 22.876 118.688 22.72 119.312 22.72C119.876 22.72 120.365 22.8327 120.781 23.058C121.206 23.2747 121.544 23.5477 121.795 23.877V22.837H123.29V30H121.795V28.934C121.544 29.272 121.202 29.5537 120.768 29.779C120.335 30.0043 119.841 30.117 119.286 30.117C118.671 30.117 118.108 29.961 117.596 29.649C117.085 29.3283 116.678 28.8863 116.374 28.323C116.08 27.751 115.932 27.1053 115.932 26.386ZM121.795 26.412C121.795 25.918 121.691 25.489 121.483 25.125C121.284 24.761 121.02 24.4837 120.69 24.293C120.361 24.1023 120.006 24.007 119.624 24.007C119.243 24.007 118.888 24.1023 118.558 24.293C118.229 24.475 117.96 24.748 117.752 25.112C117.553 25.4673 117.453 25.892 117.453 26.386C117.453 26.88 117.553 27.3133 117.752 27.686C117.96 28.0587 118.229 28.3447 118.558 28.544C118.896 28.7347 119.252 28.83 119.624 28.83C120.006 28.83 120.361 28.7347 120.69 28.544C121.02 28.3533 121.284 28.076 121.483 27.712C121.691 27.3393 121.795 26.906 121.795 26.412ZM127.837 30.117C127.273 30.117 126.766 30.0173 126.316 29.818C125.874 29.61 125.523 29.3327 125.263 28.986C125.003 28.6307 124.864 28.2363 124.847 27.803H126.381C126.407 28.1063 126.55 28.362 126.81 28.57C127.078 28.7693 127.412 28.869 127.811 28.869C128.227 28.869 128.547 28.791 128.773 28.635C129.007 28.4703 129.124 28.2623 129.124 28.011C129.124 27.7423 128.994 27.543 128.734 27.413C128.482 27.283 128.079 27.14 127.525 26.984C126.987 26.8367 126.55 26.6937 126.212 26.555C125.874 26.4163 125.579 26.204 125.328 25.918C125.085 25.632 124.964 25.255 124.964 24.787C124.964 24.4057 125.076 24.059 125.302 23.747C125.527 23.4263 125.848 23.175 126.264 22.993C126.688 22.811 127.174 22.72 127.72 22.72C128.534 22.72 129.189 22.928 129.683 23.344C130.185 23.7513 130.454 24.3103 130.489 25.021H129.007C128.981 24.7003 128.851 24.4447 128.617 24.254C128.383 24.0633 128.066 23.968 127.668 23.968C127.278 23.968 126.979 24.0417 126.771 24.189C126.563 24.3363 126.459 24.5313 126.459 24.774C126.459 24.9647 126.528 25.125 126.667 25.255C126.805 25.385 126.974 25.489 127.174 25.567C127.373 25.6363 127.668 25.7273 128.058 25.84C128.578 25.9787 129.002 26.1217 129.332 26.269C129.67 26.4077 129.96 26.6157 130.203 26.893C130.445 27.1703 130.571 27.5387 130.58 27.998C130.58 28.4053 130.467 28.7693 130.242 29.09C130.016 29.4107 129.696 29.662 129.28 29.844C128.872 30.026 128.391 30.117 127.837 30.117ZM132.935 21.888C132.666 21.888 132.441 21.797 132.259 21.615C132.077 21.433 131.986 21.2077 131.986 20.939C131.986 20.6703 132.077 20.445 132.259 20.263C132.441 20.081 132.666 19.99 132.935 19.99C133.195 19.99 133.416 20.081 133.598 20.263C133.78 20.445 133.871 20.6703 133.871 20.939C133.871 21.2077 133.78 21.433 133.598 21.615C133.416 21.797 133.195 21.888 132.935 21.888ZM133.663 22.837V30H132.181V22.837H133.663ZM145.304 23.656C145.304 24.1153 145.195 24.5487 144.979 24.956C144.762 25.3633 144.415 25.697 143.939 25.957C143.462 26.2083 142.851 26.334 142.106 26.334H140.468V30H138.986V20.965H142.106C142.799 20.965 143.384 21.0863 143.861 21.329C144.346 21.563 144.706 21.8837 144.94 22.291C145.182 22.6983 145.304 23.1533 145.304 23.656ZM142.106 25.125C142.669 25.125 143.089 24.9993 143.367 24.748C143.644 24.488 143.783 24.124 143.783 23.656C143.783 22.668 143.224 22.174 142.106 22.174H140.468V25.125H142.106ZM153.282 26.243C153.282 26.5117 153.265 26.7543 153.23 26.971H147.757C147.801 27.543 148.013 28.0023 148.394 28.349C148.776 28.6957 149.244 28.869 149.798 28.869C150.596 28.869 151.159 28.5353 151.488 27.868H153.087C152.871 28.5267 152.476 29.0683 151.904 29.493C151.341 29.909 150.639 30.117 149.798 30.117C149.114 30.117 148.498 29.9653 147.952 29.662C147.415 29.35 146.99 28.9167 146.678 28.362C146.375 27.7987 146.223 27.1487 146.223 26.412C146.223 25.6753 146.371 25.0297 146.665 24.475C146.969 23.9117 147.389 23.4783 147.926 23.175C148.472 22.8717 149.096 22.72 149.798 22.72C150.474 22.72 151.077 22.8673 151.605 23.162C152.134 23.4567 152.546 23.8727 152.84 24.41C153.135 24.9387 153.282 25.5497 153.282 26.243ZM151.735 25.775C151.727 25.229 151.532 24.7913 151.15 24.462C150.769 24.1327 150.297 23.968 149.733 23.968C149.222 23.968 148.784 24.1327 148.42 24.462C148.056 24.7827 147.84 25.2203 147.77 25.775H151.735ZM158.355 22.72C158.918 22.72 159.421 22.837 159.863 23.071C160.313 23.305 160.664 23.6517 160.916 24.111C161.167 24.5703 161.293 25.125 161.293 25.775V30H159.824V25.996C159.824 25.3547 159.663 24.865 159.343 24.527C159.022 24.1803 158.584 24.007 158.03 24.007C157.475 24.007 157.033 24.1803 156.704 24.527C156.383 24.865 156.223 25.3547 156.223 25.996V30H154.741V22.837H156.223V23.656C156.465 23.3613 156.773 23.1317 157.146 22.967C157.527 22.8023 157.93 22.72 158.355 22.72ZM166.069 22.72C166.624 22.72 167.113 22.8327 167.538 23.058C167.971 23.2747 168.309 23.5477 168.552 23.877V22.837H170.047V30.117C170.047 30.7757 169.908 31.3607 169.631 31.872C169.354 32.392 168.951 32.7993 168.422 33.094C167.902 33.3887 167.278 33.536 166.55 33.536C165.579 33.536 164.773 33.3063 164.132 32.847C163.491 32.3963 163.127 31.781 163.04 31.001H164.509C164.622 31.3737 164.86 31.6727 165.224 31.898C165.597 32.132 166.039 32.249 166.55 32.249C167.148 32.249 167.629 32.067 167.993 31.703C168.366 31.339 168.552 30.8103 168.552 30.117V28.921C168.301 29.259 167.958 29.545 167.525 29.779C167.1 30.0043 166.615 30.117 166.069 30.117C165.445 30.117 164.873 29.961 164.353 29.649C163.842 29.3283 163.434 28.8863 163.131 28.323C162.836 27.751 162.689 27.1053 162.689 26.386C162.689 25.6667 162.836 25.0297 163.131 24.475C163.434 23.9203 163.842 23.4913 164.353 23.188C164.873 22.876 165.445 22.72 166.069 22.72ZM168.552 26.412C168.552 25.918 168.448 25.489 168.24 25.125C168.041 24.761 167.776 24.4837 167.447 24.293C167.118 24.1023 166.762 24.007 166.381 24.007C166 24.007 165.644 24.1023 165.315 24.293C164.986 24.475 164.717 24.748 164.509 25.112C164.31 25.4673 164.21 25.892 164.21 26.386C164.21 26.88 164.31 27.3133 164.509 27.686C164.717 28.0587 164.986 28.3447 165.315 28.544C165.653 28.7347 166.008 28.83 166.381 28.83C166.762 28.83 167.118 28.7347 167.447 28.544C167.776 28.3533 168.041 28.076 168.24 27.712C168.448 27.3393 168.552 26.906 168.552 26.412ZM174.88 22.72C175.434 22.72 175.924 22.8327 176.349 23.058C176.782 23.2747 177.12 23.5477 177.363 23.877V22.837H178.858V30.117C178.858 30.7757 178.719 31.3607 178.442 31.872C178.164 32.392 177.761 32.7993 177.233 33.094C176.713 33.3887 176.089 33.536 175.361 33.536C174.39 33.536 173.584 33.3063 172.943 32.847C172.301 32.3963 171.937 31.781 171.851 31.001H173.32C173.432 31.3737 173.671 31.6727 174.035 31.898C174.407 32.132 174.849 32.249 175.361 32.249C175.959 32.249 176.44 32.067 176.804 31.703C177.176 31.339 177.363 30.8103 177.363 30.117V28.921C177.111 29.259 176.769 29.545 176.336 29.779C175.911 30.0043 175.426 30.117 174.88 30.117C174.256 30.117 173.684 29.961 173.164 29.649C172.652 29.3283 172.245 28.8863 171.942 28.323C171.647 27.751 171.5 27.1053 171.5 26.386C171.5 25.6667 171.647 25.0297 171.942 24.475C172.245 23.9203 172.652 23.4913 173.164 23.188C173.684 22.876 174.256 22.72 174.88 22.72ZM177.363 26.412C177.363 25.918 177.259 25.489 177.051 25.125C176.851 24.761 176.587 24.4837 176.258 24.293C175.928 24.1023 175.573 24.007 175.192 24.007C174.81 24.007 174.455 24.1023 174.126 24.293C173.796 24.475 173.528 24.748 173.32 25.112C173.12 25.4673 173.021 25.892 173.021 26.386C173.021 26.88 173.12 27.3133 173.32 27.686C173.528 28.0587 173.796 28.3447 174.126 28.544C174.464 28.7347 174.819 28.83 175.192 28.83C175.573 28.83 175.928 28.7347 176.258 28.544C176.587 28.3533 176.851 28.076 177.051 27.712C177.259 27.3393 177.363 26.906 177.363 26.412ZM187.291 22.837V30H185.809V29.155C185.575 29.4497 185.267 29.6837 184.886 29.857C184.513 30.0217 184.115 30.104 183.69 30.104C183.127 30.104 182.62 29.987 182.169 29.753C181.727 29.519 181.376 29.1723 181.116 28.713C180.865 28.2537 180.739 27.699 180.739 27.049V22.837H182.208V26.828C182.208 27.4693 182.368 27.9633 182.689 28.31C183.01 28.648 183.447 28.817 184.002 28.817C184.557 28.817 184.994 28.648 185.315 28.31C185.644 27.9633 185.809 27.4693 185.809 26.828V22.837H187.291ZM192.86 22.72C193.424 22.72 193.926 22.837 194.368 23.071C194.819 23.305 195.17 23.6517 195.421 24.111C195.673 24.5703 195.798 25.125 195.798 25.775V30H194.329V25.996C194.329 25.3547 194.169 24.865 193.848 24.527C193.528 24.1803 193.09 24.007 192.535 24.007C191.981 24.007 191.539 24.1803 191.209 24.527C190.889 24.865 190.728 25.3547 190.728 25.996V30H189.246V22.837H190.728V23.656C190.971 23.3613 191.279 23.1317 191.651 22.967C192.033 22.8023 192.436 22.72 192.86 22.72ZM197.195 26.386C197.195 25.6667 197.342 25.0297 197.637 24.475C197.94 23.9203 198.348 23.4913 198.859 23.188C199.379 22.876 199.951 22.72 200.575 22.72C201.138 22.72 201.628 22.8327 202.044 23.058C202.469 23.2747 202.807 23.5477 203.058 23.877V22.837H204.553V30H203.058V28.934C202.807 29.272 202.464 29.5537 202.031 29.779C201.598 30.0043 201.104 30.117 200.549 30.117C199.934 30.117 199.37 29.961 198.859 29.649C198.348 29.3283 197.94 28.8863 197.637 28.323C197.342 27.751 197.195 27.1053 197.195 26.386ZM203.058 26.412C203.058 25.918 202.954 25.489 202.746 25.125C202.547 24.761 202.282 24.4837 201.953 24.293C201.624 24.1023 201.268 24.007 200.887 24.007C200.506 24.007 200.15 24.1023 199.821 24.293C199.492 24.475 199.223 24.748 199.015 25.112C198.816 25.4673 198.716 25.892 198.716 26.386C198.716 26.88 198.816 27.3133 199.015 27.686C199.223 28.0587 199.492 28.3447 199.821 28.544C200.159 28.7347 200.514 28.83 200.887 28.83C201.268 28.83 201.624 28.7347 201.953 28.544C202.282 28.3533 202.547 28.076 202.746 27.712C202.954 27.3393 203.058 26.906 203.058 26.412Z" fill="#727C98"/>
</svg>
