<svg width="280" height="50" viewBox="0 0 280 50" fill="none" xmlns="http://www.w3.org/2000/svg">
<rect width="280" height="50" fill="white"/>
<path d="M10 17C10 12.5817 13.5817 9 18 9H34C38.4183 9 42 12.5817 42 17V33C42 37.4183 38.4183 41 34 41H18C13.5817 41 10 37.4183 10 33V17Z" fill="#FFE8E8"/>
<path d="M29.9999 14.498C29.9999 14.2219 30.2238 13.998 30.4999 13.998H33.4999C33.7761 13.998 33.9999 14.2219 33.9999 14.498V18.8962C33.9999 19.3257 33.494 19.5553 33.1707 19.2725L30.1707 16.6475C30.0622 16.5525 29.9999 16.4153 29.9999 16.2712V14.498Z" fill="#FF9F9F"/>
<path d="M26.6318 14.2396C26.271 13.9175 25.7289 13.9175 25.3681 14.2396L16.3236 22.3147C15.666 22.9018 16.0775 23.998 16.9555 23.998H17.9999V33.998C17.9999 34.5503 18.4477 34.998 18.9999 34.998H22.9999V29.998C22.9999 29.4458 23.4477 28.998 23.9999 28.998H27.9999C28.5522 28.998 28.9999 29.4458 28.9999 29.998V34.998H32.9999C33.5522 34.998 33.9999 34.5503 33.9999 33.998V23.998H35.0444C35.9224 23.998 36.3339 22.9018 35.6762 22.3147L26.6318 14.2396Z" fill="#BC0000"/>
<path d="M57.811 25.359C58.2963 25.4457 58.708 25.7013 59.046 26.126C59.384 26.5507 59.553 27.0317 59.553 27.569C59.553 28.0283 59.4317 28.4443 59.189 28.817C58.955 29.181 58.6127 29.4713 58.162 29.688C57.7113 29.896 57.187 30 56.589 30H52.975V20.965H56.42C57.0353 20.965 57.564 21.069 58.006 21.277C58.448 21.485 58.7817 21.7667 59.007 22.122C59.2323 22.4687 59.345 22.8587 59.345 23.292C59.345 23.812 59.2063 24.2453 58.929 24.592C58.6517 24.9387 58.279 25.1943 57.811 25.359ZM54.457 24.761H56.29C56.7753 24.761 57.1523 24.6527 57.421 24.436C57.6983 24.2107 57.837 23.89 57.837 23.474C57.837 23.0667 57.6983 22.7503 57.421 22.525C57.1523 22.291 56.7753 22.174 56.29 22.174H54.457V24.761ZM56.459 28.791C56.9617 28.791 57.356 28.6697 57.642 28.427C57.928 28.1843 58.071 27.8463 58.071 27.413C58.071 26.971 57.9193 26.62 57.616 26.36C57.3127 26.1 56.9097 25.97 56.407 25.97H54.457V28.791H56.459ZM67.7285 26.243C67.7285 26.5117 67.7111 26.7543 67.6765 26.971H62.2035C62.2468 27.543 62.4591 28.0023 62.8405 28.349C63.2218 28.6957 63.6898 28.869 64.2445 28.869C65.0418 28.869 65.6051 28.5353 65.9345 27.868H67.5335C67.3168 28.5267 66.9225 29.0683 66.3505 29.493C65.7871 29.909 65.0851 30.117 64.2445 30.117C63.5598 30.117 62.9445 29.9653 62.3985 29.662C61.8611 29.35 61.4365 28.9167 61.1245 28.362C60.8211 27.7987 60.6695 27.1487 60.6695 26.412C60.6695 25.6753 60.8168 25.0297 61.1115 24.475C61.4148 23.9117 61.8351 23.4783 62.3725 23.175C62.9185 22.8717 63.5425 22.72 64.2445 22.72C64.9205 22.72 65.5228 22.8673 66.0515 23.162C66.5801 23.4567 66.9918 23.8727 67.2865 24.41C67.5811 24.9387 67.7285 25.5497 67.7285 26.243ZM66.1815 25.775C66.1728 25.229 65.9778 24.7913 65.5965 24.462C65.2151 24.1327 64.7428 23.968 64.1795 23.968C63.6681 23.968 63.2305 24.1327 62.8665 24.462C62.5025 24.7827 62.2858 25.2203 62.2165 25.775H66.1815ZM70.6689 23.877C70.8856 23.513 71.1716 23.2313 71.5269 23.032C71.8909 22.824 72.3199 22.72 72.8139 22.72V24.254H72.4369C71.8562 24.254 71.4142 24.4013 71.1109 24.696C70.8162 24.9907 70.6689 25.502 70.6689 26.23V30H69.1869V22.837H70.6689V23.877ZM73.6822 26.386C73.6822 25.6667 73.8295 25.0297 74.1242 24.475C74.4275 23.9203 74.8348 23.4913 75.3462 23.188C75.8662 22.876 76.4382 22.72 77.0622 22.72C77.6255 22.72 78.1152 22.8327 78.5312 23.058C78.9558 23.2747 79.2938 23.5477 79.5452 23.877V22.837H81.0402V30H79.5452V28.934C79.2938 29.272 78.9515 29.5537 78.5182 29.779C78.0848 30.0043 77.5908 30.117 77.0362 30.117C76.4208 30.117 75.8575 29.961 75.3462 29.649C74.8348 29.3283 74.4275 28.8863 74.1242 28.323C73.8295 27.751 73.6822 27.1053 73.6822 26.386ZM79.5452 26.412C79.5452 25.918 79.4412 25.489 79.2332 25.125C79.0338 24.761 78.7695 24.4837 78.4402 24.293C78.1108 24.1023 77.7555 24.007 77.3742 24.007C76.9928 24.007 76.6375 24.1023 76.3082 24.293C75.9788 24.475 75.7102 24.748 75.5022 25.112C75.3028 25.4673 75.2032 25.892 75.2032 26.386C75.2032 26.88 75.3028 27.3133 75.5022 27.686C75.7102 28.0587 75.9788 28.3447 76.3082 28.544C76.6462 28.7347 77.0015 28.83 77.3742 28.83C77.7555 28.83 78.1108 28.7347 78.4402 28.544C78.7695 28.3533 79.0338 28.076 79.2332 27.712C79.4412 27.3393 79.5452 26.906 79.5452 26.412ZM86.6007 22.72C87.1641 22.72 87.6667 22.837 88.1087 23.071C88.5594 23.305 88.9104 23.6517 89.1617 24.111C89.4131 24.5703 89.5387 25.125 89.5387 25.775V30H88.0697V25.996C88.0697 25.3547 87.9094 24.865 87.5887 24.527C87.2681 24.1803 86.8304 24.007 86.2757 24.007C85.7211 24.007 85.2791 24.1803 84.9497 24.527C84.6291 24.865 84.4687 25.3547 84.4687 25.996V30H82.9867V22.837H84.4687V23.656C84.7114 23.3613 85.0191 23.1317 85.3917 22.967C85.7731 22.8023 86.1761 22.72 86.6007 22.72ZM90.9351 26.386C90.9351 25.6667 91.0824 25.0297 91.3771 24.475C91.6804 23.9203 92.0878 23.4913 92.5991 23.188C93.1191 22.876 93.6954 22.72 94.3281 22.72C94.7961 22.72 95.2554 22.824 95.7061 23.032C96.1654 23.2313 96.5294 23.5 96.7981 23.838V20.38H98.2931V30H96.7981V28.921C96.5554 29.2677 96.2174 29.5537 95.7841 29.779C95.3594 30.0043 94.8698 30.117 94.3151 30.117C93.6911 30.117 93.1191 29.961 92.5991 29.649C92.0878 29.3283 91.6804 28.8863 91.3771 28.323C91.0824 27.751 90.9351 27.1053 90.9351 26.386ZM96.7981 26.412C96.7981 25.918 96.6941 25.489 96.4861 25.125C96.2868 24.761 96.0224 24.4837 95.6931 24.293C95.3638 24.1023 95.0084 24.007 94.6271 24.007C94.2458 24.007 93.8904 24.1023 93.5611 24.293C93.2318 24.475 92.9631 24.748 92.7551 25.112C92.5558 25.4673 92.4561 25.892 92.4561 26.386C92.4561 26.88 92.5558 27.3133 92.7551 27.686C92.9631 28.0587 93.2318 28.3447 93.5611 28.544C93.8991 28.7347 94.2544 28.83 94.6271 28.83C95.0084 28.83 95.3638 28.7347 95.6931 28.544C96.0224 28.3533 96.2868 28.076 96.4861 27.712C96.6941 27.3393 96.7981 26.906 96.7981 26.412ZM99.7456 26.386C99.7456 25.6667 99.893 25.0297 100.188 24.475C100.491 23.9203 100.898 23.4913 101.41 23.188C101.93 22.876 102.502 22.72 103.126 22.72C103.689 22.72 104.179 22.8327 104.595 23.058C105.019 23.2747 105.357 23.5477 105.609 23.877V22.837H107.104V30H105.609V28.934C105.357 29.272 105.015 29.5537 104.582 29.779C104.148 30.0043 103.654 30.117 103.1 30.117C102.484 30.117 101.921 29.961 101.41 29.649C100.898 29.3283 100.491 28.8863 100.188 28.323C99.893 27.751 99.7456 27.1053 99.7456 26.386ZM105.609 26.412C105.609 25.918 105.505 25.489 105.297 25.125C105.097 24.761 104.833 24.4837 104.504 24.293C104.174 24.1023 103.819 24.007 103.438 24.007C103.056 24.007 102.701 24.1023 102.372 24.293C102.042 24.475 101.774 24.748 101.566 25.112C101.366 25.4673 101.267 25.892 101.267 26.386C101.267 26.88 101.366 27.3133 101.566 27.686C101.774 28.0587 102.042 28.3447 102.372 28.544C102.71 28.7347 103.065 28.83 103.438 28.83C103.819 28.83 104.174 28.7347 104.504 28.544C104.833 28.3533 105.097 28.076 105.297 27.712C105.505 27.3393 105.609 26.906 105.609 26.412Z" fill="#BC0000"/>
</svg>
