<svg width="360" height="360" viewBox="0 0 360 360" fill="none" xmlns="http://www.w3.org/2000/svg">
<g opacity="0.2">
<path d="M203.5 15C203.5 16.3062 202.665 17.4175 201.5 17.8293V42.9142L181 63.4142V90.5H179V62.5858L199.5 42.0858V17.8293C198.335 17.4175 197.5 16.3062 197.5 15C197.5 13.3431 198.843 12 200.5 12C202.157 12 203.5 13.3431 203.5 15Z" fill="#BCC8E7"/>
<path d="M237.5 18.5987C238.397 18.0799 239 17.1104 239 16C239 14.3431 237.657 13 236 13C234.343 13 233 14.3431 233 16C233 17.4865 234.081 18.7205 235.5 18.9585V29.5858L197 68.0858V99.5H199V68.9142L237.5 30.4142V18.5987Z" fill="#BCC8E7"/>
<path d="M331 22C332.657 22 334 20.6569 334 19C334 17.3431 332.657 16 331 16C329.343 16 328 17.3431 328 19C328 19.5945 328.173 20.1486 328.471 20.6147L317.5 31.5859V44.0859L306.293 55.2924C305.902 55.105 305.463 55 305 55C303.343 55 302 56.3431 302 58C302 59.6569 303.343 61 305 61C306.657 61 308 59.6569 308 58C308 57.5369 307.895 57.0983 307.708 56.7066L319.5 44.9143V32.4143L330.063 21.8509C330.358 21.9477 330.673 22 331 22Z" fill="#BCC8E7"/>
<path d="M301 21C301 22.3062 300.165 23.4175 299 23.8293V40.9142L275.914 64H252.414L208.207 108.207L206.793 106.793L251.586 62H275.086L297 40.0858V23.8293C295.835 23.4175 295 22.3062 295 21C295 19.3431 296.343 18 298 18C299.657 18 301 19.3431 301 21Z" fill="#BCC8E7"/>
<path d="M337.414 78.0002L327 67.5859L303.086 91.5002H249.086L224.293 116.293L225.707 117.707L249.914 93.5002H303.914L327 70.4144L334.586 78.0002L309.086 103.5H279.959C279.721 102.081 278.487 101 277 101C275.343 101 274 102.343 274 104C274 105.657 275.343 107 277 107C278.11 107 279.08 106.397 279.599 105.5H309.914L337.414 78.0002Z" fill="#BCC8E7"/>
<path d="M309.293 117.708C308.902 117.895 308.463 118 308 118C306.343 118 305 116.657 305 115C305 113.343 306.343 112 308 112C309.657 112 311 113.343 311 115C311 115.463 310.895 115.902 310.708 116.293L323.414 129H338.171C338.582 127.835 339.694 127 341 127C342.657 127 344 128.343 344 130C344 131.657 342.657 133 341 133C339.694 133 338.583 132.165 338.171 131H322.586L309.293 117.708Z" fill="#BCC8E7"/>
<path d="M344 149C345.657 149 347 147.657 347 146C347 144.343 345.657 143 344 143C342.694 143 341.583 143.835 341.171 145H319.914L291.914 117H260.586L247.293 130.293L248.707 131.707L261.414 119H291.086L319.086 147H341.171C341.583 148.165 342.694 149 344 149Z" fill="#BCC8E7"/>
<path d="M341 179.5C342.657 179.5 344 178.157 344 176.5C344 174.843 342.657 173.5 341 173.5C339.694 173.5 338.583 174.335 338.171 175.5H317.414L287.914 146H258V148H287.086L316.586 177.5H338.171C338.583 178.665 339.694 179.5 341 179.5Z" fill="#BCC8E7"/>
<path d="M295 178C295 179.657 293.657 181 292 181C290.343 181 289 179.657 289 178C289 177.537 289.105 177.098 289.292 176.707L280.586 168H258.5V166H281.414L290.707 175.292C291.098 175.105 291.537 175 292 175C293.657 175 295 176.343 295 178Z" fill="#BCC8E7"/>
<path d="M330 198C331.657 198 333 196.657 333 195C333 193.343 331.657 192 330 192C328.694 192 327.583 192.835 327.171 194H258V196H327.171C327.583 197.165 328.694 198 330 198Z" fill="#BCC8E7"/>
<path d="M305 338C305 339.657 303.657 341 302 341C300.343 341 299 339.657 299 338C299 336.694 299.835 335.583 301 335.171V290.414L276.5 265.914V232.914L254.793 211.207L256.207 209.793L278.5 232.086V265.086L303 289.586V335.171C304.165 335.583 305 336.694 305 338Z" fill="#BCC8E7"/>
<path d="M276 346C277.657 346 279 344.657 279 343C279 341.694 278.165 340.583 277 340.171V301.586L258 282.586V246.086L240.707 228.793L239.293 230.207L256 246.914V283.414L275 302.414V340.171C273.835 340.583 273 341.694 273 343C273 344.657 274.343 346 276 346Z" fill="#BCC8E7"/>
<path d="M206 343C206 344.657 204.657 346 203 346C201.343 346 200 344.657 200 343C200 341.513 201.081 340.28 202.5 340.041V312.586L225.5 289.586V256.914L208.293 239.707L209.707 238.293L227.5 256.086V290.414L204.5 313.414V340.401C205.397 340.92 206 341.89 206 343Z" fill="#BCC8E7"/>
<path d="M299 209C300.306 209 301.417 208.165 301.829 207H342.171C342.583 208.165 343.694 209 345 209C346.657 209 348 207.657 348 206C348 204.343 346.657 203 345 203C343.694 203 342.583 203.835 342.171 205H301.829C301.417 203.835 300.306 203 299 203C297.343 203 296 204.343 296 206C296 207.657 297.343 209 299 209Z" fill="#BCC8E7"/>
<path d="M295 232.829C296.165 232.417 297 231.306 297 230C297 228.343 295.657 227 294 227C292.343 227 291 228.343 291 230C291 231.306 291.835 232.417 293 232.829V252.414L312.292 271.707C312.105 272.098 312 272.537 312 273C312 274.657 313.343 276 315 276C316.657 276 318 274.657 318 273C318 271.343 316.657 270 315 270C314.537 270 314.098 270.105 313.707 270.292L295 251.586V232.829Z" fill="#BCC8E7"/>
<path d="M243 267C243 268.306 242.165 269.417 241 269.829V290.086L260.063 309.149C260.358 309.052 260.673 309 261 309C262.657 309 264 310.343 264 312C264 313.657 262.657 315 261 315C259.343 315 258 313.657 258 312C258 311.406 258.173 310.852 258.471 310.385L239 290.914V269.829C237.835 269.417 237 268.306 237 267C237 265.343 238.343 264 240 264C241.657 264 243 265.343 243 267Z" fill="#BCC8E7"/>
<path d="M349 331C350.657 331 352 329.657 352 328C352 326.343 350.657 325 349 325C348.673 325 348.358 325.052 348.063 325.149L331.5 308.586V252.586L319.529 240.615C319.827 240.149 320 239.594 320 239C320 237.343 318.657 236 317 236C315.343 236 314 237.343 314 239C314 240.657 315.343 242 317 242C317.327 242 317.642 241.948 317.937 241.851L329.5 253.414V309.414L346.471 326.385C346.173 326.852 346 327.406 346 328C346 329.657 347.343 331 349 331Z" fill="#BCC8E7"/>
<path d="M254.586 72H301.171C301.583 70.8348 302.694 70 304 70C305.657 70 307 71.3431 307 73C307 74.6569 305.657 76 304 76C302.694 76 301.583 75.1652 301.171 74H255.414L215.707 113.707L214.293 112.293L254.586 72Z" fill="#BCC8E7"/>
<path d="M264.5 21C264.5 22.3062 263.665 23.4175 262.5 23.8293V33.4142L226.208 69.7066C226.395 70.0982 226.5 70.5369 226.5 71C226.5 72.6569 225.157 74 223.5 74C221.843 74 220.5 72.6569 220.5 71C220.5 69.3431 221.843 68 223.5 68C223.963 68 224.402 68.1049 224.793 68.2924L260.5 32.5858V23.8293C259.335 23.4175 258.5 22.3062 258.5 21C258.5 19.3431 259.843 18 261.5 18C263.157 18 264.5 19.3431 264.5 21Z" fill="#BCC8E7"/>
<path d="M26 209C24.3431 209 23 210.343 23 212C23 213.657 24.3431 215 26 215C27.3062 215 28.4175 214.165 28.8293 213L50.0858 213L78.0858 241H109.414L122.707 227.707L121.293 226.293L108.586 239H78.9142L50.9142 211L28.8293 211C28.4175 209.835 27.3062 209 26 209Z" fill="#BCC8E7"/>
<path d="M26 181.5C26 179.843 27.3431 178.5 29 178.5C30.3062 178.5 31.4175 179.335 31.8293 180.5H53.4142L82.9142 210H112V212H82.0858L52.5858 182.5H31.8293C31.4175 183.665 30.3062 184.5 29 184.5C27.3431 184.5 26 183.157 26 181.5Z" fill="#BCC8E7"/>
<path d="M78 177C76.3432 177 75 178.343 75 180C75 181.657 76.3432 183 78 183C78.4632 183 78.9018 182.895 79.2934 182.708L88.5858 192H111.5V190H89.4142L80.7076 181.293C80.8951 180.902 81 180.463 81 180C81 178.343 79.6569 177 78 177Z" fill="#BCC8E7"/>
<path d="M37 163C37 161.343 38.3432 160 40 160C41.3062 160 42.4175 160.835 42.8293 162H112V164H42.8293C42.4175 165.165 41.3062 166 40 166C38.3432 166 37 164.657 37 163Z" fill="#BCC8E7"/>
<path d="M68 17C66.3432 17 65 18.3431 65 20C65 21.3062 65.8348 22.4175 67 22.8293L67 68.4141L91.5 92.9141L91.5 125.914L113.793 148.207L115.207 146.793L93.5 125.086L93.5 92.0857L69 67.5857L69 22.8293C70.1652 22.4175 71 21.3062 71 20C71 18.3431 69.6569 17 68 17Z" fill="#BCC8E7"/>
<path d="M91 15C91 13.3431 92.3432 12 94 12C95.6569 12 97 13.3431 97 15C97 16.3062 96.1652 17.4175 95 17.8293V55.5857L114 74.5857L114 111.086L130.707 127.793L129.293 129.207L112 111.914L112 75.4141L93 56.4141V17.8293C91.8348 17.4175 91 16.3062 91 15Z" fill="#BCC8E7"/>
<path d="M167 12C165.343 12 164 13.3431 164 15C164 16.1104 164.603 17.0799 165.5 17.5987L165.5 44.5857L142.5 67.5857L142.5 101.914L160.293 119.707L161.707 118.293L144.5 101.086L144.5 68.4141L167.5 45.4141L167.5 17.9585C168.919 17.7205 170 16.4865 170 15C170 13.3431 168.657 12 167 12Z" fill="#BCC8E7"/>
<path d="M68.1707 151C68.5826 149.835 69.6938 149 71 149C72.6569 149 74 150.343 74 152C74 153.657 72.6569 155 71 155C69.6938 155 68.5826 154.165 68.1707 153H27.8293C27.4175 154.165 26.3063 155 25 155C23.3432 155 22 153.657 22 152C22 150.343 23.3432 149 25 149C26.3063 149 27.4175 149.835 27.8293 151H68.1707Z" fill="#BCC8E7"/>
<path d="M73 128C73 126.694 73.8348 125.583 75 125.171L75 106.414L56.2934 87.7076C55.9018 87.8951 55.4632 88 55 88C53.3432 88 52 86.6569 52 85C52 83.3431 53.3432 82 55 82C56.6569 82 58 83.3431 58 85C58 85.4632 57.8951 85.9018 57.7077 86.2934L77 105.586L77 125.171C78.1652 125.583 79 126.694 79 128C79 129.657 77.6569 131 76 131C74.3432 131 73 129.657 73 128Z" fill="#BCC8E7"/>
<path d="M131 88.1707V67.0858L111.529 47.6147C111.827 47.1485 112 46.5944 112 46C112 44.3431 110.657 43 109 43C107.343 43 106 44.3431 106 46C106 47.6569 107.343 49 109 49C109.327 49 109.642 48.9477 109.937 48.8509L129 67.9142V88.1707C127.835 88.5825 127 89.6938 127 91C127 92.6569 128.343 94 130 94C131.657 94 133 92.6569 133 91C133 89.6938 132.165 88.5825 131 88.1707Z" fill="#BCC8E7"/>
<path d="M18 30C18 28.3431 19.3432 27 21 27C22.6569 27 24 28.3431 24 30C24 30.5944 23.8271 31.1485 23.5289 31.6146L40.5 48.5857L40.5 104.586L52.0634 116.149C52.3581 116.052 52.6729 116 53 116C54.6569 116 56 117.343 56 119C56 120.657 54.6569 122 53 122C51.3432 122 50 120.657 50 119C50 118.406 50.1729 117.851 50.4712 117.385L38.5 105.414L38.5 49.4141L21.9368 32.8509C21.642 32.9476 21.3271 33 21 33C19.3432 33 18 31.6569 18 30Z" fill="#BCC8E7"/>
<path d="M26 228C26 226.343 27.3431 225 29 225C30.3062 225 31.4174 225.835 31.8293 227H47.4142L60.7066 240.292C61.0983 240.105 61.5369 240 62 240C63.6569 240 65 241.343 65 243C65 244.657 63.6569 246 62 246C60.3431 246 59 244.657 59 243C59 242.537 59.105 242.098 59.2924 241.707L46.5858 229H31.8293C31.4175 230.165 30.3062 231 29 231C27.3431 231 26 229.657 26 228Z" fill="#BCC8E7"/>
<path d="M43 290.414L32.5858 280L60.0858 252.5H90.4014C90.9202 251.603 91.8896 251 93 251C94.6569 251 96 252.343 96 254C96 255.657 94.6569 257 93 257C91.5135 257 90.2794 255.919 90.0415 254.5H60.9142L35.4142 280L43 287.586L66.0858 264.5H120.086L144.293 240.293L145.707 241.707L120.914 266.5H66.9142L43 290.414Z" fill="#BCC8E7"/>
<path d="M68.8293 286H115.414L155.707 245.707L154.293 244.293L114.586 284H68.8293C68.4175 282.835 67.3062 282 66 282C64.3431 282 63 283.343 63 285C63 286.657 64.3431 288 66 288C67.3062 288 68.4175 287.165 68.8293 286Z" fill="#BCC8E7"/>
<path d="M71 334.171V317.086L94.0858 294H117.586L161.793 249.793L163.207 251.207L118.414 296H94.9142L73 317.914V334.171C74.1652 334.583 75 335.694 75 337C75 338.657 73.6569 340 72 340C70.3431 340 69 338.657 69 337C69 335.694 69.8348 334.583 71 334.171Z" fill="#BCC8E7"/>
<path d="M36 339C36 337.343 37.3431 336 39 336C39.3271 336 39.6419 336.052 39.9366 336.149L50.5 325.586V313.086L62.2923 301.293C62.1049 300.902 62 300.463 62 300C62 298.343 63.3431 297 65 297C66.6569 297 68 298.343 68 300C68 301.657 66.6569 303 65 303C64.5368 303 64.0982 302.895 63.7065 302.708L52.5 313.914V326.414L41.5288 337.385C41.8271 337.851 42 338.406 42 339C42 340.657 40.6569 342 39 342C37.3431 342 36 340.657 36 339Z" fill="#BCC8E7"/>
<path d="M107.5 334.171C106.335 334.583 105.5 335.694 105.5 337C105.5 338.657 106.843 340 108.5 340C110.157 340 111.5 338.657 111.5 337C111.5 335.694 110.665 334.583 109.5 334.171V325.414L145.207 289.708C145.598 289.895 146.037 290 146.5 290C148.157 290 149.5 288.657 149.5 287C149.5 285.343 148.157 284 146.5 284C144.843 284 143.5 285.343 143.5 287C143.5 287.463 143.605 287.902 143.792 288.293L107.5 324.586V334.171Z" fill="#BCC8E7"/>
<path d="M134.5 328.414V339.041C135.919 339.28 137 340.513 137 342C137 343.657 135.657 345 134 345C132.343 345 131 343.657 131 342C131 340.89 131.603 339.92 132.5 339.401V327.586L171 289.086V258.5H173V289.914L134.5 328.414Z" fill="#BCC8E7"/>
<path d="M170.5 340.171V315.914L191 295.414V267.5H189V294.586L168.5 315.086V340.171C167.335 340.583 166.5 341.694 166.5 343C166.5 344.657 167.843 346 169.5 346C171.157 346 172.5 344.657 172.5 343C172.5 341.694 171.665 340.583 170.5 340.171Z" fill="#BCC8E7"/>
</g>
<path d="M349 160.5C347.694 160.5 346.583 161.335 346.171 162.5L321.086 162.5L300.586 183L273.5 183L273.5 185L301.414 185L321.914 164.5L346.171 164.5C346.583 165.665 347.694 166.5 349 166.5C350.657 166.5 352 165.157 352 163.5C352 161.843 350.657 160.5 349 160.5Z" fill="url(#paint0_radial_5119_221746)"/>
<path d="M345.401 126.5C345.92 125.603 346.89 125 348 125C349.657 125 351 126.343 351 128C351 129.657 349.657 131 348 131C346.514 131 345.28 129.919 345.041 128.5L334.414 128.5L295.914 167L264.5 167L264.5 165L295.086 165L333.586 126.5L345.401 126.5Z" fill="url(#paint1_radial_5119_221746)"/>
<path d="M342 33C342 31.3432 343.343 30 345 30C346.657 30 348 31.3432 348 33C348 34.6569 346.657 36 345 36C344.406 36 343.851 35.8271 343.385 35.5289L332.414 46.5L319.914 46.5L308.708 57.7065C308.895 58.0982 309 58.5369 309 59C309 60.6569 307.657 62 306 62C304.343 62 303 60.6569 303 59C303 57.3432 304.343 56 306 56C306.463 56 306.902 56.1049 307.293 56.2924L319.086 44.5L331.586 44.5L342.149 33.9366C342.052 33.6419 342 33.3271 342 33Z" fill="url(#paint2_radial_5119_221746)"/>
<path d="M343 63C341.694 63 340.583 63.8348 340.171 65L323.086 65L300 88.0858L300 111.586L255.793 155.793L257.207 157.207L302 112.414L302 88.9142L323.914 67L340.171 67C340.583 68.1652 341.694 69 343 69C344.657 69 346 67.6569 346 66C346 64.3432 344.657 63 343 63Z" fill="url(#paint3_radial_5119_221746)"/>
<path d="M286 26.5858L296.414 37L272.5 60.9142L272.5 114.914L247.707 139.707L246.293 138.293L270.5 114.086L270.5 60.0858L293.586 37L286 29.4142L260.5 54.9142L260.5 84.0415C261.919 84.2794 263 85.5135 263 87C263 88.6569 261.657 90 260 90C258.343 90 257 88.6569 257 87C257 85.8897 257.603 84.9202 258.5 84.4015L258.5 54.0858L286 26.5858Z" fill="url(#paint4_radial_5119_221746)"/>
<path d="M246.292 54.7067C246.105 55.0983 246 55.5369 246 56C246 57.6569 247.343 59 249 59C250.657 59 252 57.6569 252 56C252 54.3432 250.657 53 249 53C248.537 53 248.098 53.105 247.707 53.2924L235 40.5858L235 25.8293C236.165 25.4175 237 24.3063 237 23C237 21.3432 235.657 20 234 20C232.343 20 231 21.3432 231 23C231 24.3062 231.835 25.4174 233 25.8293L233 41.4142L246.292 54.7067Z" fill="url(#paint5_radial_5119_221746)"/>
<path d="M215 20C215 18.3432 216.343 17 218 17C219.657 17 221 18.3432 221 20C221 21.3062 220.165 22.4175 219 22.8293L219 44.0858L247 72.0858L247 103.414L233.707 116.707L232.293 115.293L245 102.586L245 72.9142L217 44.9142L217 22.8293C215.835 22.4175 215 21.3062 215 20Z" fill="url(#paint6_radial_5119_221746)"/>
<path d="M184.5 23C184.5 21.3432 185.843 20 187.5 20C189.157 20 190.5 21.3432 190.5 23C190.5 24.3062 189.665 25.4175 188.5 25.8293L188.5 46.5858L218 76.0858L218 106L216 106L216 76.9142L186.5 47.4142L186.5 25.8293C185.335 25.4175 184.5 24.3062 184.5 23Z" fill="url(#paint7_radial_5119_221746)"/>
<path d="M186 69C184.343 69 183 70.3432 183 72C183 73.6569 184.343 75 186 75C186.463 75 186.902 74.8951 187.293 74.7077L196 83.4142L196 105.5L198 105.5L198 82.5858L188.708 73.2934C188.895 72.9018 189 72.4632 189 72C189 70.3432 187.657 69 186 69Z" fill="url(#paint8_radial_5119_221746)"/>
<path d="M166 34C166 32.3432 167.343 31 169 31C170.657 31 172 32.3432 172 34C172 35.3062 171.165 36.4175 170 36.8293L170 106L168 106L168 36.8293C166.835 36.4175 166 35.3062 166 34Z" fill="url(#paint9_radial_5119_221746)"/>
<path d="M26 59C24.3432 59 23 60.3432 23 62C23 63.6569 24.3432 65 26 65C27.3062 65 28.4175 64.1652 28.8293 63L73.5857 63L98.0857 87.5L131.086 87.5L152.793 109.207L154.207 107.793L131.914 85.5L98.9142 85.5L74.4141 61L28.8293 61C28.4175 59.8348 27.3062 59 26 59Z" fill="url(#paint10_radial_5119_221746)"/>
<path d="M18 88C18 86.3432 19.3432 85 21 85C22.3062 85 23.4175 85.8348 23.8293 87L62.4141 87L81.4141 106L117.914 106L135.207 123.293L133.793 124.707L117.086 108L80.5857 108L61.5857 89L23.8293 89C23.4175 90.1652 22.3062 91 21 91C19.3432 91 18 89.6569 18 88Z" fill="url(#paint11_radial_5119_221746)"/>
<path d="M21 158C19.3431 158 18 159.343 18 161C18 162.657 19.3431 164 21 164C22.4865 164 23.7205 162.919 23.9585 161.5L51.4141 161.5L74.4141 138.5L107.086 138.5L124.293 155.707L125.707 154.293L107.914 136.5L73.5857 136.5L50.5857 159.5L23.5987 159.5C23.08 158.603 22.1105 158 21 158Z" fill="url(#paint12_radial_5119_221746)"/>
<path d="M155 65C155 63.6938 155.835 62.5826 157 62.1707L157 21.8293C155.835 21.4175 155 20.3062 155 19C155 17.3432 156.343 16 158 16C159.657 16 161 17.3432 161 19C161 20.3062 160.165 21.4175 159 21.8293L159 62.1707C160.165 62.5826 161 63.6938 161 65C161 66.6569 159.657 68 158 68C156.343 68 155 66.6569 155 65Z" fill="url(#paint13_radial_5119_221746)"/>
<path d="M131.171 69C131.583 67.8348 132.694 67 134 67C135.657 67 137 68.3432 137 70C137 71.6569 135.657 73 134 73C132.694 73 131.583 72.1652 131.171 71L111.586 71L92.2934 51.7077C91.9018 51.8951 91.4631 52 91 52C89.3432 52 88 50.6569 88 49C88 47.3432 89.3432 46 91 46C92.6569 46 94 47.3432 94 49C94 49.4632 93.8951 49.9018 93.7077 50.2934L112.414 69L131.171 69Z" fill="url(#paint14_radial_5119_221746)"/>
<path d="M97 121C95.6938 121 94.5826 121.835 94.1707 123L73.9142 123L54.8509 103.937C54.9477 103.642 55 103.327 55 103C55 101.343 53.6569 100 52 100C50.3432 100 49 101.343 49 103C49 104.657 50.3432 106 52 106C52.5945 106 53.1485 105.827 53.6147 105.529L73.0858 125L94.1707 125C94.5826 126.165 95.6938 127 97 127C98.6569 127 100 125.657 100 124C100 122.343 98.6569 121 97 121Z" fill="url(#paint15_radial_5119_221746)"/>
<path d="M33 15C33 13.3432 34.3432 12 36 12C37.6569 12 39 13.3432 39 15C39 15.3271 38.9476 15.642 38.8509 15.9367L55.4141 32.5L111.414 32.5L123.385 44.4712C123.851 44.1729 124.406 44 125 44C126.657 44 128 45.3432 128 47C128 48.6569 126.657 50 125 50C123.343 50 122 48.6569 122 47C122 46.673 122.052 46.3581 122.149 46.0634L110.586 34.5L54.5857 34.5L37.6146 17.5289C37.1485 17.8271 36.5944 18 36 18C34.3432 18 33 16.6569 33 15Z" fill="url(#paint16_radial_5119_221746)"/>
<path d="M292 109.414L292 62.8293C293.165 62.4175 294 61.3062 294 60C294 58.3432 292.657 57 291 57C289.343 57 288 58.3432 288 60C288 61.3062 288.835 62.4175 290 62.8293L290 108.586L250.293 148.293L251.707 149.707L292 109.414Z" fill="url(#paint17_radial_5119_221746)"/>
<path d="M343 99.5C341.694 99.5 340.583 100.335 340.171 101.5L330.586 101.5L294.293 137.792C293.902 137.605 293.463 137.5 293 137.5C291.343 137.5 290 138.843 290 140.5C290 142.157 291.343 143.5 293 143.5C294.657 143.5 296 142.157 296 140.5C296 140.037 295.895 139.598 295.708 139.207L331.414 103.5L340.171 103.5C340.583 104.665 341.694 105.5 343 105.5C344.657 105.5 346 104.157 346 102.5C346 100.843 344.657 99.5 343 99.5Z" fill="url(#paint18_radial_5119_221746)"/>
<path d="M155 338C155 339.657 153.657 341 152 341C150.343 341 149 339.657 149 338C149 336.694 149.835 335.583 151 335.171L151 313.914L123 285.914L123 254.586L136.293 241.293L137.707 242.707L125 255.414L125 285.086L153 313.086L153 335.171C154.165 335.583 155 336.694 155 338Z" fill="url(#paint19_radial_5119_221746)"/>
<path d="M182.5 338C184.157 338 185.5 336.657 185.5 335C185.5 333.694 184.665 332.583 183.5 332.171L183.5 310.586L154 281.086L154 252L152 252L152 281.914L181.5 311.414L181.5 332.171C180.335 332.583 179.5 333.694 179.5 335C179.5 336.657 180.843 338 182.5 338Z" fill="url(#paint20_radial_5119_221746)"/>
<path d="M187 286C187 287.657 185.657 289 184 289C182.343 289 181 287.657 181 286C181 285.537 181.105 285.098 181.292 284.707L172 275.414L172 252.5L174 252.5L174 274.586L182.707 283.292C183.098 283.105 183.537 283 184 283C185.657 283 187 284.343 187 286Z" fill="url(#paint21_radial_5119_221746)"/>
<path d="M201 327C202.657 327 204 325.657 204 324C204 322.694 203.165 321.583 202 321.171L202 252L200 252L200 321.171C198.835 321.583 198 322.694 198 324C198 325.657 199.343 327 201 327Z" fill="url(#paint22_radial_5119_221746)"/>
<path d="M347 296C347 297.657 345.657 299 344 299C342.694 299 341.583 298.165 341.171 297L295.586 297L271.086 272.5L238.086 272.5L215.793 250.207L217.207 248.793L238.914 270.5L271.914 270.5L296.414 295L341.171 295C341.583 293.835 342.694 293 344 293C345.657 293 347 294.343 347 296Z" fill="url(#paint23_radial_5119_221746)"/>
<path d="M349 273C350.657 273 352 271.657 352 270C352 268.343 350.657 267 349 267C347.694 267 346.583 267.835 346.171 269L308.414 269L289.414 250L252.914 250L236.207 233.293L234.793 234.707L252.086 252L288.586 252L307.586 271L346.171 271C346.583 272.165 347.694 273 349 273Z" fill="url(#paint24_radial_5119_221746)"/>
<path d="M352 197C352 198.657 350.657 200 349 200C347.89 200 346.92 199.397 346.401 198.5L319.414 198.5L296.414 221.5L262.086 221.5L244.293 203.707L245.707 202.293L262.914 219.5L295.586 219.5L318.586 196.5L346.041 196.5C346.28 195.081 347.514 194 349 194C350.657 194 352 195.343 352 197Z" fill="url(#paint25_radial_5119_221746)"/>
<path d="M213 295.829C214.165 295.417 215 294.306 215 293C215 291.343 213.657 290 212 290C210.343 290 209 291.343 209 293C209 294.306 209.835 295.417 211 295.829L211 336.171C209.835 336.583 209 337.694 209 339C209 340.657 210.343 342 212 342C213.657 342 215 340.657 215 339C215 337.694 214.165 336.583 213 336.171L213 295.829Z" fill="url(#paint26_radial_5119_221746)"/>
<path d="M236 291C237.306 291 238.417 290.165 238.829 289L257.586 289L276.292 307.707C276.105 308.098 276 308.537 276 309C276 310.657 277.343 312 279 312C280.657 312 282 310.657 282 309C282 307.343 280.657 306 279 306C278.537 306 278.098 306.105 277.707 306.292L258.414 287L238.829 287C238.417 285.835 237.306 285 236 285C234.343 285 233 286.343 233 288C233 289.657 234.343 291 236 291Z" fill="url(#paint27_radial_5119_221746)"/>
<path d="M275.829 233L296.914 233L316.385 252.471C316.851 252.173 317.406 252 318 252C319.657 252 321 253.343 321 255C321 256.657 319.657 258 318 258C316.343 258 315 256.657 315 255C315 254.673 315.052 254.358 315.149 254.063L296.086 235L275.829 235C275.417 236.165 274.306 237 273 237C271.343 237 270 235.657 270 234C270 232.343 271.343 231 273 231C274.306 231 275.417 231.835 275.829 233Z" fill="url(#paint28_radial_5119_221746)"/>
<path d="M334 346C335.657 346 337 344.657 337 343C337 341.343 335.657 340 334 340C333.406 340 332.852 340.173 332.385 340.471L315.414 323.5L259.414 323.5L247.851 311.937C247.948 311.642 248 311.327 248 311C248 309.343 246.657 308 245 308C243.343 308 242 309.343 242 311C242 312.657 243.343 314 245 314C245.594 314 246.149 313.827 246.615 313.529L258.586 325.5L314.586 325.5L331.149 342.063C331.052 342.358 331 342.673 331 343C331 344.657 332.343 346 334 346Z" fill="url(#paint29_radial_5119_221746)"/>
<path d="M136 338C137.657 338 139 336.657 139 335C139 333.694 138.165 332.583 137 332.171L137 316.586L123.708 303.293C123.895 302.902 124 302.463 124 302C124 300.343 122.657 299 121 299C119.343 299 118 300.343 118 302C118 303.657 119.343 305 121 305C121.463 305 121.902 304.895 122.293 304.708L135 317.414L135 332.171C133.835 332.583 133 333.694 133 335C133 336.657 134.343 338 136 338Z" fill="url(#paint30_radial_5119_221746)"/>
<path d="M73.5859 321L84.0002 331.414L111.5 303.914L111.5 273.599C112.397 273.08 113 272.11 113 271C113 269.343 111.657 268 110 268C108.343 268 107 269.343 107 271C107 272.487 108.081 273.721 109.5 273.959L109.5 303.086L84.0002 328.586L76.4144 321L99.5002 297.914L99.5002 243.914L123.707 219.707L122.293 218.293L97.5002 243.086L97.5002 297.086L73.5859 321Z" fill="url(#paint31_radial_5119_221746)"/>
<path d="M78 295.171L78 248.586L118.293 208.293L119.707 209.707L80 249.414L80 295.171C81.1652 295.583 82 296.694 82 298C82 299.657 80.6569 301 79 301C77.3431 301 76 299.657 76 298C76 296.694 76.8348 295.583 78 295.171Z" fill="url(#paint32_radial_5119_221746)"/>
<path d="M29.8293 293L46.9142 293L70 269.914L70 246.414L114.207 202.207L112.793 200.793L68 245.586L68 269.086L46.0858 291L29.8293 291C29.4175 289.835 28.3062 289 27 289C25.3431 289 24 290.343 24 292C24 293.657 25.3431 295 27 295C28.3062 295 29.4175 294.165 29.8293 293Z" fill="url(#paint33_radial_5119_221746)"/>
<path d="M25 328C26.6569 328 28 326.657 28 325C28 324.673 27.9477 324.358 27.8509 324.063L38.4143 313.5L50.9143 313.5L62.7066 301.708C63.0983 301.895 63.5369 302 64 302C65.6569 302 67 300.657 67 299C67 297.343 65.6569 296 64 296C62.3431 296 61 297.343 61 299C61 299.463 61.105 299.902 61.2924 300.293L50.0859 311.5L37.5859 311.5L26.6147 322.471C26.1485 322.173 25.5945 322 25 322C23.3431 322 22 323.343 22 325C22 326.657 23.3431 328 25 328Z" fill="url(#paint34_radial_5119_221746)"/>
<path d="M29.8293 256.5C29.4175 257.665 28.3062 258.5 27 258.5C25.3431 258.5 24 257.157 24 255.5C24 253.843 25.3431 252.5 27 252.5C28.3062 252.5 29.4175 253.335 29.8293 254.5L38.5858 254.5L74.2924 218.793C74.105 218.402 74 217.963 74 217.5C74 215.843 75.3431 214.5 77 214.5C78.6569 214.5 80 215.843 80 217.5C80 219.157 78.6569 220.5 77 220.5C76.5369 220.5 76.0982 220.395 75.7066 220.208L39.4142 256.5L29.8293 256.5Z" fill="url(#paint35_radial_5119_221746)"/>
<path d="M35.5858 229.5L24.9585 229.5C24.7205 228.081 23.4865 227 22 227C20.3431 227 19 228.343 19 230C19 231.657 20.3431 233 22 233C23.1104 233 24.08 232.397 24.5987 231.5L36.4142 231.5L74.9142 193L105.5 193L105.5 191L74.0858 191L35.5858 229.5Z" fill="url(#paint36_radial_5119_221746)"/>
<path d="M23.8293 193.5L48.0858 193.5L68.5858 173L96.5 173L96.5 175L69.4142 175L48.9142 195.5L23.8293 195.5C23.4175 196.665 22.3062 197.5 21 197.5C19.3431 197.5 18 196.157 18 194.5C18 192.843 19.3431 191.5 21 191.5C22.3062 191.5 23.4175 192.335 23.8293 193.5Z" fill="url(#paint37_radial_5119_221746)"/>
<g filter="url(#filter0_d_5119_221746)">
<path d="M180 90L257.942 135V225L180 270L102.058 225V135L180 90Z" fill="url(#paint38_radial_5119_221746)"/>
<path d="M180 90L257.942 135V225L180 270L102.058 225V135L180 90Z" stroke="url(#paint39_linear_5119_221746)" stroke-width="6" stroke-linejoin="round"/>
</g>
<path d="M199 199V160C199 149.507 190.493 141 180 141V141C169.507 141 161 149.507 161 160V199" stroke="url(#paint40_linear_5119_221746)" stroke-width="6"/>
<g filter="url(#filter1_bdi_5119_221746)">
<rect x="145" y="170" width="70" height="50" rx="10" fill="url(#paint41_radial_5119_221746)" shape-rendering="crispEdges"/>
</g>
<defs>
<filter id="filter0_d_5119_221746" x="89.0577" y="77" width="181.885" height="206" filterUnits="userSpaceOnUse" color-interpolation-filters="sRGB">
<feFlood flood-opacity="0" result="BackgroundImageFix"/>
<feColorMatrix in="SourceAlpha" type="matrix" values="0 0 0 0 0 0 0 0 0 0 0 0 0 0 0 0 0 0 127 0" result="hardAlpha"/>
<feOffset/>
<feGaussianBlur stdDeviation="5"/>
<feComposite in2="hardAlpha" operator="out"/>
<feColorMatrix type="matrix" values="0 0 0 0 0.85098 0 0 0 0 0.164706 0 0 0 0 0.164706 0 0 0 0.6 0"/>
<feBlend mode="multiply" in2="BackgroundImageFix" result="effect1_dropShadow_5119_221746"/>
<feBlend mode="normal" in="SourceGraphic" in2="effect1_dropShadow_5119_221746" result="shape"/>
</filter>
<filter id="filter1_bdi_5119_221746" x="131" y="164" width="98" height="78" filterUnits="userSpaceOnUse" color-interpolation-filters="sRGB">
<feFlood flood-opacity="0" result="BackgroundImageFix"/>
<feGaussianBlur in="BackgroundImage" stdDeviation="2"/>
<feComposite in2="SourceAlpha" operator="in" result="effect1_backgroundBlur_5119_221746"/>
<feColorMatrix in="SourceAlpha" type="matrix" values="0 0 0 0 0 0 0 0 0 0 0 0 0 0 0 0 0 0 127 0" result="hardAlpha"/>
<feOffset dy="8"/>
<feGaussianBlur stdDeviation="7"/>
<feComposite in2="hardAlpha" operator="out"/>
<feColorMatrix type="matrix" values="0 0 0 0 1 0 0 0 0 0.333333 0 0 0 0 0.333333 0 0 0 0.3 0"/>
<feBlend mode="normal" in2="effect1_backgroundBlur_5119_221746" result="effect2_dropShadow_5119_221746"/>
<feBlend mode="normal" in="SourceGraphic" in2="effect2_dropShadow_5119_221746" result="shape"/>
<feColorMatrix in="SourceAlpha" type="matrix" values="0 0 0 0 0 0 0 0 0 0 0 0 0 0 0 0 0 0 127 0" result="hardAlpha"/>
<feOffset dy="-4"/>
<feGaussianBlur stdDeviation="4"/>
<feComposite in2="hardAlpha" operator="arithmetic" k2="-1" k3="1"/>
<feColorMatrix type="matrix" values="0 0 0 0 1 0 0 0 0 0.975 0 0 0 0 0.975 0 0 0 0.75 0"/>
<feBlend mode="normal" in2="shape" result="effect3_innerShadow_5119_221746"/>
</filter>
<radialGradient id="paint0_radial_5119_221746" cx="0" cy="0" r="1" gradientUnits="userSpaceOnUse" gradientTransform="translate(185 179) rotate(-180) scale(167)">
<stop stop-color="#BCC8E7"/>
<stop offset="1" stop-color="#BCC8E7" stop-opacity="0.8"/>
</radialGradient>
<radialGradient id="paint1_radial_5119_221746" cx="0" cy="0" r="1" gradientUnits="userSpaceOnUse" gradientTransform="translate(185 179) rotate(-180) scale(167)">
<stop stop-color="#BCC8E7"/>
<stop offset="1" stop-color="#BCC8E7" stop-opacity="0.8"/>
</radialGradient>
<radialGradient id="paint2_radial_5119_221746" cx="0" cy="0" r="1" gradientUnits="userSpaceOnUse" gradientTransform="translate(185 179) rotate(-180) scale(167)">
<stop stop-color="#BCC8E7"/>
<stop offset="1" stop-color="#BCC8E7" stop-opacity="0.8"/>
</radialGradient>
<radialGradient id="paint3_radial_5119_221746" cx="0" cy="0" r="1" gradientUnits="userSpaceOnUse" gradientTransform="translate(185 179) rotate(-180) scale(167)">
<stop stop-color="#BCC8E7"/>
<stop offset="1" stop-color="#BCC8E7" stop-opacity="0.8"/>
</radialGradient>
<radialGradient id="paint4_radial_5119_221746" cx="0" cy="0" r="1" gradientUnits="userSpaceOnUse" gradientTransform="translate(185 179) rotate(-180) scale(167)">
<stop stop-color="#BCC8E7"/>
<stop offset="1" stop-color="#BCC8E7" stop-opacity="0.8"/>
</radialGradient>
<radialGradient id="paint5_radial_5119_221746" cx="0" cy="0" r="1" gradientUnits="userSpaceOnUse" gradientTransform="translate(185 179) rotate(-180) scale(167)">
<stop stop-color="#BCC8E7"/>
<stop offset="1" stop-color="#BCC8E7" stop-opacity="0.8"/>
</radialGradient>
<radialGradient id="paint6_radial_5119_221746" cx="0" cy="0" r="1" gradientUnits="userSpaceOnUse" gradientTransform="translate(185 179) rotate(-180) scale(167)">
<stop stop-color="#BCC8E7"/>
<stop offset="1" stop-color="#BCC8E7" stop-opacity="0.8"/>
</radialGradient>
<radialGradient id="paint7_radial_5119_221746" cx="0" cy="0" r="1" gradientUnits="userSpaceOnUse" gradientTransform="translate(185 179) rotate(-180) scale(167)">
<stop stop-color="#BCC8E7"/>
<stop offset="1" stop-color="#BCC8E7" stop-opacity="0.8"/>
</radialGradient>
<radialGradient id="paint8_radial_5119_221746" cx="0" cy="0" r="1" gradientUnits="userSpaceOnUse" gradientTransform="translate(185 179) rotate(-180) scale(167)">
<stop stop-color="#BCC8E7"/>
<stop offset="1" stop-color="#BCC8E7" stop-opacity="0.8"/>
</radialGradient>
<radialGradient id="paint9_radial_5119_221746" cx="0" cy="0" r="1" gradientUnits="userSpaceOnUse" gradientTransform="translate(185 179) rotate(-180) scale(167)">
<stop stop-color="#BCC8E7"/>
<stop offset="1" stop-color="#BCC8E7" stop-opacity="0.8"/>
</radialGradient>
<radialGradient id="paint10_radial_5119_221746" cx="0" cy="0" r="1" gradientUnits="userSpaceOnUse" gradientTransform="translate(185 179) rotate(-180) scale(167)">
<stop stop-color="#BCC8E7"/>
<stop offset="1" stop-color="#BCC8E7" stop-opacity="0.8"/>
</radialGradient>
<radialGradient id="paint11_radial_5119_221746" cx="0" cy="0" r="1" gradientUnits="userSpaceOnUse" gradientTransform="translate(185 179) rotate(-180) scale(167)">
<stop stop-color="#BCC8E7"/>
<stop offset="1" stop-color="#BCC8E7" stop-opacity="0.8"/>
</radialGradient>
<radialGradient id="paint12_radial_5119_221746" cx="0" cy="0" r="1" gradientUnits="userSpaceOnUse" gradientTransform="translate(185 179) rotate(-180) scale(167)">
<stop stop-color="#BCC8E7"/>
<stop offset="1" stop-color="#BCC8E7" stop-opacity="0.8"/>
</radialGradient>
<radialGradient id="paint13_radial_5119_221746" cx="0" cy="0" r="1" gradientUnits="userSpaceOnUse" gradientTransform="translate(185 179) rotate(-180) scale(167)">
<stop stop-color="#BCC8E7"/>
<stop offset="1" stop-color="#BCC8E7" stop-opacity="0.8"/>
</radialGradient>
<radialGradient id="paint14_radial_5119_221746" cx="0" cy="0" r="1" gradientUnits="userSpaceOnUse" gradientTransform="translate(185 179) rotate(-180) scale(167)">
<stop stop-color="#BCC8E7"/>
<stop offset="1" stop-color="#BCC8E7" stop-opacity="0.8"/>
</radialGradient>
<radialGradient id="paint15_radial_5119_221746" cx="0" cy="0" r="1" gradientUnits="userSpaceOnUse" gradientTransform="translate(185 179) rotate(-180) scale(167)">
<stop stop-color="#BCC8E7"/>
<stop offset="1" stop-color="#BCC8E7" stop-opacity="0.8"/>
</radialGradient>
<radialGradient id="paint16_radial_5119_221746" cx="0" cy="0" r="1" gradientUnits="userSpaceOnUse" gradientTransform="translate(185 179) rotate(-180) scale(167)">
<stop stop-color="#BCC8E7"/>
<stop offset="1" stop-color="#BCC8E7" stop-opacity="0.8"/>
</radialGradient>
<radialGradient id="paint17_radial_5119_221746" cx="0" cy="0" r="1" gradientUnits="userSpaceOnUse" gradientTransform="translate(185 179) rotate(-180) scale(167)">
<stop stop-color="#BCC8E7"/>
<stop offset="1" stop-color="#BCC8E7" stop-opacity="0.8"/>
</radialGradient>
<radialGradient id="paint18_radial_5119_221746" cx="0" cy="0" r="1" gradientUnits="userSpaceOnUse" gradientTransform="translate(185 179) rotate(-180) scale(167)">
<stop stop-color="#BCC8E7"/>
<stop offset="1" stop-color="#BCC8E7" stop-opacity="0.8"/>
</radialGradient>
<radialGradient id="paint19_radial_5119_221746" cx="0" cy="0" r="1" gradientUnits="userSpaceOnUse" gradientTransform="translate(185 179) rotate(-180) scale(167)">
<stop stop-color="#BCC8E7"/>
<stop offset="1" stop-color="#BCC8E7" stop-opacity="0.8"/>
</radialGradient>
<radialGradient id="paint20_radial_5119_221746" cx="0" cy="0" r="1" gradientUnits="userSpaceOnUse" gradientTransform="translate(185 179) rotate(-180) scale(167)">
<stop stop-color="#BCC8E7"/>
<stop offset="1" stop-color="#BCC8E7" stop-opacity="0.8"/>
</radialGradient>
<radialGradient id="paint21_radial_5119_221746" cx="0" cy="0" r="1" gradientUnits="userSpaceOnUse" gradientTransform="translate(185 179) rotate(-180) scale(167)">
<stop stop-color="#BCC8E7"/>
<stop offset="1" stop-color="#BCC8E7" stop-opacity="0.8"/>
</radialGradient>
<radialGradient id="paint22_radial_5119_221746" cx="0" cy="0" r="1" gradientUnits="userSpaceOnUse" gradientTransform="translate(185 179) rotate(-180) scale(167)">
<stop stop-color="#BCC8E7"/>
<stop offset="1" stop-color="#BCC8E7" stop-opacity="0.8"/>
</radialGradient>
<radialGradient id="paint23_radial_5119_221746" cx="0" cy="0" r="1" gradientUnits="userSpaceOnUse" gradientTransform="translate(185 179) rotate(-180) scale(167)">
<stop stop-color="#BCC8E7"/>
<stop offset="1" stop-color="#BCC8E7" stop-opacity="0.8"/>
</radialGradient>
<radialGradient id="paint24_radial_5119_221746" cx="0" cy="0" r="1" gradientUnits="userSpaceOnUse" gradientTransform="translate(185 179) rotate(-180) scale(167)">
<stop stop-color="#BCC8E7"/>
<stop offset="1" stop-color="#BCC8E7" stop-opacity="0.8"/>
</radialGradient>
<radialGradient id="paint25_radial_5119_221746" cx="0" cy="0" r="1" gradientUnits="userSpaceOnUse" gradientTransform="translate(185 179) rotate(-180) scale(167)">
<stop stop-color="#BCC8E7"/>
<stop offset="1" stop-color="#BCC8E7" stop-opacity="0.8"/>
</radialGradient>
<radialGradient id="paint26_radial_5119_221746" cx="0" cy="0" r="1" gradientUnits="userSpaceOnUse" gradientTransform="translate(185 179) rotate(-180) scale(167)">
<stop stop-color="#BCC8E7"/>
<stop offset="1" stop-color="#BCC8E7" stop-opacity="0.8"/>
</radialGradient>
<radialGradient id="paint27_radial_5119_221746" cx="0" cy="0" r="1" gradientUnits="userSpaceOnUse" gradientTransform="translate(185 179) rotate(-180) scale(167)">
<stop stop-color="#BCC8E7"/>
<stop offset="1" stop-color="#BCC8E7" stop-opacity="0.8"/>
</radialGradient>
<radialGradient id="paint28_radial_5119_221746" cx="0" cy="0" r="1" gradientUnits="userSpaceOnUse" gradientTransform="translate(185 179) rotate(-180) scale(167)">
<stop stop-color="#BCC8E7"/>
<stop offset="1" stop-color="#BCC8E7" stop-opacity="0.8"/>
</radialGradient>
<radialGradient id="paint29_radial_5119_221746" cx="0" cy="0" r="1" gradientUnits="userSpaceOnUse" gradientTransform="translate(185 179) rotate(-180) scale(167)">
<stop stop-color="#BCC8E7"/>
<stop offset="1" stop-color="#BCC8E7" stop-opacity="0.8"/>
</radialGradient>
<radialGradient id="paint30_radial_5119_221746" cx="0" cy="0" r="1" gradientUnits="userSpaceOnUse" gradientTransform="translate(185 179) rotate(-180) scale(167)">
<stop stop-color="#BCC8E7"/>
<stop offset="1" stop-color="#BCC8E7" stop-opacity="0.8"/>
</radialGradient>
<radialGradient id="paint31_radial_5119_221746" cx="0" cy="0" r="1" gradientUnits="userSpaceOnUse" gradientTransform="translate(185 179) rotate(-180) scale(167)">
<stop stop-color="#BCC8E7"/>
<stop offset="1" stop-color="#BCC8E7" stop-opacity="0.8"/>
</radialGradient>
<radialGradient id="paint32_radial_5119_221746" cx="0" cy="0" r="1" gradientUnits="userSpaceOnUse" gradientTransform="translate(185 179) rotate(-180) scale(167)">
<stop stop-color="#BCC8E7"/>
<stop offset="1" stop-color="#BCC8E7" stop-opacity="0.8"/>
</radialGradient>
<radialGradient id="paint33_radial_5119_221746" cx="0" cy="0" r="1" gradientUnits="userSpaceOnUse" gradientTransform="translate(185 179) rotate(-180) scale(167)">
<stop stop-color="#BCC8E7"/>
<stop offset="1" stop-color="#BCC8E7" stop-opacity="0.8"/>
</radialGradient>
<radialGradient id="paint34_radial_5119_221746" cx="0" cy="0" r="1" gradientUnits="userSpaceOnUse" gradientTransform="translate(185 179) rotate(-180) scale(167)">
<stop stop-color="#BCC8E7"/>
<stop offset="1" stop-color="#BCC8E7" stop-opacity="0.8"/>
</radialGradient>
<radialGradient id="paint35_radial_5119_221746" cx="0" cy="0" r="1" gradientUnits="userSpaceOnUse" gradientTransform="translate(185 179) rotate(-180) scale(167)">
<stop stop-color="#BCC8E7"/>
<stop offset="1" stop-color="#BCC8E7" stop-opacity="0.8"/>
</radialGradient>
<radialGradient id="paint36_radial_5119_221746" cx="0" cy="0" r="1" gradientUnits="userSpaceOnUse" gradientTransform="translate(185 179) rotate(-180) scale(167)">
<stop stop-color="#BCC8E7"/>
<stop offset="1" stop-color="#BCC8E7" stop-opacity="0.8"/>
</radialGradient>
<radialGradient id="paint37_radial_5119_221746" cx="0" cy="0" r="1" gradientUnits="userSpaceOnUse" gradientTransform="translate(185 179) rotate(-180) scale(167)">
<stop stop-color="#BCC8E7"/>
<stop offset="1" stop-color="#BCC8E7" stop-opacity="0.8"/>
</radialGradient>
<radialGradient id="paint38_radial_5119_221746" cx="0" cy="0" r="1" gradientUnits="userSpaceOnUse" gradientTransform="translate(180 180) rotate(90) scale(90)">
<stop stop-color="white"/>
<stop offset="1" stop-color="#FCE1E1"/>
</radialGradient>
<linearGradient id="paint39_linear_5119_221746" x1="180" y1="90" x2="180" y2="270" gradientUnits="userSpaceOnUse">
<stop stop-color="#FF2020"/>
<stop offset="0.510417" stop-color="#FF8484"/>
<stop offset="1" stop-color="#C80000"/>
</linearGradient>
<linearGradient id="paint40_linear_5119_221746" x1="180" y1="141" x2="180" y2="199" gradientUnits="userSpaceOnUse">
<stop stop-color="#C1D3FF"/>
<stop offset="1" stop-color="#8091BE"/>
</linearGradient>
<radialGradient id="paint41_radial_5119_221746" cx="0" cy="0" r="1" gradientUnits="userSpaceOnUse" gradientTransform="translate(180 182) rotate(90) scale(38 53.2)">
<stop stop-color="#FFBEBE" stop-opacity="0.7"/>
<stop offset="1" stop-color="#E30000"/>
</radialGradient>
</defs>
</svg>
