<svg width="32" height="32" viewBox="0 0 32 32" fill="none" xmlns="http://www.w3.org/2000/svg">
<rect width="32" height="32" rx="10" fill="#E6EAF3"/>
<path opacity="0.4" d="M17.8056 19.334H13.0833C12.9728 19.334 12.8669 19.3779 12.7887 19.456C12.7106 19.5342 12.6667 19.6401 12.6667 19.7507V21.1395C12.6667 21.25 12.7106 21.356 12.7887 21.4342C12.8669 21.5123 12.9728 21.5562 13.0833 21.5562H17.8056C17.9161 21.5562 18.0221 21.5123 18.1002 21.4342C18.1783 21.356 18.2222 21.25 18.2222 21.1395V19.7507C18.2222 19.6401 18.1783 19.5342 18.1002 19.456C18.0221 19.3779 17.9161 19.334 17.8056 19.334ZM11.1389 19.334H8.6389C8.52839 19.334 8.42241 19.3779 8.34427 19.456C8.26613 19.5342 8.22223 19.6401 8.22223 19.7507V21.1395C8.22223 21.25 8.26613 21.356 8.34427 21.4342C8.42241 21.5123 8.52839 21.5562 8.6389 21.5562H11.1389C11.2494 21.5562 11.3554 21.5123 11.4335 21.4342C11.5117 21.356 11.5556 21.25 11.5556 21.1395V19.7507C11.5556 19.6401 11.5117 19.5342 11.4335 19.456C11.3554 19.3779 11.2494 19.334 11.1389 19.334Z" fill="#BCC8E7"/>
<path d="M24.3333 8.22266H7.66667C7.22464 8.22266 6.80072 8.39825 6.48816 8.71081C6.17559 9.02337 6 9.4473 6 9.88932V22.1115C6 22.5536 6.17559 22.9775 6.48816 23.2901C6.80072 23.6026 7.22464 23.7782 7.66667 23.7782H24.3333C24.7754 23.7782 25.1993 23.6026 25.5118 23.2901C25.8244 22.9775 26 22.5536 26 22.1115V9.88932C26 9.4473 25.8244 9.02337 25.5118 8.71081C25.1993 8.39825 24.7754 8.22266 24.3333 8.22266ZM11.5556 21.1393C11.5556 21.2498 11.5117 21.3558 11.4335 21.434C11.3554 21.5121 11.2494 21.556 11.1389 21.556H8.63889C8.52838 21.556 8.4224 21.5121 8.34426 21.434C8.26612 21.3558 8.22222 21.2498 8.22222 21.1393V19.7504C8.22222 19.6399 8.26612 19.5339 8.34426 19.4558C8.4224 19.3777 8.52838 19.3338 8.63889 19.3338H11.1389C11.2494 19.3338 11.3554 19.3777 11.4335 19.4558C11.5117 19.5339 11.5556 19.6399 11.5556 19.7504V21.1393ZM18.2222 21.1393C18.2222 21.2498 18.1783 21.3558 18.1002 21.434C18.022 21.5121 17.9161 21.556 17.8056 21.556H13.0833C12.9728 21.556 12.8668 21.5121 12.7887 21.434C12.7106 21.3558 12.6667 21.2498 12.6667 21.1393V19.7504C12.6667 19.6399 12.7106 19.5339 12.7887 19.4558C12.8668 19.3777 12.9728 19.3338 13.0833 19.3338H17.8056C17.9161 19.3338 18.022 19.3777 18.1002 19.4558C18.1783 19.5339 18.2222 19.6399 18.2222 19.7504V21.1393Z" fill="#BCC8E7"/>
</svg>
