<svg width="28" height="30" viewBox="0 0 28 30" fill="none" xmlns="http://www.w3.org/2000/svg">
<circle cx="14" cy="15" r="13.5" fill="#FF6F6F" stroke="#F7F9FF"/>
<path d="M7.02422 15C7.02422 13.6267 7.33089 12.4 7.94422 11.32C8.57089 10.2267 9.41755 9.38 10.4842 8.78C11.5642 8.16667 12.7709 7.86 14.1042 7.86C15.6642 7.86 17.0309 8.26 18.2042 9.06C19.3776 9.86 20.1976 10.9667 20.6642 12.38H17.4442C17.1242 11.7133 16.6709 11.2133 16.0842 10.88C15.5109 10.5467 14.8442 10.38 14.0842 10.38C13.2709 10.38 12.5442 10.5733 11.9042 10.96C11.2776 11.3333 10.7842 11.8667 10.4242 12.56C10.0776 13.2533 9.90422 14.0667 9.90422 15C9.90422 15.92 10.0776 16.7333 10.4242 17.44C10.7842 18.1333 11.2776 18.6733 11.9042 19.06C12.5442 19.4333 13.2709 19.62 14.0842 19.62C14.8442 19.62 15.5109 19.4533 16.0842 19.12C16.6709 18.7733 17.1242 18.2667 17.4442 17.6H20.6642C20.1976 19.0267 19.3776 20.14 18.2042 20.94C17.0442 21.7267 15.6776 22.12 14.1042 22.12C12.7709 22.12 11.5642 21.82 10.4842 21.22C9.41755 20.6067 8.57089 19.76 7.94422 18.68C7.33089 17.6 7.02422 16.3733 7.02422 15Z" fill="white"/>
</svg>
