<svg width="32" height="32" viewBox="0 0 32 32" fill="none" xmlns="http://www.w3.org/2000/svg">
<rect width="32" height="32" rx="10" fill="#E6EAF3"/>
<path fill-rule="evenodd" clip-rule="evenodd" d="M23.0019 17.316C23.2999 17.4743 23.5299 17.7243 23.6917 17.9743C24.0068 18.491 23.9812 19.1243 23.6747 19.6827L23.0785 20.6827C22.7634 21.216 22.1758 21.5493 21.5711 21.5493C21.2731 21.5493 20.9409 21.466 20.6684 21.2993C20.447 21.1577 20.1915 21.1077 19.919 21.1077C19.0759 21.1077 18.369 21.7993 18.3435 22.6243C18.3435 23.5827 17.5599 24.3327 16.5806 24.3327H15.4224C14.4345 24.3327 13.651 23.5827 13.651 22.6243C13.6339 21.7993 12.9271 21.1077 12.084 21.1077C11.8029 21.1077 11.5474 21.1577 11.3345 21.2993C11.062 21.466 10.7214 21.5493 10.4318 21.5493C9.81862 21.5493 9.231 21.216 8.91589 20.6827L8.32827 19.6827C8.01316 19.141 7.99613 18.491 8.31124 17.9743C8.4475 17.7243 8.70299 17.4743 8.99254 17.316C9.231 17.1993 9.38429 17.0077 9.52907 16.7827C9.95488 16.066 9.69939 15.1243 8.97551 14.6993C8.13239 14.2243 7.85987 13.166 8.3453 12.341L8.91589 11.3577C9.40984 10.5327 10.4659 10.241 11.3175 10.7243C12.0584 11.1243 13.0208 10.8577 13.4551 10.1493C13.5913 9.91602 13.668 9.66602 13.651 9.41602C13.6339 9.09102 13.7276 8.78268 13.8894 8.53268C14.2045 8.01602 14.7751 7.68268 15.3968 7.66602H16.5976C17.2278 7.66602 17.7984 8.01602 18.1135 8.53268C18.2668 8.78268 18.369 9.09102 18.3435 9.41602C18.3264 9.66602 18.4031 9.91602 18.5393 10.1493C18.9737 10.8577 19.936 11.1243 20.6854 10.7243C21.5286 10.241 22.5931 10.5327 23.0785 11.3577L23.6491 12.341C24.1431 13.166 23.8705 14.2243 23.0189 14.6993C22.295 15.1243 22.0395 16.066 22.4739 16.7827C22.6101 17.0077 22.7634 17.1993 23.0019 17.316ZM13.5913 16.0077C13.5913 17.316 14.6729 18.3577 16.01 18.3577C17.347 18.3577 18.4031 17.316 18.4031 16.0077C18.4031 14.6993 17.347 13.6493 16.01 13.6493C14.6729 13.6493 13.5913 14.6993 13.5913 16.0077Z" fill="#BCC8E7"/>
</svg>
