<svg width="280" height="50" viewBox="0 0 280 50" fill="none" xmlns="http://www.w3.org/2000/svg">
<rect width="280" height="50" fill="white"/>
<rect x="10" y="9" width="32" height="32" rx="10" fill="#E6EAF3"/>
<path fill-rule="evenodd" clip-rule="evenodd" d="M33.0019 26.316C33.2999 26.4743 33.5299 26.7243 33.6917 26.9743C34.0068 27.491 33.9812 28.1243 33.6747 28.6827L33.0785 29.6827C32.7634 30.216 32.1758 30.5493 31.5711 30.5493C31.2731 30.5493 30.9409 30.466 30.6684 30.2993C30.447 30.1577 30.1915 30.1077 29.919 30.1077C29.0759 30.1077 28.369 30.7993 28.3435 31.6243C28.3435 32.5827 27.5599 33.3327 26.5806 33.3327H25.4224C24.4345 33.3327 23.651 32.5827 23.651 31.6243C23.6339 30.7993 22.9271 30.1077 22.084 30.1077C21.8029 30.1077 21.5474 30.1577 21.3345 30.2993C21.062 30.466 20.7214 30.5493 20.4318 30.5493C19.8186 30.5493 19.231 30.216 18.9159 29.6827L18.3283 28.6827C18.0132 28.141 17.9961 27.491 18.3112 26.9743C18.4475 26.7243 18.703 26.4743 18.9925 26.316C19.231 26.1993 19.3843 26.0077 19.5291 25.7827C19.9549 25.066 19.6994 24.1243 18.9755 23.6993C18.1324 23.2243 17.8599 22.166 18.3453 21.341L18.9159 20.3577C19.4098 19.5327 20.4659 19.241 21.3175 19.7243C22.0584 20.1243 23.0208 19.8577 23.4551 19.1493C23.5913 18.916 23.668 18.666 23.651 18.416C23.6339 18.091 23.7276 17.7827 23.8894 17.5327C24.2045 17.016 24.7751 16.6827 25.3968 16.666H26.5976C27.2278 16.666 27.7984 17.016 28.1135 17.5327C28.2668 17.7827 28.369 18.091 28.3435 18.416C28.3264 18.666 28.4031 18.916 28.5393 19.1493C28.9737 19.8577 29.936 20.1243 30.6854 19.7243C31.5286 19.241 32.5931 19.5327 33.0785 20.3577L33.6491 21.341C34.1431 22.166 33.8705 23.2243 33.0189 23.6993C32.295 24.1243 32.0395 25.066 32.4739 25.7827C32.6101 26.0077 32.7634 26.1993 33.0019 26.316ZM23.5913 25.0077C23.5913 26.316 24.6729 27.3577 26.01 27.3577C27.347 27.3577 28.4031 26.316 28.4031 25.0077C28.4031 23.6993 27.347 22.6493 26.01 22.6493C24.6729 22.6493 23.5913 23.6993 23.5913 25.0077Z" fill="#BCC8E7"/>
<path d="M59.514 23.565C59.28 23.1143 58.955 22.7763 58.539 22.551C58.123 22.317 57.642 22.2 57.096 22.2C56.498 22.2 55.965 22.3343 55.497 22.603C55.029 22.8717 54.6607 23.253 54.392 23.747C54.132 24.241 54.002 24.813 54.002 25.463C54.002 26.113 54.132 26.6893 54.392 27.192C54.6607 27.686 55.029 28.0673 55.497 28.336C55.965 28.6047 56.498 28.739 57.096 28.739C57.902 28.739 58.5563 28.5137 59.059 28.063C59.5617 27.6123 59.8693 27.0013 59.982 26.23H56.589V25.047H61.568V26.204C61.4727 26.906 61.2213 27.5517 60.814 28.141C60.4153 28.7303 59.891 29.2027 59.241 29.558C58.5997 29.9047 57.8847 30.078 57.096 30.078C56.2467 30.078 55.471 29.883 54.769 29.493C54.067 29.0943 53.508 28.544 53.092 27.842C52.6847 27.14 52.481 26.347 52.481 25.463C52.481 24.579 52.6847 23.786 53.092 23.084C53.508 22.382 54.067 21.836 54.769 21.446C55.4797 21.0473 56.2553 20.848 57.096 20.848C58.058 20.848 58.9117 21.0863 59.657 21.563C60.411 22.031 60.957 22.6983 61.295 23.565H59.514ZM69.5947 26.243C69.5947 26.5117 69.5774 26.7543 69.5427 26.971H64.0697C64.113 27.543 64.3254 28.0023 64.7067 28.349C65.088 28.6957 65.556 28.869 66.1107 28.869C66.908 28.869 67.4714 28.5353 67.8007 27.868H69.3997C69.183 28.5267 68.7887 29.0683 68.2167 29.493C67.6534 29.909 66.9514 30.117 66.1107 30.117C65.426 30.117 64.8107 29.9653 64.2647 29.662C63.7274 29.35 63.3027 28.9167 62.9907 28.362C62.6874 27.7987 62.5357 27.1487 62.5357 26.412C62.5357 25.6753 62.683 25.0297 62.9777 24.475C63.281 23.9117 63.7014 23.4783 64.2387 23.175C64.7847 22.8717 65.4087 22.72 66.1107 22.72C66.7867 22.72 67.389 22.8673 67.9177 23.162C68.4464 23.4567 68.858 23.8727 69.1527 24.41C69.4474 24.9387 69.5947 25.5497 69.5947 26.243ZM68.0477 25.775C68.039 25.229 67.844 24.7913 67.4627 24.462C67.0814 24.1327 66.609 23.968 66.0457 23.968C65.5344 23.968 65.0967 24.1327 64.7327 24.462C64.3687 24.7827 64.152 25.2203 64.0827 25.775H68.0477ZM74.6671 22.72C75.2305 22.72 75.7331 22.837 76.1751 23.071C76.6258 23.305 76.9768 23.6517 77.2281 24.111C77.4795 24.5703 77.6051 25.125 77.6051 25.775V30H76.1361V25.996C76.1361 25.3547 75.9758 24.865 75.6551 24.527C75.3345 24.1803 74.8968 24.007 74.3421 24.007C73.7875 24.007 73.3455 24.1803 73.0161 24.527C72.6955 24.865 72.5351 25.3547 72.5351 25.996V30H71.0531V22.837H72.5351V23.656C72.7778 23.3613 73.0855 23.1317 73.4581 22.967C73.8395 22.8023 74.2425 22.72 74.6671 22.72ZM86.0605 26.243C86.0605 26.5117 86.0432 26.7543 86.0085 26.971H80.5355C80.5788 27.543 80.7912 28.0023 81.1725 28.349C81.5538 28.6957 82.0218 28.869 82.5765 28.869C83.3738 28.869 83.9372 28.5353 84.2665 27.868H85.8655C85.6488 28.5267 85.2545 29.0683 84.6825 29.493C84.1192 29.909 83.4172 30.117 82.5765 30.117C81.8918 30.117 81.2765 29.9653 80.7305 29.662C80.1932 29.35 79.7685 28.9167 79.4565 28.362C79.1532 27.7987 79.0015 27.1487 79.0015 26.412C79.0015 25.6753 79.1488 25.0297 79.4435 24.475C79.7468 23.9117 80.1672 23.4783 80.7045 23.175C81.2505 22.8717 81.8745 22.72 82.5765 22.72C83.2525 22.72 83.8548 22.8673 84.3835 23.162C84.9122 23.4567 85.3238 23.8727 85.6185 24.41C85.9132 24.9387 86.0605 25.5497 86.0605 26.243ZM84.5135 25.775C84.5048 25.229 84.3098 24.7913 83.9285 24.462C83.5472 24.1327 83.0748 23.968 82.5115 23.968C82.0002 23.968 81.5625 24.1327 81.1985 24.462C80.8345 24.7827 80.6178 25.2203 80.5485 25.775H84.5135ZM89.0009 23.877C89.2176 23.513 89.5036 23.2313 89.8589 23.032C90.2229 22.824 90.6519 22.72 91.1459 22.72V24.254H90.7689C90.1883 24.254 89.7463 24.4013 89.4429 24.696C89.1483 24.9907 89.0009 25.502 89.0009 26.23V30H87.5189V22.837H89.0009V23.877ZM92.0142 26.386C92.0142 25.6667 92.1615 25.0297 92.4562 24.475C92.7595 23.9203 93.1669 23.4913 93.6782 23.188C94.1982 22.876 94.7702 22.72 95.3942 22.72C95.9575 22.72 96.4472 22.8327 96.8632 23.058C97.2879 23.2747 97.6259 23.5477 97.8772 23.877V22.837H99.3722V30H97.8772V28.934C97.6259 29.272 97.2835 29.5537 96.8502 29.779C96.4169 30.0043 95.9229 30.117 95.3682 30.117C94.7529 30.117 94.1895 29.961 93.6782 29.649C93.1669 29.3283 92.7595 28.8863 92.4562 28.323C92.1615 27.751 92.0142 27.1053 92.0142 26.386ZM97.8772 26.412C97.8772 25.918 97.7732 25.489 97.5652 25.125C97.3659 24.761 97.1015 24.4837 96.7722 24.293C96.4429 24.1023 96.0875 24.007 95.7062 24.007C95.3249 24.007 94.9695 24.1023 94.6402 24.293C94.3109 24.475 94.0422 24.748 93.8342 25.112C93.6349 25.4673 93.5352 25.892 93.5352 26.386C93.5352 26.88 93.6349 27.3133 93.8342 27.686C94.0422 28.0587 94.3109 28.3447 94.6402 28.544C94.9782 28.7347 95.3335 28.83 95.7062 28.83C96.0875 28.83 96.4429 28.7347 96.7722 28.544C97.1015 28.3533 97.3659 28.076 97.5652 27.712C97.7732 27.3393 97.8772 26.906 97.8772 26.412ZM102.801 20.38V30H101.319V20.38H102.801ZM114.441 23.656C114.441 24.1153 114.333 24.5487 114.116 24.956C113.9 25.3633 113.553 25.697 113.076 25.957C112.6 26.2083 111.989 26.334 111.243 26.334H109.605V30H108.123V20.965H111.243C111.937 20.965 112.522 21.0863 112.998 21.329C113.484 21.563 113.843 21.8837 114.077 22.291C114.32 22.6983 114.441 23.1533 114.441 23.656ZM111.243 25.125C111.807 25.125 112.227 24.9993 112.504 24.748C112.782 24.488 112.92 24.124 112.92 23.656C112.92 22.668 112.361 22.174 111.243 22.174H109.605V25.125H111.243ZM115.361 26.386C115.361 25.6667 115.508 25.0297 115.803 24.475C116.106 23.9203 116.514 23.4913 117.025 23.188C117.545 22.876 118.117 22.72 118.741 22.72C119.304 22.72 119.794 22.8327 120.21 23.058C120.635 23.2747 120.973 23.5477 121.224 23.877V22.837H122.719V30H121.224V28.934C120.973 29.272 120.63 29.5537 120.197 29.779C119.764 30.0043 119.27 30.117 118.715 30.117C118.1 30.117 117.536 29.961 117.025 29.649C116.514 29.3283 116.106 28.8863 115.803 28.323C115.508 27.751 115.361 27.1053 115.361 26.386ZM121.224 26.412C121.224 25.918 121.12 25.489 120.912 25.125C120.713 24.761 120.448 24.4837 120.119 24.293C119.79 24.1023 119.434 24.007 119.053 24.007C118.672 24.007 118.316 24.1023 117.987 24.293C117.658 24.475 117.389 24.748 117.181 25.112C116.982 25.4673 116.882 25.892 116.882 26.386C116.882 26.88 116.982 27.3133 117.181 27.686C117.389 28.0587 117.658 28.3447 117.987 28.544C118.325 28.7347 118.68 28.83 119.053 28.83C119.434 28.83 119.79 28.7347 120.119 28.544C120.448 28.3533 120.713 28.076 120.912 27.712C121.12 27.3393 121.224 26.906 121.224 26.412ZM126.147 23.877C126.364 23.513 126.65 23.2313 127.005 23.032C127.369 22.824 127.798 22.72 128.292 22.72V24.254H127.915C127.335 24.254 126.893 24.4013 126.589 24.696C126.295 24.9907 126.147 25.502 126.147 26.23V30H124.665V22.837H126.147V23.877ZM129.161 26.386C129.161 25.6667 129.308 25.0297 129.603 24.475C129.906 23.9203 130.313 23.4913 130.825 23.188C131.345 22.876 131.917 22.72 132.541 22.72C133.104 22.72 133.594 22.8327 134.01 23.058C134.434 23.2747 134.772 23.5477 135.024 23.877V22.837H136.519V30H135.024V28.934C134.772 29.272 134.43 29.5537 133.997 29.779C133.563 30.0043 133.069 30.117 132.515 30.117C131.899 30.117 131.336 29.961 130.825 29.649C130.313 29.3283 129.906 28.8863 129.603 28.323C129.308 27.751 129.161 27.1053 129.161 26.386ZM135.024 26.412C135.024 25.918 134.92 25.489 134.712 25.125C134.512 24.761 134.248 24.4837 133.919 24.293C133.589 24.1023 133.234 24.007 132.853 24.007C132.471 24.007 132.116 24.1023 131.787 24.293C131.457 24.475 131.189 24.748 130.981 25.112C130.781 25.4673 130.682 25.892 130.682 26.386C130.682 26.88 130.781 27.3133 130.981 27.686C131.189 28.0587 131.457 28.3447 131.787 28.544C132.125 28.7347 132.48 28.83 132.853 28.83C133.234 28.83 133.589 28.7347 133.919 28.544C134.248 28.3533 134.512 28.076 134.712 27.712C134.92 27.3393 135.024 26.906 135.024 26.412ZM147.136 22.72C147.7 22.72 148.202 22.837 148.644 23.071C149.095 23.305 149.446 23.6517 149.697 24.111C149.957 24.5703 150.087 25.125 150.087 25.775V30H148.618V25.996C148.618 25.3547 148.458 24.865 148.137 24.527C147.817 24.1803 147.379 24.007 146.824 24.007C146.27 24.007 145.828 24.1803 145.498 24.527C145.178 24.865 145.017 25.3547 145.017 25.996V30H143.548V25.996C143.548 25.3547 143.388 24.865 143.067 24.527C142.747 24.1803 142.309 24.007 141.754 24.007C141.2 24.007 140.758 24.1803 140.428 24.527C140.108 24.865 139.947 25.3547 139.947 25.996V30H138.465V22.837H139.947V23.656C140.19 23.3613 140.498 23.1317 140.87 22.967C141.243 22.8023 141.642 22.72 142.066 22.72C142.638 22.72 143.15 22.8413 143.6 23.084C144.051 23.3267 144.398 23.6777 144.64 24.137C144.857 23.7037 145.195 23.3613 145.654 23.11C146.114 22.85 146.608 22.72 147.136 22.72ZM158.538 26.243C158.538 26.5117 158.521 26.7543 158.486 26.971H153.013C153.056 27.543 153.269 28.0023 153.65 28.349C154.031 28.6957 154.499 28.869 155.054 28.869C155.851 28.869 156.415 28.5353 156.744 27.868H158.343C158.126 28.5267 157.732 29.0683 157.16 29.493C156.597 29.909 155.895 30.117 155.054 30.117C154.369 30.117 153.754 29.9653 153.208 29.662C152.671 29.35 152.246 28.9167 151.934 28.362C151.631 27.7987 151.479 27.1487 151.479 26.412C151.479 25.6753 151.626 25.0297 151.921 24.475C152.224 23.9117 152.645 23.4783 153.182 23.175C153.728 22.8717 154.352 22.72 155.054 22.72C155.73 22.72 156.332 22.8673 156.861 23.162C157.39 23.4567 157.801 23.8727 158.096 24.41C158.391 24.9387 158.538 25.5497 158.538 26.243ZM156.991 25.775C156.982 25.229 156.787 24.7913 156.406 24.462C156.025 24.1327 155.552 23.968 154.989 23.968C154.478 23.968 154.04 24.1327 153.676 24.462C153.312 24.7827 153.095 25.2203 153.026 25.775H156.991ZM161.725 24.046V28.011C161.725 28.2797 161.786 28.4747 161.907 28.596C162.037 28.7087 162.254 28.765 162.557 28.765H163.467V30H162.297C161.63 30 161.119 29.844 160.763 29.532C160.408 29.22 160.23 28.713 160.23 28.011V24.046H159.385V22.837H160.23V21.056H161.725V22.837H163.467V24.046H161.725ZM171.398 26.243C171.398 26.5117 171.381 26.7543 171.346 26.971H165.873C165.917 27.543 166.129 28.0023 166.51 28.349C166.892 28.6957 167.36 28.869 167.914 28.869C168.712 28.869 169.275 28.5353 169.604 27.868H171.203C170.987 28.5267 170.592 29.0683 170.02 29.493C169.457 29.909 168.755 30.117 167.914 30.117C167.23 30.117 166.614 29.9653 166.068 29.662C165.531 29.35 165.106 28.9167 164.794 28.362C164.491 27.7987 164.339 27.1487 164.339 26.412C164.339 25.6753 164.487 25.0297 164.781 24.475C165.085 23.9117 165.505 23.4783 166.042 23.175C166.588 22.8717 167.212 22.72 167.914 22.72C168.59 22.72 169.193 22.8673 169.721 23.162C170.25 23.4567 170.662 23.8727 170.956 24.41C171.251 24.9387 171.398 25.5497 171.398 26.243ZM169.851 25.775C169.843 25.229 169.648 24.7913 169.266 24.462C168.885 24.1327 168.413 23.968 167.849 23.968C167.338 23.968 166.9 24.1327 166.536 24.462C166.172 24.7827 165.956 25.2203 165.886 25.775H169.851ZM174.339 23.877C174.556 23.513 174.842 23.2313 175.197 23.032C175.561 22.824 175.99 22.72 176.484 22.72V24.254H176.107C175.526 24.254 175.084 24.4013 174.781 24.696C174.486 24.9907 174.339 25.502 174.339 26.23V30H172.857V22.837H174.339V23.877Z" fill="#727C98"/>
</svg>
