<svg width="32" height="32" viewBox="0 0 32 32" fill="none" xmlns="http://www.w3.org/2000/svg">
<path d="M0 8C0 3.58172 3.58172 0 8 0H24C28.4183 0 32 3.58172 32 8V24C32 28.4183 28.4183 32 24 32H8C3.58172 32 0 28.4183 0 24V8Z" fill="#FFE8E8"/>
<path d="M19.9999 5.49805C19.9999 5.2219 20.2238 4.99805 20.4999 4.99805H23.4999C23.7761 4.99805 23.9999 5.2219 23.9999 5.49805V9.89616C23.9999 10.3257 23.494 10.5553 23.1707 10.2725L20.1707 7.64745C20.0622 7.55251 19.9999 7.41534 19.9999 7.27116V5.49805Z" fill="#FF9F9F"/>
<path d="M16.6318 5.23962C16.271 4.91752 15.7289 4.91752 15.3681 5.23962L6.32364 13.3147C5.66602 13.9018 6.07747 14.998 6.95545 14.998H7.99994V24.998C7.99994 25.5503 8.44765 25.998 8.99994 25.998H12.9999V20.998C12.9999 20.4458 13.4477 19.998 13.9999 19.998H17.9999C18.5522 19.998 18.9999 20.4458 18.9999 20.998V25.998H22.9999C23.5522 25.998 23.9999 25.5503 23.9999 24.998V14.998H25.0444C25.9224 14.998 26.3339 13.9018 25.6762 13.3147L16.6318 5.23962Z" fill="#BC0000"/>
</svg>
