<svg width="206" height="30" viewBox="0 0 206 30" fill="none" xmlns="http://www.w3.org/2000/svg">
<path d="M2.75723 19.4616C2.75723 19.8114 2.81811 20.1623 2.87898 20.4816C3.3939 22.4272 4.93967 23.7677 6.87862 23.7677C9.66679 23.7677 11.3333 21.3746 11.3333 17.8333C11.3333 14.7395 9.81847 12.0912 6.96943 12.0912C5.15123 12.0912 3.45478 13.4001 2.90892 15.5369C2.84804 15.8562 2.75723 16.2386 2.75723 16.6851V19.4616ZM0 25.6491C0.0598748 24.5965 0.120747 23.0333 0.120747 21.6624V3H2.75723V12.6984H2.81811C3.75714 10.9745 5.45459 9.85882 7.81865 9.85882C11.455 9.85882 14.0307 13.0482 13.9997 17.7377C13.9997 23.2571 10.6966 26 7.42447 26C5.30291 26 3.60546 25.1386 2.51474 23.0974H2.42393L2.30318 25.6491" fill="#BC0001"/>
<path d="M25.1087 17.8422C22.1243 17.7787 18.7355 18.316 18.7355 21.289C18.7355 23.0916 19.917 23.9455 21.3155 23.9455C23.2751 23.9455 24.518 22.6802 24.9531 21.3838C25.0473 21.0995 25.1087 20.7829 25.1087 20.4987V17.8422ZM25.5131 25.6522L25.2961 23.7237H25.2019C24.3624 24.9254 22.7458 26 20.6009 26C17.5541 26 15.9999 23.8184 15.9999 21.6046C15.9999 17.9047 19.2331 15.8814 25.0473 15.9127V15.5971C25.0473 14.3319 24.7053 12.0556 21.6268 12.0556C20.2282 12.0556 18.7663 12.4981 17.7097 13.1938L17.0882 11.3589C18.3311 10.5373 20.1351 10 22.0312 10C26.6321 10 27.7522 13.1938 27.7522 16.2605V21.9846C27.7522 23.3123 27.8136 24.6088 27.9999 25.6522" fill="#BC0001"/>
<path d="M33.1159 14.3031C33.1159 12.7872 33.0864 11.5448 33 10.3333H35.2503L35.3947 12.7573H35.4517C36.1441 11.3632 37.7599 10 40.0672 10C42.0002 10 45 11.2115 45 16.2421V25H42.4619V16.5455C42.4619 14.1814 41.625 12.2114 39.2303 12.2114C37.5576 12.2114 36.26 13.4549 35.8269 14.9398C35.7119 15.2731 35.654 15.7272 35.654 16.1812V25H33.1159" fill="#BC0001"/>
<path d="M52.5713 16.8816H52.6307C52.9849 16.3551 53.4881 15.7041 53.9017 15.1776L58.0983 10.0031H61.2311L55.7041 16.1694L62 25H58.837L53.9017 17.8112L52.5713 19.3612V25H50V3H52.5713" fill="#BC0001"/>
<path d="M96.4888 7L100.015 17.1153C100.609 18.7518 101.092 20.2389 101.463 21.7261H101.575C101.982 20.2389 102.502 18.7518 103.096 17.1153L106.585 7H110L102.947 25H99.8296L93 7" fill="#BC0001"/>
<path d="M113 25H117V7H113V25Z" fill="#BC0001"/>
<path d="M134.922 24.9445C134.019 25.3976 132.016 26 129.463 26C123.73 26 120 22.2682 120 16.689C120 11.0716 124.005 7 130.21 7C132.251 7 134.057 7.49016 135 7.94223L134.215 10.5063C133.39 10.0543 132.094 9.63926 130.21 9.63926C125.851 9.63926 123.494 12.7306 123.494 16.5376C123.494 20.7606 126.322 23.3618 130.092 23.3618C132.055 23.3618 133.35 22.8716 134.333 22.4566" fill="#BC0001"/>
<path d="M143.171 2V7.26958H148V9.81012H143.171V19.7061C143.171 21.9815 143.822 23.271 145.7 23.271C146.581 23.271 147.234 23.157 147.655 23.0431L147.808 25.5453C147.156 25.8115 146.122 26 144.818 26C143.247 26 141.982 25.507 141.177 24.5977C140.219 23.6117 139.875 21.9815 139.875 19.82V9.81012H137V7.26958H139.875V2.87205" fill="#BC0001"/>
<path d="M153.387 16.5369C153.387 20.5176 155.709 23.5219 158.981 23.5219C162.177 23.5219 164.575 20.5556 164.575 16.462C164.575 13.3829 163.015 9.47808 159.057 9.47808C155.099 9.47808 153.387 13.0834 153.387 16.5369ZM168 16.3492C168 23.0716 163.281 26 158.829 26C153.844 26 150 22.3957 150 16.6497C150 10.5674 154.034 7 159.134 7C164.422 7 168 10.792 168 16.3492Z" fill="#BC0001"/>
<path d="M172.149 12.8914C172.149 10.8183 172.111 9.03631 172 7.39932H174.852L174.963 10.8541H175.111C175.926 8.48998 177.889 7 180.074 7C180.445 7 180.704 7.03576 181 7.10827V10.127C180.667 10.0545 180.333 10.0177 179.889 10.0177C177.593 10.0177 175.963 11.7272 175.519 14.1271C175.445 14.5632 175.371 15.0727 175.371 15.6181V25H172.149" fill="#BC0001"/>
<path d="M184 25H188V7H184V25Z" fill="#BC0001"/>
<path d="M202.628 16.3123C199.145 16.2364 195.191 16.8754 195.191 20.4048C195.191 22.5455 196.57 23.5588 198.201 23.5588C200.487 23.5588 201.937 22.0572 202.444 20.5176C202.553 20.1792 202.628 19.8038 202.628 19.4663V16.3123ZM203.099 25.5866L202.846 23.2963H202.737C201.757 24.723 199.87 26 197.367 26C193.814 26 192 23.4091 192 20.7802C192 16.3872 195.772 13.984 202.553 14.0209V13.6455C202.553 12.1439 202.155 9.44013 198.564 9.44013C196.933 9.44013 195.226 9.96631 193.993 10.792L193.268 8.61445C194.719 7.63798 196.824 7 199.036 7C204.405 7 205.709 10.792 205.709 14.4342V21.2305C205.709 22.808 205.782 24.3476 206 25.5866" fill="#BC0001"/>
<path fill-rule="evenodd" clip-rule="evenodd" d="M72.6744 18.5704C72.1956 17.5785 70.4086 16.2459 68.7017 15.6622C66.6909 14.7471 65.0474 14.9226 63.6601 15.8273C63.3083 17.0332 64.2335 18.1519 66.9781 19.1438C69.0524 19.446 70.982 19.3193 72.6744 18.5704ZM77.5879 16.061C76.8386 16.6832 76.0882 17.3053 75.3388 17.9182C76.0882 19.1926 76.8386 20.4577 77.5879 21.7218C78.3373 20.5543 78.9753 19.3287 79.5821 18.0843C78.9285 17.4123 78.2582 16.732 77.5879 16.061ZM82.2309 18.4635C83.714 19.3775 85.8529 19.5042 88.3414 18.9786C90.575 18.1612 91.979 17.1693 91.1328 15.8273C90.6228 15.0296 89.0752 14.8738 86.3473 15.6622C84.3843 16.3228 83.0604 17.3542 82.2309 18.4635ZM77.5078 2.97684C75.4023 3.60004 74.7799 5.90486 75.3867 9.61084C75.8009 12.3155 76.5982 13.7448 77.5078 14.7087C78.8005 13.1808 79.9651 11.4597 79.758 7.34446C79.885 4.88384 78.9753 3.70702 77.5078 2.97684ZM77.6514 0C80.5074 0.904684 80.9861 3.41516 81.1298 6.14791C81.5128 10.1458 79.63 12.7528 77.8752 15.4482C78.4497 16.1773 79.1512 16.8774 80.1244 17.4902C80.8269 16.7611 81.5929 16.1576 82.4058 15.3703C84.911 13.8227 87.2403 13.0738 89.2667 13.0738C91.7073 13.4633 92.9844 14.2028 93 15.7203C92.8408 17.082 91.7719 18.3367 89.0908 19.4066C86.7615 20.0589 84.3999 19.7473 81.8802 19.0472C80.2846 21.2066 79.0076 23.5311 77.9866 25.6905C79.3271 26.3522 79.5821 27.1011 79.5665 27.879C79.4707 29.3093 78.6891 29.9314 77.4287 30C76.4066 29.7081 75.753 29.0569 75.4179 27.879C75.6417 26.858 76.2318 26.2161 77.0457 25.73C76.2641 23.4823 75.0994 21.1869 73.3436 19.1147C72.3871 19.5239 71.1267 19.6984 70.1536 19.8158C68.5414 19.9228 66.9302 19.7379 65.3347 19.1344C63.3405 18.2007 62.4309 17.1693 62 16.061C62.2238 15.1657 62.1915 14.2807 64.0899 13.3272C66.26 12.8889 68.43 13.1808 70.6001 14.2807C72.2112 14.8447 73.6465 15.9831 74.9714 17.4902C75.8165 16.9065 76.5513 16.2064 77.2049 15.4482C76.9021 15.0784 76.6148 14.718 76.3109 14.3482C75.1785 12.2865 73.8067 10.7596 73.6152 6.55611C73.9181 2.5489 75.2587 0.369768 77.6514 0Z" fill="#BC0001"/>
</svg>
