<svg width="357" height="52" viewBox="0 0 357 52" fill="none" xmlns="http://www.w3.org/2000/svg">
<path d="M4.77831 33.7326C4.77831 34.339 4.88381 34.9472 4.9893 35.5007C5.88167 38.873 8.5605 41.1965 11.9207 41.1965C16.7526 41.1965 19.6407 37.0485 19.6407 30.9102C19.6407 25.5477 17.0155 20.9572 12.0781 20.9572C8.92713 20.9572 5.98716 23.2261 5.04118 26.9298C4.93569 27.4833 4.77831 28.1461 4.77831 28.92V33.7326ZM0 44.4577C0.103764 42.6332 0.209257 39.9237 0.209257 37.5474V5.19922H4.77831V22.0097H4.88381C6.51117 19.0216 9.45286 17.0878 13.5498 17.0878C19.8517 17.0878 24.3153 22.6161 24.2617 30.7445C24.2617 40.3115 18.5374 45.0659 12.8667 45.0659C9.19 45.0659 6.2483 43.5728 4.35807 40.0348H4.2007L3.99144 44.4577" fill="#DF0D18"/>
<path d="M43.5138 30.9272C38.3418 30.8171 32.469 31.7485 32.469 36.9016C32.469 40.026 34.5165 41.5061 36.9401 41.5061C40.336 41.5061 42.49 39.3131 43.2441 37.0659C43.4073 36.5731 43.5138 36.0244 43.5138 35.5317V30.9272ZM44.2146 44.4645L43.8384 41.1217H43.6752C42.2203 43.2046 39.4188 45.0673 35.7017 45.0673C30.4215 45.0673 27.7281 41.2859 27.7281 37.4485C27.7281 31.0355 33.3313 27.5284 43.4073 27.5826V27.0357C43.4073 24.8427 42.8147 20.897 37.4795 20.897C35.0558 20.897 32.5222 21.6641 30.6912 22.8698L29.6142 19.6895C31.7681 18.2653 34.8944 17.334 38.1803 17.334C46.1539 17.334 48.0949 22.8698 48.0949 28.1855V38.1074C48.0949 40.4087 48.2013 42.6559 48.5243 44.4645" fill="#DF0D18"/>
<path d="M57.3901 24.7927C57.3901 22.1652 57.3391 20.0117 57.1893 17.9117H61.0891L61.3393 22.1133H61.4381C62.6382 19.6968 65.4383 17.334 69.4369 17.334C72.7868 17.334 77.9854 19.4339 77.9854 28.1536V43.334H73.5869V28.6795C73.5869 24.5817 72.1366 21.1671 67.9866 21.1671C65.0877 21.1671 62.839 23.3224 62.0883 25.8963C61.8891 26.474 61.7887 27.2611 61.7887 28.0481V43.334H57.3901" fill="#DF0D18"/>
<path d="M91.1066 29.2607H91.2094C91.8234 28.3481 92.6954 27.2196 93.4122 26.307L100.685 17.3379H106.114L96.5358 28.0262L107.447 43.3326H101.965L93.4122 30.872L91.1066 33.5587V43.3326H86.6505V5.19922H91.1066" fill="#DF0D18"/>
<path d="M167.216 12.1328L173.327 29.6661C174.357 32.5026 175.193 35.0803 175.836 37.658H176.03C176.736 35.0803 177.637 32.5026 178.667 29.6661L184.713 12.1328H190.631L178.409 43.3328H173.006L161.17 12.1328" fill="#DF0D18"/>
<path d="M195.83 43.3328H202.762V12.1328H195.83V43.3328Z" fill="#DF0D18"/>
<path d="M233.821 43.2366C232.256 44.022 228.785 45.0661 224.361 45.0661C214.426 45.0661 207.961 38.5976 207.961 28.927C207.961 19.1903 214.902 12.1328 225.655 12.1328C229.192 12.1328 232.322 12.9824 233.956 13.766L232.596 18.2104C231.166 17.4268 228.921 16.7075 225.655 16.7075C218.101 16.7075 214.017 22.0658 214.017 28.6646C214.017 35.9845 218.917 40.4932 225.45 40.4932C228.852 40.4932 231.097 39.6436 232.8 38.9243" fill="#DF0D18"/>
<path d="M248.116 3.4668V12.6007H256.485V17.0043H248.116V34.1574C248.116 38.1014 249.244 40.3365 252.499 40.3365C254.027 40.3365 255.157 40.139 255.887 39.9415L256.153 44.2787C255.023 44.7401 253.231 45.0668 250.972 45.0668C248.248 45.0668 246.057 44.2123 244.661 42.6361C243.001 40.9271 242.404 38.1014 242.404 34.3549V17.0043H237.422V12.6007H242.404V4.97835" fill="#DF0D18"/>
<path d="M265.822 28.6635C265.822 35.5634 269.845 40.7708 275.515 40.7708C281.054 40.7708 285.21 35.6292 285.21 28.5337C285.21 23.1965 282.506 16.4282 275.647 16.4282C268.789 16.4282 265.822 22.6774 265.822 28.6635ZM291.146 28.3381C291.146 39.9903 282.967 45.0661 275.252 45.0661C266.613 45.0661 259.951 38.8187 259.951 28.859C259.951 18.3163 266.943 12.1328 275.78 12.1328C284.945 12.1328 291.146 18.7056 291.146 28.3381Z" fill="#DF0D18"/>
<path d="M298.335 22.3446C298.335 18.7513 298.271 15.6624 298.078 12.825H303.02L303.213 18.8132H303.469C304.882 14.7155 308.283 12.1328 312.071 12.1328C312.712 12.1328 313.161 12.1948 313.675 12.3205V17.5529C313.098 17.4272 312.519 17.3635 311.75 17.3635C307.77 17.3635 304.945 20.3267 304.176 24.4864C304.048 25.2423 303.92 26.1255 303.92 27.0708V43.3328H298.335" fill="#DF0D18"/>
<path d="M318.874 43.3328H325.806V12.1328H318.874V43.3328Z" fill="#DF0D18"/>
<path d="M351.156 28.2741C345.12 28.1426 338.268 29.2502 338.268 35.3678C338.268 39.0783 340.658 40.8348 343.484 40.8348C347.445 40.8348 349.959 38.232 350.838 35.5634C351.027 34.9767 351.156 34.326 351.156 33.7411V28.2741ZM351.973 44.3497L351.533 40.3797H351.344C349.646 42.8527 346.377 45.0661 342.039 45.0661C335.882 45.0661 332.738 40.5752 332.738 36.0185C332.738 28.4039 339.274 24.2384 351.027 24.3024V23.6517C351.027 21.0489 350.337 16.3624 344.113 16.3624C341.287 16.3624 338.328 17.2744 336.192 18.7056L334.936 14.9312C337.449 13.2387 341.098 12.1328 344.932 12.1328C354.236 12.1328 356.495 18.7056 356.495 25.0188V36.799C356.495 39.5334 356.622 42.202 357 44.3497" fill="#DF0D18"/>
<path fill-rule="evenodd" clip-rule="evenodd" d="M125.945 32.1888C125.116 30.4694 122.019 28.1595 119.061 27.1477C115.576 25.5616 112.728 25.8659 110.324 27.434C109.714 29.5242 111.317 31.4632 116.074 33.1826C119.668 33.7065 123.013 33.4868 125.945 32.1888ZM134.461 27.8391C133.162 28.9175 131.862 29.9959 130.563 31.0581C131.862 33.2672 133.162 35.46 134.461 37.6511C135.759 35.6275 136.865 33.503 137.917 31.3462C136.784 30.1814 135.622 29.0021 134.461 27.8391ZM142.507 32.0033C145.077 33.5876 148.784 33.8073 153.097 32.8963C156.967 31.4794 159.4 29.7601 157.934 27.434C157.05 26.0513 154.368 25.7813 149.641 27.1477C146.239 28.2928 143.945 30.0805 142.507 32.0033ZM134.322 5.15985C130.673 6.24007 129.594 10.2351 130.646 16.6588C131.364 21.347 132.745 23.8243 134.322 25.495C136.562 22.8467 138.58 19.8634 138.221 12.7304C138.441 8.46533 136.865 6.42551 134.322 5.15985ZM134.571 0C139.52 1.56812 140.35 5.91961 140.599 10.6564C141.262 17.586 138 22.1049 134.958 26.7769C135.954 28.0407 137.17 29.2542 138.856 30.3164C140.074 29.0525 141.401 28.0065 142.81 26.6418C147.152 23.9593 151.188 22.6612 154.7 22.6612C158.93 23.3364 161.143 24.6182 161.17 27.2486C160.894 29.6088 159.042 31.7837 154.395 33.6381C150.359 34.7687 146.266 34.2286 141.899 33.0151C139.134 36.7581 136.921 40.7873 135.151 44.5303C137.475 45.6771 137.917 46.9752 137.889 48.3237C137.724 50.8028 136.369 51.8812 134.185 52C132.413 51.4941 131.281 50.3653 130.7 48.3237C131.088 46.5539 132.11 45.4413 133.521 44.5987C132.166 40.7027 130.148 36.7239 127.105 33.1322C125.448 33.8415 123.263 34.144 121.577 34.3474C118.783 34.5328 115.991 34.2124 113.226 33.1664C109.77 31.5478 108.193 29.7601 107.447 27.8391C107.834 26.2872 107.778 24.7532 111.068 23.1005C114.829 22.3408 118.59 22.8467 122.351 24.7532C125.143 25.7308 127.63 27.704 129.926 30.3164C131.391 29.3046 132.664 28.0911 133.797 26.7769C133.272 26.1359 132.774 25.5112 132.248 24.8703C130.285 21.2965 127.908 18.65 127.576 11.3639C128.101 4.4181 130.424 0.640931 134.571 0Z" fill="#DF0D18"/>
</svg>
