<svg width="280" height="50" viewBox="0 0 280 50" fill="none" xmlns="http://www.w3.org/2000/svg">
<rect width="280" height="50" fill="white"/>
<rect x="10" y="9" width="32" height="32" rx="10" fill="#E6EAF3"/>
<path opacity="0.4" d="M27.8056 28.334H23.0833C22.9728 28.334 22.8669 28.3779 22.7887 28.456C22.7106 28.5342 22.6667 28.6401 22.6667 28.7507V30.1395C22.6667 30.25 22.7106 30.356 22.7887 30.4342C22.8669 30.5123 22.9728 30.5562 23.0833 30.5562H27.8056C27.9161 30.5562 28.0221 30.5123 28.1002 30.4342C28.1783 30.356 28.2222 30.25 28.2222 30.1395V28.7507C28.2222 28.6401 28.1783 28.5342 28.1002 28.456C28.0221 28.3779 27.9161 28.334 27.8056 28.334ZM21.1389 28.334H18.6389C18.5284 28.334 18.4224 28.3779 18.3443 28.456C18.2661 28.5342 18.2222 28.6401 18.2222 28.7507V30.1395C18.2222 30.25 18.2661 30.356 18.3443 30.4342C18.4224 30.5123 18.5284 30.5562 18.6389 30.5562H21.1389C21.2494 30.5562 21.3554 30.5123 21.4335 30.4342C21.5117 30.356 21.5556 30.25 21.5556 30.1395V28.7507C21.5556 28.6401 21.5117 28.5342 21.4335 28.456C21.3554 28.3779 21.2494 28.334 21.1389 28.334Z" fill="#BCC8E7"/>
<path d="M34.3333 17.2227H17.6667C17.2246 17.2227 16.8007 17.3983 16.4882 17.7108C16.1756 18.0234 16 18.4473 16 18.8893V31.1115C16 31.5536 16.1756 31.9775 16.4882 32.2901C16.8007 32.6026 17.2246 32.7782 17.6667 32.7782H34.3333C34.7754 32.7782 35.1993 32.6026 35.5118 32.2901C35.8244 31.9775 36 31.5536 36 31.1115V18.8893C36 18.4473 35.8244 18.0234 35.5118 17.7108C35.1993 17.3983 34.7754 17.2227 34.3333 17.2227ZM21.5556 30.1393C21.5556 30.2498 21.5117 30.3558 21.4335 30.434C21.3554 30.5121 21.2494 30.556 21.1389 30.556H18.6389C18.5284 30.556 18.4224 30.5121 18.3443 30.434C18.2661 30.3558 18.2222 30.2498 18.2222 30.1393V28.7504C18.2222 28.6399 18.2661 28.5339 18.3443 28.4558C18.4224 28.3777 18.5284 28.3338 18.6389 28.3338H21.1389C21.2494 28.3338 21.3554 28.3777 21.4335 28.4558C21.5117 28.5339 21.5556 28.6399 21.5556 28.7504V30.1393ZM28.2222 30.1393C28.2222 30.2498 28.1783 30.3558 28.1002 30.434C28.022 30.5121 27.9161 30.556 27.8056 30.556H23.0833C22.9728 30.556 22.8668 30.5121 22.7887 30.434C22.7106 30.3558 22.6667 30.2498 22.6667 30.1393V28.7504C22.6667 28.6399 22.7106 28.5339 22.7887 28.4558C22.8668 28.3777 22.9728 28.3338 23.0833 28.3338H27.8056C27.9161 28.3338 28.022 28.3777 28.1002 28.4558C28.1783 28.5339 28.2222 28.6399 28.2222 28.7504V30.1393Z" fill="#BCC8E7"/>
<path d="M59.293 23.656C59.293 24.1153 59.1847 24.5487 58.968 24.956C58.7513 25.3633 58.4047 25.697 57.928 25.957C57.4513 26.2083 56.8403 26.334 56.095 26.334H54.457V30H52.975V20.965H56.095C56.7883 20.965 57.3733 21.0863 57.85 21.329C58.3353 21.563 58.695 21.8837 58.929 22.291C59.1717 22.6983 59.293 23.1533 59.293 23.656ZM56.095 25.125C56.6583 25.125 57.0787 24.9993 57.356 24.748C57.6333 24.488 57.772 24.124 57.772 23.656C57.772 22.668 57.213 22.174 56.095 22.174H54.457V25.125H56.095ZM67.2714 26.243C67.2714 26.5117 67.2541 26.7543 67.2194 26.971H61.7464C61.7898 27.543 62.0021 28.0023 62.3834 28.349C62.7648 28.6957 63.2328 28.869 63.7874 28.869C64.5848 28.869 65.1481 28.5353 65.4774 27.868H67.0764C66.8598 28.5267 66.4654 29.0683 65.8934 29.493C65.3301 29.909 64.6281 30.117 63.7874 30.117C63.1028 30.117 62.4874 29.9653 61.9414 29.662C61.4041 29.35 60.9794 28.9167 60.6674 28.362C60.3641 27.7987 60.2124 27.1487 60.2124 26.412C60.2124 25.6753 60.3598 25.0297 60.6544 24.475C60.9578 23.9117 61.3781 23.4783 61.9154 23.175C62.4614 22.8717 63.0854 22.72 63.7874 22.72C64.4634 22.72 65.0658 22.8673 65.5944 23.162C66.1231 23.4567 66.5348 23.8727 66.8294 24.41C67.1241 24.9387 67.2714 25.5497 67.2714 26.243ZM65.7244 25.775C65.7158 25.229 65.5208 24.7913 65.1394 24.462C64.7581 24.1327 64.2858 23.968 63.7224 23.968C63.2111 23.968 62.7734 24.1327 62.4094 24.462C62.0454 24.7827 61.8288 25.2203 61.7594 25.775H65.7244ZM72.3439 22.72C72.9072 22.72 73.4099 22.837 73.8519 23.071C74.3025 23.305 74.6535 23.6517 74.9049 24.111C75.1562 24.5703 75.2819 25.125 75.2819 25.775V30H73.8129V25.996C73.8129 25.3547 73.6525 24.865 73.3319 24.527C73.0112 24.1803 72.5735 24.007 72.0189 24.007C71.4642 24.007 71.0222 24.1803 70.6929 24.527C70.3722 24.865 70.2119 25.3547 70.2119 25.996V30H68.7299V22.837H70.2119V23.656C70.4545 23.3613 70.7622 23.1317 71.1349 22.967C71.5162 22.8023 71.9192 22.72 72.3439 22.72ZM80.0583 22.72C80.6129 22.72 81.1026 22.8327 81.5273 23.058C81.9606 23.2747 82.2986 23.5477 82.5413 23.877V22.837H84.0363V30.117C84.0363 30.7757 83.8976 31.3607 83.6203 31.872C83.3429 32.392 82.9399 32.7993 82.4113 33.094C81.8913 33.3887 81.2673 33.536 80.5393 33.536C79.5686 33.536 78.7626 33.3063 78.1213 32.847C77.4799 32.3963 77.1159 31.781 77.0293 31.001H78.4983C78.6109 31.3737 78.8493 31.6727 79.2133 31.898C79.5859 32.132 80.0279 32.249 80.5393 32.249C81.1373 32.249 81.6183 32.067 81.9823 31.703C82.3549 31.339 82.5413 30.8103 82.5413 30.117V28.921C82.2899 29.259 81.9476 29.545 81.5143 29.779C81.0896 30.0043 80.6043 30.117 80.0583 30.117C79.4343 30.117 78.8623 29.961 78.3423 29.649C77.8309 29.3283 77.4236 28.8863 77.1203 28.323C76.8256 27.751 76.6783 27.1053 76.6783 26.386C76.6783 25.6667 76.8256 25.0297 77.1203 24.475C77.4236 23.9203 77.8309 23.4913 78.3423 23.188C78.8623 22.876 79.4343 22.72 80.0583 22.72ZM82.5413 26.412C82.5413 25.918 82.4373 25.489 82.2293 25.125C82.0299 24.761 81.7656 24.4837 81.4363 24.293C81.1069 24.1023 80.7516 24.007 80.3703 24.007C79.9889 24.007 79.6336 24.1023 79.3043 24.293C78.9749 24.475 78.7063 24.748 78.4983 25.112C78.2989 25.4673 78.1993 25.892 78.1993 26.386C78.1993 26.88 78.2989 27.3133 78.4983 27.686C78.7063 28.0587 78.9749 28.3447 79.3043 28.544C79.6423 28.7347 79.9976 28.83 80.3703 28.83C80.7516 28.83 81.1069 28.7347 81.4363 28.544C81.7656 28.3533 82.0299 28.076 82.2293 27.712C82.4373 27.3393 82.5413 26.906 82.5413 26.412ZM85.4888 26.386C85.4888 25.6667 85.6361 25.0297 85.9308 24.475C86.2341 23.9203 86.6415 23.4913 87.1528 23.188C87.6728 22.876 88.2448 22.72 88.8688 22.72C89.4321 22.72 89.9218 22.8327 90.3378 23.058C90.7625 23.2747 91.1005 23.5477 91.3518 23.877V22.837H92.8468V30H91.3518V28.934C91.1005 29.272 90.7581 29.5537 90.3248 29.779C89.8915 30.0043 89.3975 30.117 88.8428 30.117C88.2275 30.117 87.6641 29.961 87.1528 29.649C86.6415 29.3283 86.2341 28.8863 85.9308 28.323C85.6361 27.751 85.4888 27.1053 85.4888 26.386ZM91.3518 26.412C91.3518 25.918 91.2478 25.489 91.0398 25.125C90.8405 24.761 90.5761 24.4837 90.2468 24.293C89.9175 24.1023 89.5621 24.007 89.1808 24.007C88.7995 24.007 88.4441 24.1023 88.1148 24.293C87.7855 24.475 87.5168 24.748 87.3088 25.112C87.1095 25.4673 87.0098 25.892 87.0098 26.386C87.0098 26.88 87.1095 27.3133 87.3088 27.686C87.5168 28.0587 87.7855 28.3447 88.1148 28.544C88.4528 28.7347 88.8081 28.83 89.1808 28.83C89.5621 28.83 89.9175 28.7347 90.2468 28.544C90.5761 28.3533 90.8405 28.076 91.0398 27.712C91.2478 27.3393 91.3518 26.906 91.3518 26.412ZM96.5224 24.046V28.011C96.5224 28.2797 96.583 28.4747 96.7044 28.596C96.8344 28.7087 97.051 28.765 97.3544 28.765H98.2644V30H97.0944C96.427 30 95.9157 29.844 95.5604 29.532C95.205 29.22 95.0274 28.713 95.0274 28.011V24.046H94.1824V22.837H95.0274V21.056H96.5224V22.837H98.2644V24.046H96.5224ZM106.117 22.837V30H104.635V29.155C104.401 29.4497 104.094 29.6837 103.712 29.857C103.34 30.0217 102.941 30.104 102.516 30.104C101.953 30.104 101.446 29.987 100.995 29.753C100.553 29.519 100.202 29.1723 99.9423 28.713C99.6909 28.2537 99.5653 27.699 99.5653 27.049V22.837H101.034V26.828C101.034 27.4693 101.195 27.9633 101.515 28.31C101.836 28.648 102.274 28.817 102.828 28.817C103.383 28.817 103.821 28.648 104.141 28.31C104.471 27.9633 104.635 27.4693 104.635 26.828V22.837H106.117ZM109.555 23.877C109.771 23.513 110.057 23.2313 110.413 23.032C110.777 22.824 111.206 22.72 111.7 22.72V24.254H111.323C110.742 24.254 110.3 24.4013 109.997 24.696C109.702 24.9907 109.555 25.502 109.555 26.23V30H108.073V22.837H109.555V23.877ZM112.568 26.386C112.568 25.6667 112.715 25.0297 113.01 24.475C113.313 23.9203 113.721 23.4913 114.232 23.188C114.752 22.876 115.324 22.72 115.948 22.72C116.511 22.72 117.001 22.8327 117.417 23.058C117.842 23.2747 118.18 23.5477 118.431 23.877V22.837H119.926V30H118.431V28.934C118.18 29.272 117.837 29.5537 117.404 29.779C116.971 30.0043 116.477 30.117 115.922 30.117C115.307 30.117 114.743 29.961 114.232 29.649C113.721 29.3283 113.313 28.8863 113.01 28.323C112.715 27.751 112.568 27.1053 112.568 26.386ZM118.431 26.412C118.431 25.918 118.327 25.489 118.119 25.125C117.92 24.761 117.655 24.4837 117.326 24.293C116.997 24.1023 116.641 24.007 116.26 24.007C115.879 24.007 115.523 24.1023 115.194 24.293C114.865 24.475 114.596 24.748 114.388 25.112C114.189 25.4673 114.089 25.892 114.089 26.386C114.089 26.88 114.189 27.3133 114.388 27.686C114.596 28.0587 114.865 28.3447 115.194 28.544C115.532 28.7347 115.887 28.83 116.26 28.83C116.641 28.83 116.997 28.7347 117.326 28.544C117.655 28.3533 117.92 28.076 118.119 27.712C118.327 27.3393 118.431 26.906 118.431 26.412ZM125.486 22.72C126.05 22.72 126.552 22.837 126.994 23.071C127.445 23.305 127.796 23.6517 128.047 24.111C128.299 24.5703 128.424 25.125 128.424 25.775V30H126.955V25.996C126.955 25.3547 126.795 24.865 126.474 24.527C126.154 24.1803 125.716 24.007 125.161 24.007C124.607 24.007 124.165 24.1803 123.835 24.527C123.515 24.865 123.354 25.3547 123.354 25.996V30H121.872V22.837H123.354V23.656C123.597 23.3613 123.905 23.1317 124.277 22.967C124.659 22.8023 125.062 22.72 125.486 22.72ZM143.208 20.965V30H141.726V23.812L138.97 30H137.943L135.174 23.812V30H133.692V20.965H135.291L138.463 28.05L141.622 20.965H143.208ZM149.992 25.359C150.477 25.4457 150.889 25.7013 151.227 26.126C151.565 26.5507 151.734 27.0317 151.734 27.569C151.734 28.0283 151.612 28.4443 151.37 28.817C151.136 29.181 150.793 29.4713 150.343 29.688C149.892 29.896 149.368 30 148.77 30H145.156V20.965H148.601C149.216 20.965 149.745 21.069 150.187 21.277C150.629 21.485 150.962 21.7667 151.188 22.122C151.413 22.4687 151.526 22.8587 151.526 23.292C151.526 23.812 151.387 24.2453 151.11 24.592C150.832 24.9387 150.46 25.1943 149.992 25.359ZM146.638 24.761H148.471C148.956 24.761 149.333 24.6527 149.602 24.436C149.879 24.2107 150.018 23.89 150.018 23.474C150.018 23.0667 149.879 22.7503 149.602 22.525C149.333 22.291 148.956 22.174 148.471 22.174H146.638V24.761ZM148.64 28.791C149.142 28.791 149.537 28.6697 149.823 28.427C150.109 28.1843 150.252 27.8463 150.252 27.413C150.252 26.971 150.1 26.62 149.797 26.36C149.493 26.1 149.09 25.97 148.588 25.97H146.638V28.791H148.64Z" fill="#727C98"/>
</svg>
