<svg width="280" height="50" viewBox="0 0 280 50" fill="none" xmlns="http://www.w3.org/2000/svg">
<rect width="280" height="50" fill="white"/>
<rect x="10" y="9" width="32" height="32" rx="10" fill="#E6EAF3"/>
<path opacity="0.4" d="M31.5 24C30.6099 24 29.7399 24.2639 28.9999 24.7584C28.2599 25.2529 27.6831 25.9557 27.3425 26.7779C27.0019 27.6002 26.9128 28.505 27.0864 29.3779C27.26 30.2508 27.6886 31.0526 28.318 31.682C28.9473 32.3113 29.7491 32.7399 30.622 32.9135C31.495 33.0872 32.3998 32.9981 33.222 32.6575C34.0443 32.3169 34.7471 31.7401 35.2416 31.0001C35.7361 30.26 36 29.39 36 28.5C36.0003 27.909 35.8841 27.3236 35.6581 26.7775C35.4321 26.2314 35.1006 25.7352 34.6827 25.3173C34.2648 24.8994 33.7685 24.5679 33.2224 24.3419C32.6763 24.1158 32.091 23.9997 31.5 24ZM33.5 28.6966C33.4997 28.777 33.4677 28.854 33.4108 28.9109C33.354 28.9677 33.2769 28.9998 33.1965 29H31.3037C31.2233 28.9998 31.1463 28.9677 31.0894 28.9109C31.0326 28.854 31.0005 28.777 31.0003 28.6966V26.3038C31.0005 26.2233 31.0326 26.1463 31.0894 26.0895C31.1463 26.0326 31.2233 26.0006 31.3037 26.0003H31.6965C31.7769 26.0006 31.854 26.0326 31.9108 26.0895C31.9677 26.1463 31.9997 26.2233 32 26.3038V28H33.1965C33.2769 28.0002 33.354 28.0323 33.4108 28.0891C33.4677 28.146 33.4997 28.223 33.5 28.3034V28.6966Z" fill="#BCC8E7"/>
<path d="M26.2131 27H22.5C22.3674 27 22.2402 26.9473 22.1465 26.8536C22.0527 26.7598 22 26.6326 22 26.5V25H16V29.5C16 30.3 16.7 31 17.5 31H26.6072C25.9687 29.7663 25.8276 28.3346 26.2131 27V27ZM32 23.0253V21.5C32 20.7 31.3 20 30.5 20H28V18.5C28 17.7 27.3 17 26.5 17H21.5C20.7 17 20 17.7 20 18.5V20H17.5C16.7 20 16 20.7 16 21.5V24H28.3475C29.2699 23.3491 30.3711 22.9998 31.5 23C31.6688 23 31.835 23.0103 32 23.0253ZM26 20H22V19H26V20ZM33.1966 28H32V26.3038C31.9998 26.2234 31.9677 26.1463 31.9109 26.0895C31.854 26.0326 31.777 26.0006 31.6966 26.0003H31.3038C31.2234 26.0006 31.1463 26.0326 31.0895 26.0895C31.0326 26.1463 31.0006 26.2234 31.0003 26.3038V28.6966C31.0006 28.777 31.0326 28.854 31.0895 28.9109C31.1463 28.9677 31.2234 28.9998 31.3038 29H33.1966C33.277 28.9998 33.354 28.9677 33.4109 28.9109C33.4677 28.854 33.4998 28.777 33.5 28.6966V28.3035C33.4998 28.2231 33.4677 28.146 33.4109 28.0892C33.354 28.0323 33.277 28.0003 33.1966 28V28Z" fill="#BCC8E7"/>
<path d="M59.293 23.656C59.293 24.1153 59.1847 24.5487 58.968 24.956C58.7513 25.3633 58.4047 25.697 57.928 25.957C57.4513 26.2083 56.8403 26.334 56.095 26.334H54.457V30H52.975V20.965H56.095C56.7883 20.965 57.3733 21.0863 57.85 21.329C58.3353 21.563 58.695 21.8837 58.929 22.291C59.1717 22.6983 59.293 23.1533 59.293 23.656ZM56.095 25.125C56.6583 25.125 57.0787 24.9993 57.356 24.748C57.6333 24.488 57.772 24.124 57.772 23.656C57.772 22.668 57.213 22.174 56.095 22.174H54.457V25.125H56.095ZM67.2714 26.243C67.2714 26.5117 67.2541 26.7543 67.2194 26.971H61.7464C61.7898 27.543 62.0021 28.0023 62.3834 28.349C62.7648 28.6957 63.2328 28.869 63.7874 28.869C64.5848 28.869 65.1481 28.5353 65.4774 27.868H67.0764C66.8598 28.5267 66.4654 29.0683 65.8934 29.493C65.3301 29.909 64.6281 30.117 63.7874 30.117C63.1028 30.117 62.4874 29.9653 61.9414 29.662C61.4041 29.35 60.9794 28.9167 60.6674 28.362C60.3641 27.7987 60.2124 27.1487 60.2124 26.412C60.2124 25.6753 60.3598 25.0297 60.6544 24.475C60.9578 23.9117 61.3781 23.4783 61.9154 23.175C62.4614 22.8717 63.0854 22.72 63.7874 22.72C64.4634 22.72 65.0658 22.8673 65.5944 23.162C66.1231 23.4567 66.5348 23.8727 66.8294 24.41C67.1241 24.9387 67.2714 25.5497 67.2714 26.243ZM65.7244 25.775C65.7158 25.229 65.5208 24.7913 65.1394 24.462C64.7581 24.1327 64.2858 23.968 63.7224 23.968C63.2111 23.968 62.7734 24.1327 62.4094 24.462C62.0454 24.7827 61.8288 25.2203 61.7594 25.775H65.7244ZM72.3439 22.72C72.9072 22.72 73.4099 22.837 73.8519 23.071C74.3025 23.305 74.6535 23.6517 74.9049 24.111C75.1562 24.5703 75.2819 25.125 75.2819 25.775V30H73.8129V25.996C73.8129 25.3547 73.6525 24.865 73.3319 24.527C73.0112 24.1803 72.5735 24.007 72.0189 24.007C71.4642 24.007 71.0222 24.1803 70.6929 24.527C70.3722 24.865 70.2119 25.3547 70.2119 25.996V30H68.7299V22.837H70.2119V23.656C70.4545 23.3613 70.7622 23.1317 71.1349 22.967C71.5162 22.8023 71.9192 22.72 72.3439 22.72ZM80.0583 22.72C80.6129 22.72 81.1026 22.8327 81.5273 23.058C81.9606 23.2747 82.2986 23.5477 82.5413 23.877V22.837H84.0363V30.117C84.0363 30.7757 83.8976 31.3607 83.6203 31.872C83.3429 32.392 82.9399 32.7993 82.4113 33.094C81.8913 33.3887 81.2673 33.536 80.5393 33.536C79.5686 33.536 78.7626 33.3063 78.1213 32.847C77.4799 32.3963 77.1159 31.781 77.0293 31.001H78.4983C78.6109 31.3737 78.8493 31.6727 79.2133 31.898C79.5859 32.132 80.0279 32.249 80.5393 32.249C81.1373 32.249 81.6183 32.067 81.9823 31.703C82.3549 31.339 82.5413 30.8103 82.5413 30.117V28.921C82.2899 29.259 81.9476 29.545 81.5143 29.779C81.0896 30.0043 80.6043 30.117 80.0583 30.117C79.4343 30.117 78.8623 29.961 78.3423 29.649C77.8309 29.3283 77.4236 28.8863 77.1203 28.323C76.8256 27.751 76.6783 27.1053 76.6783 26.386C76.6783 25.6667 76.8256 25.0297 77.1203 24.475C77.4236 23.9203 77.8309 23.4913 78.3423 23.188C78.8623 22.876 79.4343 22.72 80.0583 22.72ZM82.5413 26.412C82.5413 25.918 82.4373 25.489 82.2293 25.125C82.0299 24.761 81.7656 24.4837 81.4363 24.293C81.1069 24.1023 80.7516 24.007 80.3703 24.007C79.9889 24.007 79.6336 24.1023 79.3043 24.293C78.9749 24.475 78.7063 24.748 78.4983 25.112C78.2989 25.4673 78.1993 25.892 78.1993 26.386C78.1993 26.88 78.2989 27.3133 78.4983 27.686C78.7063 28.0587 78.9749 28.3447 79.3043 28.544C79.6423 28.7347 79.9976 28.83 80.3703 28.83C80.7516 28.83 81.1069 28.7347 81.4363 28.544C81.7656 28.3533 82.0299 28.076 82.2293 27.712C82.4373 27.3393 82.5413 26.906 82.5413 26.412ZM85.4888 26.386C85.4888 25.6667 85.6361 25.0297 85.9308 24.475C86.2341 23.9203 86.6415 23.4913 87.1528 23.188C87.6728 22.876 88.2448 22.72 88.8688 22.72C89.4321 22.72 89.9218 22.8327 90.3378 23.058C90.7625 23.2747 91.1005 23.5477 91.3518 23.877V22.837H92.8468V30H91.3518V28.934C91.1005 29.272 90.7581 29.5537 90.3248 29.779C89.8915 30.0043 89.3975 30.117 88.8428 30.117C88.2275 30.117 87.6641 29.961 87.1528 29.649C86.6415 29.3283 86.2341 28.8863 85.9308 28.323C85.6361 27.751 85.4888 27.1053 85.4888 26.386ZM91.3518 26.412C91.3518 25.918 91.2478 25.489 91.0398 25.125C90.8405 24.761 90.5761 24.4837 90.2468 24.293C89.9175 24.1023 89.5621 24.007 89.1808 24.007C88.7995 24.007 88.4441 24.1023 88.1148 24.293C87.7855 24.475 87.5168 24.748 87.3088 25.112C87.1095 25.4673 87.0098 25.892 87.0098 26.386C87.0098 26.88 87.1095 27.3133 87.3088 27.686C87.5168 28.0587 87.7855 28.3447 88.1148 28.544C88.4528 28.7347 88.8081 28.83 89.1808 28.83C89.5621 28.83 89.9175 28.7347 90.2468 28.544C90.5761 28.3533 90.8405 28.076 91.0398 27.712C91.2478 27.3393 91.3518 26.906 91.3518 26.412ZM96.5224 24.046V28.011C96.5224 28.2797 96.583 28.4747 96.7044 28.596C96.8344 28.7087 97.051 28.765 97.3544 28.765H98.2644V30H97.0944C96.427 30 95.9157 29.844 95.5604 29.532C95.205 29.22 95.0274 28.713 95.0274 28.011V24.046H94.1824V22.837H95.0274V21.056H96.5224V22.837H98.2644V24.046H96.5224ZM106.117 22.837V30H104.635V29.155C104.401 29.4497 104.094 29.6837 103.712 29.857C103.34 30.0217 102.941 30.104 102.516 30.104C101.953 30.104 101.446 29.987 100.995 29.753C100.553 29.519 100.202 29.1723 99.9423 28.713C99.6909 28.2537 99.5653 27.699 99.5653 27.049V22.837H101.034V26.828C101.034 27.4693 101.195 27.9633 101.515 28.31C101.836 28.648 102.274 28.817 102.828 28.817C103.383 28.817 103.821 28.648 104.141 28.31C104.471 27.9633 104.635 27.4693 104.635 26.828V22.837H106.117ZM109.555 23.877C109.771 23.513 110.057 23.2313 110.413 23.032C110.777 22.824 111.206 22.72 111.7 22.72V24.254H111.323C110.742 24.254 110.3 24.4013 109.997 24.696C109.702 24.9907 109.555 25.502 109.555 26.23V30H108.073V22.837H109.555V23.877ZM112.568 26.386C112.568 25.6667 112.715 25.0297 113.01 24.475C113.313 23.9203 113.721 23.4913 114.232 23.188C114.752 22.876 115.324 22.72 115.948 22.72C116.511 22.72 117.001 22.8327 117.417 23.058C117.842 23.2747 118.18 23.5477 118.431 23.877V22.837H119.926V30H118.431V28.934C118.18 29.272 117.837 29.5537 117.404 29.779C116.971 30.0043 116.477 30.117 115.922 30.117C115.307 30.117 114.743 29.961 114.232 29.649C113.721 29.3283 113.313 28.8863 113.01 28.323C112.715 27.751 112.568 27.1053 112.568 26.386ZM118.431 26.412C118.431 25.918 118.327 25.489 118.119 25.125C117.92 24.761 117.655 24.4837 117.326 24.293C116.997 24.1023 116.641 24.007 116.26 24.007C115.879 24.007 115.523 24.1023 115.194 24.293C114.865 24.475 114.596 24.748 114.388 25.112C114.189 25.4673 114.089 25.892 114.089 26.386C114.089 26.88 114.189 27.3133 114.388 27.686C114.596 28.0587 114.865 28.3447 115.194 28.544C115.532 28.7347 115.887 28.83 116.26 28.83C116.641 28.83 116.997 28.7347 117.326 28.544C117.655 28.3533 117.92 28.076 118.119 27.712C118.327 27.3393 118.431 26.906 118.431 26.412ZM125.486 22.72C126.05 22.72 126.552 22.837 126.994 23.071C127.445 23.305 127.796 23.6517 128.047 24.111C128.299 24.5703 128.424 25.125 128.424 25.775V30H126.955V25.996C126.955 25.3547 126.795 24.865 126.474 24.527C126.154 24.1803 125.716 24.007 125.161 24.007C124.607 24.007 124.165 24.1803 123.835 24.527C123.515 24.865 123.354 25.3547 123.354 25.996V30H121.872V22.837H123.354V23.656C123.597 23.3613 123.905 23.1317 124.277 22.967C124.659 22.8023 125.062 22.72 125.486 22.72ZM138.528 25.359C139.013 25.4457 139.425 25.7013 139.763 26.126C140.101 26.5507 140.27 27.0317 140.27 27.569C140.27 28.0283 140.148 28.4443 139.906 28.817C139.672 29.181 139.329 29.4713 138.879 29.688C138.428 29.896 137.904 30 137.306 30H133.692V20.965H137.137C137.752 20.965 138.281 21.069 138.723 21.277C139.165 21.485 139.498 21.7667 139.724 22.122C139.949 22.4687 140.062 22.8587 140.062 23.292C140.062 23.812 139.923 24.2453 139.646 24.592C139.368 24.9387 138.996 25.1943 138.528 25.359ZM135.174 24.761H137.007C137.492 24.761 137.869 24.6527 138.138 24.436C138.415 24.2107 138.554 23.89 138.554 23.474C138.554 23.0667 138.415 22.7503 138.138 22.525C137.869 22.291 137.492 22.174 137.007 22.174H135.174V24.761ZM137.176 28.791C137.678 28.791 138.073 28.6697 138.359 28.427C138.645 28.1843 138.788 27.8463 138.788 27.413C138.788 26.971 138.636 26.62 138.333 26.36C138.029 26.1 137.626 25.97 137.124 25.97H135.174V28.791H137.176ZM142.634 21.888C142.366 21.888 142.14 21.797 141.958 21.615C141.776 21.433 141.685 21.2077 141.685 20.939C141.685 20.6703 141.776 20.445 141.958 20.263C142.14 20.081 142.366 19.99 142.634 19.99C142.894 19.99 143.115 20.081 143.297 20.263C143.479 20.445 143.57 20.6703 143.57 20.939C143.57 21.2077 143.479 21.433 143.297 21.615C143.115 21.797 142.894 21.888 142.634 21.888ZM143.362 22.837V30H141.88V22.837H143.362ZM147.908 30.117C147.345 30.117 146.838 30.0173 146.387 29.818C145.945 29.61 145.594 29.3327 145.334 28.986C145.074 28.6307 144.935 28.2363 144.918 27.803H146.452C146.478 28.1063 146.621 28.362 146.881 28.57C147.15 28.7693 147.483 28.869 147.882 28.869C148.298 28.869 148.619 28.791 148.844 28.635C149.078 28.4703 149.195 28.2623 149.195 28.011C149.195 27.7423 149.065 27.543 148.805 27.413C148.554 27.283 148.151 27.14 147.596 26.984C147.059 26.8367 146.621 26.6937 146.283 26.555C145.945 26.4163 145.65 26.204 145.399 25.918C145.156 25.632 145.035 25.255 145.035 24.787C145.035 24.4057 145.148 24.059 145.373 23.747C145.598 23.4263 145.919 23.175 146.335 22.993C146.76 22.811 147.245 22.72 147.791 22.72C148.606 22.72 149.26 22.928 149.754 23.344C150.257 23.7513 150.525 24.3103 150.56 25.021H149.078C149.052 24.7003 148.922 24.4447 148.688 24.254C148.454 24.0633 148.138 23.968 147.739 23.968C147.349 23.968 147.05 24.0417 146.842 24.189C146.634 24.3363 146.53 24.5313 146.53 24.774C146.53 24.9647 146.599 25.125 146.738 25.255C146.877 25.385 147.046 25.489 147.245 25.567C147.444 25.6363 147.739 25.7273 148.129 25.84C148.649 25.9787 149.074 26.1217 149.403 26.269C149.741 26.4077 150.031 26.6157 150.274 26.893C150.517 27.1703 150.642 27.5387 150.651 27.998C150.651 28.4053 150.538 28.7693 150.313 29.09C150.088 29.4107 149.767 29.662 149.351 29.844C148.944 30.026 148.463 30.117 147.908 30.117ZM155.866 22.72C156.43 22.72 156.932 22.837 157.374 23.071C157.825 23.305 158.176 23.6517 158.427 24.111C158.679 24.5703 158.804 25.125 158.804 25.775V30H157.335V25.996C157.335 25.3547 157.175 24.865 156.854 24.527C156.534 24.1803 156.096 24.007 155.541 24.007C154.987 24.007 154.545 24.1803 154.215 24.527C153.895 24.865 153.734 25.3547 153.734 25.996V30H152.252V22.837H153.734V23.656C153.977 23.3613 154.285 23.1317 154.657 22.967C155.039 22.8023 155.442 22.72 155.866 22.72ZM161.449 21.888C161.18 21.888 160.955 21.797 160.773 21.615C160.591 21.433 160.5 21.2077 160.5 20.939C160.5 20.6703 160.591 20.445 160.773 20.263C160.955 20.081 161.18 19.99 161.449 19.99C161.709 19.99 161.93 20.081 162.112 20.263C162.294 20.445 162.385 20.6703 162.385 20.939C162.385 21.2077 162.294 21.433 162.112 21.615C161.93 21.797 161.709 21.888 161.449 21.888ZM162.177 22.837V30H160.695V22.837H162.177ZM166.722 30.117C166.159 30.117 165.652 30.0173 165.201 29.818C164.759 29.61 164.408 29.3327 164.148 28.986C163.888 28.6307 163.75 28.2363 163.732 27.803H165.266C165.292 28.1063 165.435 28.362 165.695 28.57C165.964 28.7693 166.298 28.869 166.696 28.869C167.112 28.869 167.433 28.791 167.658 28.635C167.892 28.4703 168.009 28.2623 168.009 28.011C168.009 27.7423 167.879 27.543 167.619 27.413C167.368 27.283 166.965 27.14 166.41 26.984C165.873 26.8367 165.435 26.6937 165.097 26.555C164.759 26.4163 164.465 26.204 164.213 25.918C163.971 25.632 163.849 25.255 163.849 24.787C163.849 24.4057 163.962 24.059 164.187 23.747C164.413 23.4263 164.733 23.175 165.149 22.993C165.574 22.811 166.059 22.72 166.605 22.72C167.42 22.72 168.074 22.928 168.568 23.344C169.071 23.7513 169.34 24.3103 169.374 25.021H167.892C167.866 24.7003 167.736 24.4447 167.502 24.254C167.268 24.0633 166.952 23.968 166.553 23.968C166.163 23.968 165.864 24.0417 165.656 24.189C165.448 24.3363 165.344 24.5313 165.344 24.774C165.344 24.9647 165.414 25.125 165.552 25.255C165.691 25.385 165.86 25.489 166.059 25.567C166.259 25.6363 166.553 25.7273 166.943 25.84C167.463 25.9787 167.888 26.1217 168.217 26.269C168.555 26.4077 168.846 26.6157 169.088 26.893C169.331 27.1703 169.457 27.5387 169.465 27.998C169.465 28.4053 169.353 28.7693 169.127 29.09C168.902 29.4107 168.581 29.662 168.165 29.844C167.758 30.026 167.277 30.117 166.722 30.117Z" fill="#727C98"/>
<path d="M292 28L286 22L280 28" stroke="#727C98" stroke-width="2" stroke-linecap="round" stroke-linejoin="round"/>
</svg>
