<svg width="280" height="40" viewBox="0 0 280 40" fill="none" xmlns="http://www.w3.org/2000/svg">
<rect width="280" height="40" fill="white"/>
<path d="M57.293 18.656C57.293 19.1153 57.1847 19.5487 56.968 19.956C56.7513 20.3633 56.4047 20.697 55.928 20.957C55.4513 21.2083 54.8403 21.334 54.095 21.334H52.457V25H50.975V15.965H54.095C54.7883 15.965 55.3733 16.0863 55.85 16.329C56.3353 16.563 56.695 16.8837 56.929 17.291C57.1717 17.6983 57.293 18.1533 57.293 18.656ZM54.095 20.125C54.6583 20.125 55.0787 19.9993 55.356 19.748C55.6333 19.488 55.772 19.124 55.772 18.656C55.772 17.668 55.213 17.174 54.095 17.174H52.457V20.125H54.095ZM65.2714 21.243C65.2714 21.5117 65.2541 21.7543 65.2194 21.971H59.7464C59.7898 22.543 60.0021 23.0023 60.3834 23.349C60.7648 23.6957 61.2328 23.869 61.7874 23.869C62.5848 23.869 63.1481 23.5353 63.4774 22.868H65.0764C64.8598 23.5267 64.4654 24.0683 63.8934 24.493C63.3301 24.909 62.6281 25.117 61.7874 25.117C61.1028 25.117 60.4874 24.9653 59.9414 24.662C59.4041 24.35 58.9794 23.9167 58.6674 23.362C58.3641 22.7987 58.2124 22.1487 58.2124 21.412C58.2124 20.6753 58.3598 20.0297 58.6544 19.475C58.9578 18.9117 59.3781 18.4783 59.9154 18.175C60.4614 17.8717 61.0854 17.72 61.7874 17.72C62.4634 17.72 63.0658 17.8673 63.5944 18.162C64.1231 18.4567 64.5348 18.8727 64.8294 19.41C65.1241 19.9387 65.2714 20.5497 65.2714 21.243ZM63.7244 20.775C63.7158 20.229 63.5208 19.7913 63.1394 19.462C62.7581 19.1327 62.2858 18.968 61.7224 18.968C61.2111 18.968 60.7734 19.1327 60.4094 19.462C60.0454 19.7827 59.8288 20.2203 59.7594 20.775H63.7244ZM70.3439 17.72C70.9072 17.72 71.4099 17.837 71.8519 18.071C72.3025 18.305 72.6535 18.6517 72.9049 19.111C73.1562 19.5703 73.2819 20.125 73.2819 20.775V25H71.8129V20.996C71.8129 20.3547 71.6525 19.865 71.3319 19.527C71.0112 19.1803 70.5735 19.007 70.0189 19.007C69.4642 19.007 69.0222 19.1803 68.6929 19.527C68.3722 19.865 68.2119 20.3547 68.2119 20.996V25H66.7299V17.837H68.2119V18.656C68.4545 18.3613 68.7622 18.1317 69.1349 17.967C69.5162 17.8023 69.9192 17.72 70.3439 17.72ZM78.0583 17.72C78.6129 17.72 79.1026 17.8327 79.5273 18.058C79.9606 18.2747 80.2986 18.5477 80.5413 18.877V17.837H82.0363V25.117C82.0363 25.7757 81.8976 26.3607 81.6203 26.872C81.3429 27.392 80.9399 27.7993 80.4113 28.094C79.8913 28.3887 79.2673 28.536 78.5393 28.536C77.5686 28.536 76.7626 28.3063 76.1213 27.847C75.4799 27.3963 75.1159 26.781 75.0293 26.001H76.4983C76.6109 26.3737 76.8493 26.6727 77.2133 26.898C77.5859 27.132 78.0279 27.249 78.5393 27.249C79.1373 27.249 79.6183 27.067 79.9823 26.703C80.3549 26.339 80.5413 25.8103 80.5413 25.117V23.921C80.2899 24.259 79.9476 24.545 79.5143 24.779C79.0896 25.0043 78.6043 25.117 78.0583 25.117C77.4343 25.117 76.8623 24.961 76.3423 24.649C75.8309 24.3283 75.4236 23.8863 75.1203 23.323C74.8256 22.751 74.6783 22.1053 74.6783 21.386C74.6783 20.6667 74.8256 20.0297 75.1203 19.475C75.4236 18.9203 75.8309 18.4913 76.3423 18.188C76.8623 17.876 77.4343 17.72 78.0583 17.72ZM80.5413 21.412C80.5413 20.918 80.4373 20.489 80.2293 20.125C80.0299 19.761 79.7656 19.4837 79.4363 19.293C79.1069 19.1023 78.7516 19.007 78.3703 19.007C77.9889 19.007 77.6336 19.1023 77.3043 19.293C76.9749 19.475 76.7063 19.748 76.4983 20.112C76.2989 20.4673 76.1993 20.892 76.1993 21.386C76.1993 21.88 76.2989 22.3133 76.4983 22.686C76.7063 23.0587 76.9749 23.3447 77.3043 23.544C77.6423 23.7347 77.9976 23.83 78.3703 23.83C78.7516 23.83 79.1069 23.7347 79.4363 23.544C79.7656 23.3533 80.0299 23.076 80.2293 22.712C80.4373 22.3393 80.5413 21.906 80.5413 21.412ZM83.4888 21.386C83.4888 20.6667 83.6361 20.0297 83.9308 19.475C84.2341 18.9203 84.6415 18.4913 85.1528 18.188C85.6728 17.876 86.2448 17.72 86.8688 17.72C87.4321 17.72 87.9218 17.8327 88.3378 18.058C88.7625 18.2747 89.1005 18.5477 89.3518 18.877V17.837H90.8468V25H89.3518V23.934C89.1005 24.272 88.7581 24.5537 88.3248 24.779C87.8915 25.0043 87.3975 25.117 86.8428 25.117C86.2275 25.117 85.6641 24.961 85.1528 24.649C84.6415 24.3283 84.2341 23.8863 83.9308 23.323C83.6361 22.751 83.4888 22.1053 83.4888 21.386ZM89.3518 21.412C89.3518 20.918 89.2478 20.489 89.0398 20.125C88.8405 19.761 88.5761 19.4837 88.2468 19.293C87.9175 19.1023 87.5621 19.007 87.1808 19.007C86.7995 19.007 86.4441 19.1023 86.1148 19.293C85.7855 19.475 85.5168 19.748 85.3088 20.112C85.1095 20.4673 85.0098 20.892 85.0098 21.386C85.0098 21.88 85.1095 22.3133 85.3088 22.686C85.5168 23.0587 85.7855 23.3447 86.1148 23.544C86.4528 23.7347 86.8081 23.83 87.1808 23.83C87.5621 23.83 87.9175 23.7347 88.2468 23.544C88.5761 23.3533 88.8405 23.076 89.0398 22.712C89.2478 22.3393 89.3518 21.906 89.3518 21.412ZM94.5224 19.046V23.011C94.5224 23.2797 94.583 23.4747 94.7044 23.596C94.8344 23.7087 95.051 23.765 95.3544 23.765H96.2644V25H95.0944C94.427 25 93.9157 24.844 93.5604 24.532C93.205 24.22 93.0274 23.713 93.0274 23.011V19.046H92.1824V17.837H93.0274V16.056H94.5224V17.837H96.2644V19.046H94.5224ZM104.117 17.837V25H102.635V24.155C102.401 24.4497 102.094 24.6837 101.712 24.857C101.34 25.0217 100.941 25.104 100.516 25.104C99.9529 25.104 99.4459 24.987 98.9953 24.753C98.5533 24.519 98.2023 24.1723 97.9423 23.713C97.6909 23.2537 97.5653 22.699 97.5653 22.049V17.837H99.0343V21.828C99.0343 22.4693 99.1946 22.9633 99.5153 23.31C99.8359 23.648 100.274 23.817 100.828 23.817C101.383 23.817 101.821 23.648 102.141 23.31C102.471 22.9633 102.635 22.4693 102.635 21.828V17.837H104.117ZM107.555 18.877C107.771 18.513 108.057 18.2313 108.413 18.032C108.777 17.824 109.206 17.72 109.7 17.72V19.254H109.323C108.742 19.254 108.3 19.4013 107.997 19.696C107.702 19.9907 107.555 20.502 107.555 21.23V25H106.073V17.837H107.555V18.877ZM110.568 21.386C110.568 20.6667 110.715 20.0297 111.01 19.475C111.313 18.9203 111.721 18.4913 112.232 18.188C112.752 17.876 113.324 17.72 113.948 17.72C114.511 17.72 115.001 17.8327 115.417 18.058C115.842 18.2747 116.18 18.5477 116.431 18.877V17.837H117.926V25H116.431V23.934C116.18 24.272 115.837 24.5537 115.404 24.779C114.971 25.0043 114.477 25.117 113.922 25.117C113.307 25.117 112.743 24.961 112.232 24.649C111.721 24.3283 111.313 23.8863 111.01 23.323C110.715 22.751 110.568 22.1053 110.568 21.386ZM116.431 21.412C116.431 20.918 116.327 20.489 116.119 20.125C115.92 19.761 115.655 19.4837 115.326 19.293C114.997 19.1023 114.641 19.007 114.26 19.007C113.879 19.007 113.523 19.1023 113.194 19.293C112.865 19.475 112.596 19.748 112.388 20.112C112.189 20.4673 112.089 20.892 112.089 21.386C112.089 21.88 112.189 22.3133 112.388 22.686C112.596 23.0587 112.865 23.3447 113.194 23.544C113.532 23.7347 113.887 23.83 114.26 23.83C114.641 23.83 114.997 23.7347 115.326 23.544C115.655 23.3533 115.92 23.076 116.119 22.712C116.327 22.3393 116.431 21.906 116.431 21.412ZM123.486 17.72C124.05 17.72 124.552 17.837 124.994 18.071C125.445 18.305 125.796 18.6517 126.047 19.111C126.299 19.5703 126.424 20.125 126.424 20.775V25H124.955V20.996C124.955 20.3547 124.795 19.865 124.474 19.527C124.154 19.1803 123.716 19.007 123.161 19.007C122.607 19.007 122.165 19.1803 121.835 19.527C121.515 19.865 121.354 20.3547 121.354 20.996V25H119.872V17.837H121.354V18.656C121.597 18.3613 121.905 18.1317 122.277 17.967C122.659 17.8023 123.062 17.72 123.486 17.72ZM136.528 20.359C137.013 20.4457 137.425 20.7013 137.763 21.126C138.101 21.5507 138.27 22.0317 138.27 22.569C138.27 23.0283 138.148 23.4443 137.906 23.817C137.672 24.181 137.329 24.4713 136.879 24.688C136.428 24.896 135.904 25 135.306 25H131.692V15.965H135.137C135.752 15.965 136.281 16.069 136.723 16.277C137.165 16.485 137.498 16.7667 137.724 17.122C137.949 17.4687 138.062 17.8587 138.062 18.292C138.062 18.812 137.923 19.2453 137.646 19.592C137.368 19.9387 136.996 20.1943 136.528 20.359ZM133.174 19.761H135.007C135.492 19.761 135.869 19.6527 136.138 19.436C136.415 19.2107 136.554 18.89 136.554 18.474C136.554 18.0667 136.415 17.7503 136.138 17.525C135.869 17.291 135.492 17.174 135.007 17.174H133.174V19.761ZM135.176 23.791C135.678 23.791 136.073 23.6697 136.359 23.427C136.645 23.1843 136.788 22.8463 136.788 22.413C136.788 21.971 136.636 21.62 136.333 21.36C136.029 21.1 135.626 20.97 135.124 20.97H133.174V23.791H135.176ZM139.386 21.386C139.386 20.6667 139.534 20.0297 139.828 19.475C140.132 18.9203 140.539 18.4913 141.05 18.188C141.57 17.876 142.142 17.72 142.766 17.72C143.33 17.72 143.819 17.8327 144.235 18.058C144.66 18.2747 144.998 18.5477 145.249 18.877V17.837H146.744V25H145.249V23.934C144.998 24.272 144.656 24.5537 144.222 24.779C143.789 25.0043 143.295 25.117 142.74 25.117C142.125 25.117 141.562 24.961 141.05 24.649C140.539 24.3283 140.132 23.8863 139.828 23.323C139.534 22.751 139.386 22.1053 139.386 21.386ZM145.249 21.412C145.249 20.918 145.145 20.489 144.937 20.125C144.738 19.761 144.474 19.4837 144.144 19.293C143.815 19.1023 143.46 19.007 143.078 19.007C142.697 19.007 142.342 19.1023 142.012 19.293C141.683 19.475 141.414 19.748 141.206 20.112C141.007 20.4673 140.907 20.892 140.907 21.386C140.907 21.88 141.007 22.3133 141.206 22.686C141.414 23.0587 141.683 23.3447 142.012 23.544C142.35 23.7347 142.706 23.83 143.078 23.83C143.46 23.83 143.815 23.7347 144.144 23.544C144.474 23.3533 144.738 23.076 144.937 22.712C145.145 22.3393 145.249 21.906 145.249 21.412ZM152.305 17.72C152.868 17.72 153.371 17.837 153.813 18.071C154.263 18.305 154.614 18.6517 154.866 19.111C155.117 19.5703 155.243 20.125 155.243 20.775V25H153.774V20.996C153.774 20.3547 153.613 19.865 153.293 19.527C152.972 19.1803 152.534 19.007 151.98 19.007C151.425 19.007 150.983 19.1803 150.654 19.527C150.333 19.865 150.173 20.3547 150.173 20.996V25H148.691V17.837H150.173V18.656C150.415 18.3613 150.723 18.1317 151.096 17.967C151.477 17.8023 151.88 17.72 152.305 17.72ZM159.967 21.425L163.269 25H161.267L158.615 21.919V25H157.133V15.38H158.615V20.97L161.215 17.837H163.269L159.967 21.425Z" fill="#727C98"/>
</svg>
