<svg width="280" height="50" viewBox="0 0 280 50" fill="none" xmlns="http://www.w3.org/2000/svg">
<rect width="280" height="50" fill="white"/>
<rect x="10" y="9" width="32" height="32" rx="10" fill="#E6EAF3"/>
<g clip-path="url(#clip0_9715_14869)">
<path opacity="0.4" d="M35.3751 30.3145H24.1251C23.9594 30.3145 23.8004 30.3803 23.6832 30.4975C23.566 30.6147 23.5001 30.7737 23.5001 30.9395V32.1895C23.5001 32.3552 23.566 32.5142 23.6832 32.6314C23.8004 32.7486 23.9594 32.8145 24.1251 32.8145H35.3751C35.5409 32.8145 35.6999 32.7486 35.8171 32.6314C35.9343 32.5142 36.0001 32.3552 36.0001 32.1895V30.9395C36.0001 30.7737 35.9343 30.6147 35.8171 30.4975C35.6999 30.3803 35.5409 30.3145 35.3751 30.3145ZM35.3751 17.8145H24.1251C23.9594 17.8145 23.8004 17.8803 23.6832 17.9975C23.566 18.1147 23.5001 18.2737 23.5001 18.4395V19.6895C23.5001 19.8552 23.566 20.0142 23.6832 20.1314C23.8004 20.2486 23.9594 20.3145 24.1251 20.3145H35.3751C35.5409 20.3145 35.6999 20.2486 35.8171 20.1314C35.9343 20.0142 36.0001 19.8552 36.0001 19.6895V18.4395C36.0001 18.2737 35.9343 18.1147 35.8171 17.9975C35.6999 17.8803 35.5409 17.8145 35.3751 17.8145ZM35.3751 24.0645H24.1251C23.9594 24.0645 23.8004 24.1303 23.6832 24.2475C23.566 24.3647 23.5001 24.5237 23.5001 24.6895V25.9395C23.5001 26.1052 23.566 26.2642 23.6832 26.3814C23.8004 26.4986 23.9594 26.5645 24.1251 26.5645H35.3751C35.5409 26.5645 35.6999 26.4986 35.8171 26.3814C35.9343 26.2642 36.0001 26.1052 36.0001 25.9395V24.6895C36.0001 24.5237 35.9343 24.3647 35.8171 24.2475C35.6999 24.1303 35.5409 24.0645 35.3751 24.0645Z" fill="#BCC8E7"/>
<path d="M21.4533 16.7004C21.4098 16.6567 21.358 16.622 21.301 16.5983C21.2441 16.5747 21.183 16.5625 21.1213 16.5625C21.0596 16.5625 20.9985 16.5747 20.9415 16.5983C20.8845 16.622 20.8328 16.6567 20.7892 16.7004L18.3017 19.1734L17.415 18.3094C17.3715 18.2657 17.3197 18.231 17.2628 18.2073C17.2058 18.1837 17.1447 18.1715 17.083 18.1715C17.0213 18.1715 16.9602 18.1837 16.9032 18.2073C16.8463 18.231 16.7945 18.2657 16.751 18.3094L16.1377 18.9234C16.094 18.967 16.0593 19.0187 16.0357 19.0757C16.012 19.1327 15.9998 19.1938 15.9998 19.2554C15.9998 19.3171 16.012 19.3782 16.0357 19.4352C16.0593 19.4922 16.094 19.5439 16.1377 19.5875L17.9967 21.439C18.0895 21.5272 18.2126 21.5764 18.3406 21.5764C18.4686 21.5764 18.5918 21.5272 18.6846 21.439L19.2935 20.8289L22.1139 18.009C22.2017 17.921 22.2514 17.802 22.252 17.6777C22.2527 17.5533 22.2043 17.4338 22.1174 17.3449L21.4533 16.7004ZM21.4533 22.9187C21.4098 22.875 21.358 22.8404 21.301 22.8167C21.2441 22.793 21.183 22.7809 21.1213 22.7809C21.0596 22.7809 20.9985 22.793 20.9415 22.8167C20.8845 22.8404 20.8328 22.875 20.7892 22.9187L18.3017 25.4078L17.415 24.5445C17.3715 24.5008 17.3197 24.4661 17.2628 24.4425C17.2058 24.4188 17.1447 24.4066 17.083 24.4066C17.0213 24.4066 16.9602 24.4188 16.9032 24.4425C16.8463 24.4661 16.7945 24.5008 16.751 24.5445L16.1377 25.1574C16.094 25.201 16.0593 25.2527 16.0357 25.3097C16.012 25.3667 15.9998 25.4277 15.9998 25.4894C15.9998 25.5511 16.012 25.6122 16.0357 25.6692C16.0593 25.7262 16.094 25.7779 16.1377 25.8215L17.992 27.6769C18.0847 27.7651 18.2078 27.8143 18.3357 27.8143C18.4637 27.8143 18.5868 27.7651 18.6795 27.6769L19.2928 27.064L22.1131 24.2429C22.2006 24.1556 22.2501 24.0372 22.2508 23.9136C22.2514 23.7899 22.2032 23.671 22.1166 23.5828L21.4533 22.9187ZM18.4998 29.6887C17.465 29.6887 16.6017 30.5285 16.6017 31.5637C16.6017 32.5988 17.4658 33.4387 18.4998 33.4387C18.9971 33.4387 19.474 33.2411 19.8256 32.8895C20.1773 32.5378 20.3748 32.0609 20.3748 31.5637C20.3748 31.0664 20.1773 30.5895 19.8256 30.2378C19.474 29.8862 18.9971 29.6887 18.4998 29.6887Z" fill="#BCC8E7"/>
</g>
<path d="M59.293 23.656C59.293 24.1153 59.1847 24.5487 58.968 24.956C58.7513 25.3633 58.4047 25.697 57.928 25.957C57.4513 26.2083 56.8403 26.334 56.095 26.334H54.457V30H52.975V20.965H56.095C56.7883 20.965 57.3733 21.0863 57.85 21.329C58.3353 21.563 58.695 21.8837 58.929 22.291C59.1717 22.6983 59.293 23.1533 59.293 23.656ZM56.095 25.125C56.6583 25.125 57.0787 24.9993 57.356 24.748C57.6333 24.488 57.772 24.124 57.772 23.656C57.772 22.668 57.213 22.174 56.095 22.174H54.457V25.125H56.095ZM67.2714 26.243C67.2714 26.5117 67.2541 26.7543 67.2194 26.971H61.7464C61.7898 27.543 62.0021 28.0023 62.3834 28.349C62.7648 28.6957 63.2328 28.869 63.7874 28.869C64.5848 28.869 65.1481 28.5353 65.4774 27.868H67.0764C66.8598 28.5267 66.4654 29.0683 65.8934 29.493C65.3301 29.909 64.6281 30.117 63.7874 30.117C63.1028 30.117 62.4874 29.9653 61.9414 29.662C61.4041 29.35 60.9794 28.9167 60.6674 28.362C60.3641 27.7987 60.2124 27.1487 60.2124 26.412C60.2124 25.6753 60.3598 25.0297 60.6544 24.475C60.9578 23.9117 61.3781 23.4783 61.9154 23.175C62.4614 22.8717 63.0854 22.72 63.7874 22.72C64.4634 22.72 65.0658 22.8673 65.5944 23.162C66.1231 23.4567 66.5348 23.8727 66.8294 24.41C67.1241 24.9387 67.2714 25.5497 67.2714 26.243ZM65.7244 25.775C65.7158 25.229 65.5208 24.7913 65.1394 24.462C64.7581 24.1327 64.2858 23.968 63.7224 23.968C63.2111 23.968 62.7734 24.1327 62.4094 24.462C62.0454 24.7827 61.8288 25.2203 61.7594 25.775H65.7244ZM72.3439 22.72C72.9072 22.72 73.4099 22.837 73.8519 23.071C74.3025 23.305 74.6535 23.6517 74.9049 24.111C75.1562 24.5703 75.2819 25.125 75.2819 25.775V30H73.8129V25.996C73.8129 25.3547 73.6525 24.865 73.3319 24.527C73.0112 24.1803 72.5735 24.007 72.0189 24.007C71.4642 24.007 71.0222 24.1803 70.6929 24.527C70.3722 24.865 70.2119 25.3547 70.2119 25.996V30H68.7299V22.837H70.2119V23.656C70.4545 23.3613 70.7622 23.1317 71.1349 22.967C71.5162 22.8023 71.9192 22.72 72.3439 22.72ZM80.0583 22.72C80.6129 22.72 81.1026 22.8327 81.5273 23.058C81.9606 23.2747 82.2986 23.5477 82.5413 23.877V22.837H84.0363V30.117C84.0363 30.7757 83.8976 31.3607 83.6203 31.872C83.3429 32.392 82.9399 32.7993 82.4113 33.094C81.8913 33.3887 81.2673 33.536 80.5393 33.536C79.5686 33.536 78.7626 33.3063 78.1213 32.847C77.4799 32.3963 77.1159 31.781 77.0293 31.001H78.4983C78.6109 31.3737 78.8493 31.6727 79.2133 31.898C79.5859 32.132 80.0279 32.249 80.5393 32.249C81.1373 32.249 81.6183 32.067 81.9823 31.703C82.3549 31.339 82.5413 30.8103 82.5413 30.117V28.921C82.2899 29.259 81.9476 29.545 81.5143 29.779C81.0896 30.0043 80.6043 30.117 80.0583 30.117C79.4343 30.117 78.8623 29.961 78.3423 29.649C77.8309 29.3283 77.4236 28.8863 77.1203 28.323C76.8256 27.751 76.6783 27.1053 76.6783 26.386C76.6783 25.6667 76.8256 25.0297 77.1203 24.475C77.4236 23.9203 77.8309 23.4913 78.3423 23.188C78.8623 22.876 79.4343 22.72 80.0583 22.72ZM82.5413 26.412C82.5413 25.918 82.4373 25.489 82.2293 25.125C82.0299 24.761 81.7656 24.4837 81.4363 24.293C81.1069 24.1023 80.7516 24.007 80.3703 24.007C79.9889 24.007 79.6336 24.1023 79.3043 24.293C78.9749 24.475 78.7063 24.748 78.4983 25.112C78.2989 25.4673 78.1993 25.892 78.1993 26.386C78.1993 26.88 78.2989 27.3133 78.4983 27.686C78.7063 28.0587 78.9749 28.3447 79.3043 28.544C79.6423 28.7347 79.9976 28.83 80.3703 28.83C80.7516 28.83 81.1069 28.7347 81.4363 28.544C81.7656 28.3533 82.0299 28.076 82.2293 27.712C82.4373 27.3393 82.5413 26.906 82.5413 26.412ZM85.4888 26.386C85.4888 25.6667 85.6361 25.0297 85.9308 24.475C86.2341 23.9203 86.6415 23.4913 87.1528 23.188C87.6728 22.876 88.2448 22.72 88.8688 22.72C89.4321 22.72 89.9218 22.8327 90.3378 23.058C90.7625 23.2747 91.1005 23.5477 91.3518 23.877V22.837H92.8468V30H91.3518V28.934C91.1005 29.272 90.7581 29.5537 90.3248 29.779C89.8915 30.0043 89.3975 30.117 88.8428 30.117C88.2275 30.117 87.6641 29.961 87.1528 29.649C86.6415 29.3283 86.2341 28.8863 85.9308 28.323C85.6361 27.751 85.4888 27.1053 85.4888 26.386ZM91.3518 26.412C91.3518 25.918 91.2478 25.489 91.0398 25.125C90.8405 24.761 90.5761 24.4837 90.2468 24.293C89.9175 24.1023 89.5621 24.007 89.1808 24.007C88.7995 24.007 88.4441 24.1023 88.1148 24.293C87.7855 24.475 87.5168 24.748 87.3088 25.112C87.1095 25.4673 87.0098 25.892 87.0098 26.386C87.0098 26.88 87.1095 27.3133 87.3088 27.686C87.5168 28.0587 87.7855 28.3447 88.1148 28.544C88.4528 28.7347 88.8081 28.83 89.1808 28.83C89.5621 28.83 89.9175 28.7347 90.2468 28.544C90.5761 28.3533 90.8405 28.076 91.0398 27.712C91.2478 27.3393 91.3518 26.906 91.3518 26.412ZM96.5224 24.046V28.011C96.5224 28.2797 96.583 28.4747 96.7044 28.596C96.8344 28.7087 97.051 28.765 97.3544 28.765H98.2644V30H97.0944C96.427 30 95.9157 29.844 95.5604 29.532C95.205 29.22 95.0274 28.713 95.0274 28.011V24.046H94.1824V22.837H95.0274V21.056H96.5224V22.837H98.2644V24.046H96.5224ZM106.117 22.837V30H104.635V29.155C104.401 29.4497 104.094 29.6837 103.712 29.857C103.34 30.0217 102.941 30.104 102.516 30.104C101.953 30.104 101.446 29.987 100.995 29.753C100.553 29.519 100.202 29.1723 99.9423 28.713C99.6909 28.2537 99.5653 27.699 99.5653 27.049V22.837H101.034V26.828C101.034 27.4693 101.195 27.9633 101.515 28.31C101.836 28.648 102.274 28.817 102.828 28.817C103.383 28.817 103.821 28.648 104.141 28.31C104.471 27.9633 104.635 27.4693 104.635 26.828V22.837H106.117ZM109.555 23.877C109.771 23.513 110.057 23.2313 110.413 23.032C110.777 22.824 111.206 22.72 111.7 22.72V24.254H111.323C110.742 24.254 110.3 24.4013 109.997 24.696C109.702 24.9907 109.555 25.502 109.555 26.23V30H108.073V22.837H109.555V23.877ZM112.568 26.386C112.568 25.6667 112.715 25.0297 113.01 24.475C113.313 23.9203 113.721 23.4913 114.232 23.188C114.752 22.876 115.324 22.72 115.948 22.72C116.511 22.72 117.001 22.8327 117.417 23.058C117.842 23.2747 118.18 23.5477 118.431 23.877V22.837H119.926V30H118.431V28.934C118.18 29.272 117.837 29.5537 117.404 29.779C116.971 30.0043 116.477 30.117 115.922 30.117C115.307 30.117 114.743 29.961 114.232 29.649C113.721 29.3283 113.313 28.8863 113.01 28.323C112.715 27.751 112.568 27.1053 112.568 26.386ZM118.431 26.412C118.431 25.918 118.327 25.489 118.119 25.125C117.92 24.761 117.655 24.4837 117.326 24.293C116.997 24.1023 116.641 24.007 116.26 24.007C115.879 24.007 115.523 24.1023 115.194 24.293C114.865 24.475 114.596 24.748 114.388 25.112C114.189 25.4673 114.089 25.892 114.089 26.386C114.089 26.88 114.189 27.3133 114.388 27.686C114.596 28.0587 114.865 28.3447 115.194 28.544C115.532 28.7347 115.887 28.83 116.26 28.83C116.641 28.83 116.997 28.7347 117.326 28.544C117.655 28.3533 117.92 28.076 118.119 27.712C118.327 27.3393 118.431 26.906 118.431 26.412ZM125.486 22.72C126.05 22.72 126.552 22.837 126.994 23.071C127.445 23.305 127.796 23.6517 128.047 24.111C128.299 24.5703 128.424 25.125 128.424 25.775V30H126.955V25.996C126.955 25.3547 126.795 24.865 126.474 24.527C126.154 24.1803 125.716 24.007 125.161 24.007C124.607 24.007 124.165 24.1803 123.835 24.527C123.515 24.865 123.354 25.3547 123.354 25.996V30H121.872V22.837H123.354V23.656C123.597 23.3613 123.905 23.1317 124.277 22.967C124.659 22.8023 125.062 22.72 125.486 22.72ZM140.01 23.656C140.01 24.1153 139.901 24.5487 139.685 24.956C139.468 25.3633 139.121 25.697 138.645 25.957C138.168 26.2083 137.557 26.334 136.812 26.334H135.174V30H133.692V20.965H136.812C137.505 20.965 138.09 21.0863 138.567 21.329C139.052 21.563 139.412 21.8837 139.646 22.291C139.888 22.6983 140.01 23.1533 140.01 23.656ZM136.812 25.125C137.375 25.125 137.795 24.9993 138.073 24.748C138.35 24.488 138.489 24.124 138.489 23.656C138.489 22.668 137.93 22.174 136.812 22.174H135.174V25.125H136.812ZM147.988 26.243C147.988 26.5117 147.971 26.7543 147.936 26.971H142.463C142.507 27.543 142.719 28.0023 143.1 28.349C143.482 28.6957 143.95 28.869 144.504 28.869C145.302 28.869 145.865 28.5353 146.194 27.868H147.793C147.577 28.5267 147.182 29.0683 146.61 29.493C146.047 29.909 145.345 30.117 144.504 30.117C143.82 30.117 143.204 29.9653 142.658 29.662C142.121 29.35 141.696 28.9167 141.384 28.362C141.081 27.7987 140.929 27.1487 140.929 26.412C140.929 25.6753 141.077 25.0297 141.371 24.475C141.675 23.9117 142.095 23.4783 142.632 23.175C143.178 22.8717 143.802 22.72 144.504 22.72C145.18 22.72 145.783 22.8673 146.311 23.162C146.84 23.4567 147.252 23.8727 147.546 24.41C147.841 24.9387 147.988 25.5497 147.988 26.243ZM146.441 25.775C146.433 25.229 146.238 24.7913 145.856 24.462C145.475 24.1327 145.003 23.968 144.439 23.968C143.928 23.968 143.49 24.1327 143.126 24.462C142.762 24.7827 142.546 25.2203 142.476 25.775H146.441ZM150.929 23.877C151.145 23.513 151.431 23.2313 151.787 23.032C152.151 22.824 152.58 22.72 153.074 22.72V24.254H152.697C152.116 24.254 151.674 24.4013 151.371 24.696C151.076 24.9907 150.929 25.502 150.929 26.23V30H149.447V22.837H150.929V23.877ZM153.942 26.386C153.942 25.6667 154.089 25.0297 154.384 24.475C154.687 23.9203 155.095 23.4913 155.606 23.188C156.126 22.876 156.698 22.72 157.322 22.72C157.885 22.72 158.375 22.8327 158.791 23.058C159.216 23.2747 159.554 23.5477 159.805 23.877V22.837H161.3V30H159.805V28.934C159.554 29.272 159.211 29.5537 158.778 29.779C158.345 30.0043 157.851 30.117 157.296 30.117C156.681 30.117 156.117 29.961 155.606 29.649C155.095 29.3283 154.687 28.8863 154.384 28.323C154.089 27.751 153.942 27.1053 153.942 26.386ZM159.805 26.412C159.805 25.918 159.701 25.489 159.493 25.125C159.294 24.761 159.029 24.4837 158.7 24.293C158.371 24.1023 158.015 24.007 157.634 24.007C157.253 24.007 156.897 24.1023 156.568 24.293C156.239 24.475 155.97 24.748 155.762 25.112C155.563 25.4673 155.463 25.892 155.463 26.386C155.463 26.88 155.563 27.3133 155.762 27.686C155.97 28.0587 156.239 28.3447 156.568 28.544C156.906 28.7347 157.261 28.83 157.634 28.83C158.015 28.83 158.371 28.7347 158.7 28.544C159.029 28.3533 159.294 28.076 159.493 27.712C159.701 27.3393 159.805 26.906 159.805 26.412ZM166.86 22.72C167.424 22.72 167.926 22.837 168.368 23.071C168.819 23.305 169.17 23.6517 169.421 24.111C169.673 24.5703 169.798 25.125 169.798 25.775V30H168.329V25.996C168.329 25.3547 168.169 24.865 167.848 24.527C167.528 24.1803 167.09 24.007 166.535 24.007C165.981 24.007 165.539 24.1803 165.209 24.527C164.889 24.865 164.728 25.3547 164.728 25.996V30H163.246V22.837H164.728V23.656C164.971 23.3613 165.279 23.1317 165.651 22.967C166.033 22.8023 166.436 22.72 166.86 22.72Z" fill="#727C98"/>
<defs>
<clipPath id="clip0_9715_14869">
<rect width="20" height="20" fill="white" transform="translate(16 15)"/>
</clipPath>
</defs>
</svg>
