<svg width="132" height="15" viewBox="0 0 132 15" fill="none" xmlns="http://www.w3.org/2000/svg">
<path d="M4.26047 11.091C3.6278 11.091 3.0558 10.9827 2.54447 10.766C2.0418 10.5493 1.64314 10.2373 1.34847 9.83C1.0538 9.42267 0.902135 8.94167 0.893469 8.387H2.84347C2.86947 8.75967 2.99947 9.05433 3.23347 9.271C3.47614 9.48767 3.80547 9.596 4.22147 9.596C4.64614 9.596 4.9798 9.49633 5.22247 9.297C5.46514 9.089 5.58647 8.82033 5.58647 8.491C5.58647 8.22233 5.50414 8.00133 5.33947 7.828C5.1748 7.65467 4.9668 7.52033 4.71547 7.425C4.4728 7.321 4.1348 7.20833 3.70147 7.087C3.11214 6.91367 2.63114 6.74467 2.25847 6.58C1.89447 6.40667 1.57814 6.151 1.30947 5.813C1.04947 5.46633 0.919469 5.007 0.919469 4.435C0.919469 3.89767 1.0538 3.42967 1.32247 3.031C1.59114 2.63233 1.96814 2.329 2.45347 2.121C2.9388 1.90433 3.49347 1.796 4.11747 1.796C5.05347 1.796 5.8118 2.02567 6.39247 2.485C6.9818 2.93567 7.3068 3.56833 7.36747 4.383H5.36547C5.34814 4.071 5.2138 3.81533 4.96247 3.616C4.7198 3.408 4.3948 3.304 3.98747 3.304C3.63214 3.304 3.34614 3.395 3.12947 3.577C2.92147 3.759 2.81747 4.02333 2.81747 4.37C2.81747 4.61267 2.89547 4.81633 3.05147 4.981C3.21614 5.137 3.41547 5.267 3.64947 5.371C3.89214 5.46633 4.23014 5.579 4.66347 5.709C5.2528 5.88233 5.7338 6.05567 6.10647 6.229C6.47914 6.40233 6.7998 6.66233 7.06847 7.009C7.33714 7.35567 7.47147 7.81067 7.47147 8.374C7.47147 8.85933 7.3458 9.31 7.09447 9.726C6.84314 10.142 6.4748 10.4757 5.98947 10.727C5.50414 10.9697 4.9278 11.091 4.26047 11.091ZM15.8483 3.798V11H14.0153V10.09C13.7813 10.402 13.4737 10.649 13.0923 10.831C12.7197 11.0043 12.3123 11.091 11.8703 11.091C11.307 11.091 10.8087 10.974 10.3753 10.74C9.94201 10.4973 9.59968 10.1463 9.34834 9.687C9.10568 9.219 8.98434 8.66433 8.98434 8.023V3.798H10.8043V7.763C10.8043 8.335 10.9473 8.777 11.2333 9.089C11.5193 9.39233 11.9093 9.544 12.4033 9.544C12.906 9.544 13.3003 9.39233 13.5863 9.089C13.8723 8.777 14.0153 8.335 14.0153 7.763V3.798H15.8483ZM20.4001 11.117C19.8107 11.117 19.2821 11.013 18.8141 10.805C18.3461 10.5883 17.9734 10.298 17.6961 9.934C17.4274 9.57 17.2801 9.167 17.2541 8.725H19.0871C19.1217 9.00233 19.2561 9.232 19.4901 9.414C19.7327 9.596 20.0317 9.687 20.3871 9.687C20.7337 9.687 21.0024 9.61767 21.1931 9.479C21.3924 9.34033 21.4921 9.16267 21.4921 8.946C21.4921 8.712 21.3707 8.53867 21.1281 8.426C20.8941 8.30467 20.5171 8.17467 19.9971 8.036C19.4597 7.906 19.0177 7.77167 18.6711 7.633C18.3331 7.49433 18.0384 7.282 17.7871 6.996C17.5444 6.71 17.4231 6.32433 17.4231 5.839C17.4231 5.44033 17.5357 5.07633 17.7611 4.747C17.9951 4.41767 18.3244 4.15767 18.7491 3.967C19.1824 3.77633 19.6894 3.681 20.2701 3.681C21.1281 3.681 21.8127 3.89767 22.3241 4.331C22.8354 4.75567 23.1171 5.332 23.1691 6.06H21.4271C21.4011 5.774 21.2797 5.54867 21.0631 5.384C20.8551 5.21067 20.5734 5.124 20.2181 5.124C19.8887 5.124 19.6331 5.18467 19.4511 5.306C19.2777 5.42733 19.1911 5.59633 19.1911 5.813C19.1911 6.05567 19.3124 6.242 19.5551 6.372C19.7977 6.49333 20.1747 6.619 20.6861 6.749C21.2061 6.879 21.6351 7.01333 21.9731 7.152C22.3111 7.29067 22.6014 7.50733 22.8441 7.802C23.0954 8.088 23.2254 8.46933 23.2341 8.946C23.2341 9.362 23.1171 9.73467 22.8831 10.064C22.6577 10.3933 22.3284 10.6533 21.8951 10.844C21.4704 11.026 20.9721 11.117 20.4001 11.117ZM31.4231 7.243C31.4231 7.503 31.4057 7.737 31.3711 7.945H26.1061C26.1494 8.465 26.3314 8.87233 26.6521 9.167C26.9727 9.46167 27.3671 9.609 27.8351 9.609C28.5111 9.609 28.9921 9.31867 29.2781 8.738H31.2411C31.0331 9.43133 30.6344 10.0033 30.0451 10.454C29.4557 10.896 28.7321 11.117 27.8741 11.117C27.1807 11.117 26.5567 10.9653 26.0021 10.662C25.4561 10.35 25.0271 9.91233 24.7151 9.349C24.4117 8.78567 24.2601 8.13567 24.2601 7.399C24.2601 6.65367 24.4117 5.99933 24.7151 5.436C25.0184 4.87267 25.4431 4.43933 25.9891 4.136C26.5351 3.83267 27.1634 3.681 27.8741 3.681C28.5587 3.681 29.1697 3.82833 29.7071 4.123C30.2531 4.41767 30.6734 4.838 30.9681 5.384C31.2714 5.92133 31.4231 6.541 31.4231 7.243ZM29.5381 6.723C29.5294 6.255 29.3604 5.88233 29.0311 5.605C28.7017 5.319 28.2987 5.176 27.8221 5.176C27.3714 5.176 26.9901 5.31467 26.6781 5.592C26.3747 5.86067 26.1884 6.23767 26.1191 6.723H29.5381ZM36.7425 3.694C37.6005 3.694 38.2938 3.967 38.8225 4.513C39.3512 5.05033 39.6155 5.80433 39.6155 6.775V11H37.7955V7.022C37.7955 6.45 37.6525 6.01233 37.3665 5.709C37.0805 5.397 36.6905 5.241 36.1965 5.241C35.6938 5.241 35.2952 5.397 35.0005 5.709C34.7145 6.01233 34.5715 6.45 34.5715 7.022V11H32.7515V3.798H34.5715V4.695C34.8142 4.383 35.1218 4.14033 35.4945 3.967C35.8758 3.785 36.2918 3.694 36.7425 3.694ZM44.5442 11.117C43.8509 11.117 43.2269 10.9653 42.6722 10.662C42.1176 10.35 41.6799 9.91233 41.3592 9.349C41.0472 8.78567 40.8912 8.13567 40.8912 7.399C40.8912 6.66233 41.0516 6.01233 41.3722 5.449C41.7016 4.88567 42.1479 4.45233 42.7112 4.149C43.2746 3.837 43.9029 3.681 44.5962 3.681C45.2896 3.681 45.9179 3.837 46.4812 4.149C47.0446 4.45233 47.4866 4.88567 47.8072 5.449C48.1366 6.01233 48.3012 6.66233 48.3012 7.399C48.3012 8.13567 48.1322 8.78567 47.7942 9.349C47.4649 9.91233 47.0142 10.35 46.4422 10.662C45.8789 10.9653 45.2462 11.117 44.5442 11.117ZM44.5442 9.531C44.8736 9.531 45.1812 9.453 45.4672 9.297C45.7619 9.13233 45.9959 8.88967 46.1692 8.569C46.3426 8.24833 46.4292 7.85833 46.4292 7.399C46.4292 6.71433 46.2472 6.19 45.8832 5.826C45.5279 5.45333 45.0902 5.267 44.5702 5.267C44.0502 5.267 43.6126 5.45333 43.2572 5.826C42.9106 6.19 42.7372 6.71433 42.7372 7.399C42.7372 8.08367 42.9062 8.61233 43.2442 8.985C43.5909 9.349 44.0242 9.531 44.5442 9.531ZM55.8669 11.091C55.2342 11.091 54.6622 10.9827 54.1509 10.766C53.6482 10.5493 53.2496 10.2373 52.9549 9.83C52.6602 9.42267 52.5086 8.94167 52.4999 8.387H54.4499C54.4759 8.75967 54.6059 9.05433 54.8399 9.271C55.0826 9.48767 55.4119 9.596 55.8279 9.596C56.2526 9.596 56.5862 9.49633 56.8289 9.297C57.0716 9.089 57.1929 8.82033 57.1929 8.491C57.1929 8.22233 57.1106 8.00133 56.9459 7.828C56.7812 7.65467 56.5732 7.52033 56.3219 7.425C56.0792 7.321 55.7412 7.20833 55.3079 7.087C54.7186 6.91367 54.2376 6.74467 53.8649 6.58C53.5009 6.40667 53.1846 6.151 52.9159 5.813C52.6559 5.46633 52.5259 5.007 52.5259 4.435C52.5259 3.89767 52.6602 3.42967 52.9289 3.031C53.1976 2.63233 53.5746 2.329 54.0599 2.121C54.5452 1.90433 55.0999 1.796 55.7239 1.796C56.6599 1.796 57.4182 2.02567 57.9989 2.485C58.5882 2.93567 58.9132 3.56833 58.9739 4.383H56.9719C56.9546 4.071 56.8202 3.81533 56.5689 3.616C56.3262 3.408 56.0012 3.304 55.5939 3.304C55.2386 3.304 54.9526 3.395 54.7359 3.577C54.5279 3.759 54.4239 4.02333 54.4239 4.37C54.4239 4.61267 54.5019 4.81633 54.6579 4.981C54.8226 5.137 55.0219 5.267 55.2559 5.371C55.4986 5.46633 55.8366 5.579 56.2699 5.709C56.8592 5.88233 57.3402 6.05567 57.7129 6.229C58.0856 6.40233 58.4062 6.66233 58.6749 7.009C58.9436 7.35567 59.0779 7.81067 59.0779 8.374C59.0779 8.85933 58.9522 9.31 58.7009 9.726C58.4496 10.142 58.0812 10.4757 57.5959 10.727C57.1106 10.9697 56.5342 11.091 55.8669 11.091ZM67.4548 3.798V11H65.6218V10.09C65.3878 10.402 65.0801 10.649 64.6988 10.831C64.3261 11.0043 63.9188 11.091 63.4768 11.091C62.9135 11.091 62.4151 10.974 61.9818 10.74C61.5485 10.4973 61.2061 10.1463 60.9548 9.687C60.7121 9.219 60.5908 8.66433 60.5908 8.023V3.798H62.4108V7.763C62.4108 8.335 62.5538 8.777 62.8398 9.089C63.1258 9.39233 63.5158 9.544 64.0098 9.544C64.5125 9.544 64.9068 9.39233 65.1928 9.089C65.4788 8.777 65.6218 8.335 65.6218 7.763V3.798H67.4548ZM71.0705 1.38V11H69.2505V1.38H71.0705ZM73.7917 2.94C73.471 2.94 73.2023 2.84033 72.9857 2.641C72.7777 2.433 72.6737 2.17733 72.6737 1.874C72.6737 1.57067 72.7777 1.31933 72.9857 1.12C73.2023 0.911999 73.471 0.807999 73.7917 0.807999C74.1123 0.807999 74.3767 0.911999 74.5847 1.12C74.8013 1.31933 74.9097 1.57067 74.9097 1.874C74.9097 2.17733 74.8013 2.433 74.5847 2.641C74.3767 2.84033 74.1123 2.94 73.7917 2.94ZM74.6887 3.798V11H72.8687V3.798H74.6887ZM79.2428 11.117C78.6535 11.117 78.1248 11.013 77.6568 10.805C77.1888 10.5883 76.8162 10.298 76.5388 9.934C76.2702 9.57 76.1228 9.167 76.0968 8.725H77.9298C77.9645 9.00233 78.0988 9.232 78.3328 9.414C78.5755 9.596 78.8745 9.687 79.2298 9.687C79.5765 9.687 79.8452 9.61767 80.0358 9.479C80.2352 9.34033 80.3348 9.16267 80.3348 8.946C80.3348 8.712 80.2135 8.53867 79.9708 8.426C79.7368 8.30467 79.3598 8.17467 78.8398 8.036C78.3025 7.906 77.8605 7.77167 77.5138 7.633C77.1758 7.49433 76.8812 7.282 76.6298 6.996C76.3872 6.71 76.2658 6.32433 76.2658 5.839C76.2658 5.44033 76.3785 5.07633 76.6038 4.747C76.8378 4.41767 77.1672 4.15767 77.5918 3.967C78.0252 3.77633 78.5322 3.681 79.1128 3.681C79.9708 3.681 80.6555 3.89767 81.1668 4.331C81.6782 4.75567 81.9598 5.332 82.0118 6.06H80.2698C80.2438 5.774 80.1225 5.54867 79.9058 5.384C79.6978 5.21067 79.4162 5.124 79.0608 5.124C78.7315 5.124 78.4758 5.18467 78.2938 5.306C78.1205 5.42733 78.0338 5.59633 78.0338 5.813C78.0338 6.05567 78.1552 6.242 78.3978 6.372C78.6405 6.49333 79.0175 6.619 79.5288 6.749C80.0488 6.879 80.4778 7.01333 80.8158 7.152C81.1538 7.29067 81.4442 7.50733 81.6868 7.802C81.9382 8.088 82.0682 8.46933 82.0768 8.946C82.0768 9.362 81.9598 9.73467 81.7258 10.064C81.5005 10.3933 81.1712 10.6533 80.7378 10.844C80.3132 11.026 79.8148 11.117 79.2428 11.117ZM85.6898 5.293V8.777C85.6898 9.01967 85.7462 9.19733 85.8588 9.31C85.9802 9.414 86.1795 9.466 86.4568 9.466H87.3018V11H86.1578C84.6238 11 83.8568 10.2547 83.8568 8.764V5.293H82.9988V3.798H83.8568V2.017H85.6898V3.798H87.3018V5.293H85.6898ZM95.5009 3.798L91.0419 14.406H89.1049L90.6649 10.818L87.7789 3.798H89.8199L91.6789 8.829L93.5639 3.798H95.5009ZM96.014 7.373C96.014 6.645 96.157 5.99933 96.443 5.436C96.7376 4.87267 97.132 4.43933 97.626 4.136C98.1286 3.83267 98.6876 3.681 99.303 3.681C99.8403 3.681 100.308 3.78933 100.707 4.006C101.114 4.22267 101.439 4.49567 101.682 4.825V3.798H103.515V11H101.682V9.947C101.448 10.285 101.123 10.5667 100.707 10.792C100.3 11.0087 99.8273 11.117 99.29 11.117C98.6833 11.117 98.1286 10.961 97.626 10.649C97.132 10.337 96.7376 9.89933 96.443 9.336C96.157 8.764 96.014 8.10967 96.014 7.373ZM101.682 7.399C101.682 6.957 101.595 6.58 101.422 6.268C101.249 5.94733 101.015 5.70467 100.72 5.54C100.425 5.36667 100.109 5.28 99.771 5.28C99.433 5.28 99.121 5.36233 98.835 5.527C98.549 5.69167 98.315 5.93433 98.133 6.255C97.9596 6.567 97.873 6.93967 97.873 7.373C97.873 7.80633 97.9596 8.18767 98.133 8.517C98.315 8.83767 98.549 9.08467 98.835 9.258C99.1296 9.43133 99.4416 9.518 99.771 9.518C100.109 9.518 100.425 9.43567 100.72 9.271C101.015 9.09767 101.249 8.855 101.422 8.543C101.595 8.22233 101.682 7.841 101.682 7.399ZM115.277 3.798L113.171 11H111.208L109.895 5.969L108.582 11H106.606L104.487 3.798H106.333L107.607 9.284L108.985 3.798H110.909L112.261 9.271L113.535 3.798H115.277ZM115.793 7.373C115.793 6.645 115.936 5.99933 116.222 5.436C116.517 4.87267 116.911 4.43933 117.405 4.136C117.908 3.83267 118.467 3.681 119.082 3.681C119.62 3.681 120.088 3.78933 120.486 4.006C120.894 4.22267 121.219 4.49567 121.461 4.825V3.798H123.294V11H121.461V9.947C121.227 10.285 120.902 10.5667 120.486 10.792C120.079 11.0087 119.607 11.117 119.069 11.117C118.463 11.117 117.908 10.961 117.405 10.649C116.911 10.337 116.517 9.89933 116.222 9.336C115.936 8.764 115.793 8.10967 115.793 7.373ZM121.461 7.399C121.461 6.957 121.375 6.58 121.201 6.268C121.028 5.94733 120.794 5.70467 120.499 5.54C120.205 5.36667 119.888 5.28 119.55 5.28C119.212 5.28 118.9 5.36233 118.614 5.527C118.328 5.69167 118.094 5.93433 117.912 6.255C117.739 6.567 117.652 6.93967 117.652 7.373C117.652 7.80633 117.739 8.18767 117.912 8.517C118.094 8.83767 118.328 9.08467 118.614 9.258C118.909 9.43133 119.221 9.518 119.55 9.518C119.888 9.518 120.205 9.43567 120.499 9.271C120.794 9.09767 121.028 8.855 121.201 8.543C121.375 8.22233 121.461 7.841 121.461 7.399ZM129.063 3.694C129.921 3.694 130.614 3.967 131.143 4.513C131.671 5.05033 131.936 5.80433 131.936 6.775V11H130.116V7.022C130.116 6.45 129.973 6.01233 129.687 5.709C129.401 5.397 129.011 5.241 128.517 5.241C128.014 5.241 127.615 5.397 127.321 5.709C127.035 6.01233 126.892 6.45 126.892 7.022V11H125.072V3.798H126.892V4.695C127.134 4.383 127.442 4.14033 127.815 3.967C128.196 3.785 128.612 3.694 129.063 3.694Z" fill="#BC0001"/>
</svg>
