<svg width="221" height="11" viewBox="0 0 221 11" fill="none" xmlns="http://www.w3.org/2000/svg">
<path d="M6.60716 1.636V2.524H4.32716V10H3.23516V2.524H0.943156V1.636H6.60716ZM13.9513 6.46C13.9513 6.668 13.9393 6.888 13.9153 7.12H8.65934C8.69934 7.768 8.91934 8.276 9.31934 8.644C9.72734 9.004 10.2193 9.184 10.7953 9.184C11.2673 9.184 11.6593 9.076 11.9713 8.86C12.2913 8.636 12.5153 8.34 12.6433 7.972H13.8193C13.6433 8.604 13.2913 9.12 12.7633 9.52C12.2353 9.912 11.5793 10.108 10.7953 10.108C10.1713 10.108 9.61134 9.968 9.11534 9.688C8.62734 9.408 8.24334 9.012 7.96334 8.5C7.68334 7.98 7.54334 7.38 7.54334 6.7C7.54334 6.02 7.67934 5.424 7.95134 4.912C8.22334 4.4 8.60334 4.008 9.09134 3.736C9.58734 3.456 10.1553 3.316 10.7953 3.316C11.4193 3.316 11.9713 3.452 12.4513 3.724C12.9313 3.996 13.2993 4.372 13.5553 4.852C13.8193 5.324 13.9513 5.86 13.9513 6.46ZM12.8233 6.232C12.8233 5.816 12.7313 5.46 12.5473 5.164C12.3633 4.86 12.1113 4.632 11.7913 4.48C11.4793 4.32 11.1313 4.24 10.7473 4.24C10.1953 4.24 9.72334 4.416 9.33134 4.768C8.94734 5.12 8.72734 5.608 8.67134 6.232H12.8233ZM16.4848 4.492C16.6768 4.116 16.9488 3.824 17.3008 3.616C17.6608 3.408 18.0968 3.304 18.6088 3.304V4.432H18.3208C17.0968 4.432 16.4848 5.096 16.4848 6.424V10H15.3928V3.424H16.4848V4.492ZM19.4613 6.688C19.4613 6.016 19.5973 5.428 19.8693 4.924C20.1413 4.412 20.5133 4.016 20.9853 3.736C21.4653 3.456 21.9973 3.316 22.5813 3.316C23.1573 3.316 23.6573 3.44 24.0813 3.688C24.5053 3.936 24.8213 4.248 25.0293 4.624V3.424H26.1333V10H25.0293V8.776C24.8133 9.16 24.4893 9.48 24.0573 9.736C23.6333 9.984 23.1373 10.108 22.5693 10.108C21.9853 10.108 21.4573 9.964 20.9853 9.676C20.5133 9.388 20.1413 8.984 19.8693 8.464C19.5973 7.944 19.4613 7.352 19.4613 6.688ZM25.0293 6.7C25.0293 6.204 24.9293 5.772 24.7293 5.404C24.5293 5.036 24.2573 4.756 23.9133 4.564C23.5773 4.364 23.2053 4.264 22.7973 4.264C22.3893 4.264 22.0173 4.36 21.6813 4.552C21.3453 4.744 21.0773 5.024 20.8773 5.392C20.6773 5.76 20.5773 6.192 20.5773 6.688C20.5773 7.192 20.6773 7.632 20.8773 8.008C21.0773 8.376 21.3453 8.66 21.6813 8.86C22.0173 9.052 22.3893 9.148 22.7973 9.148C23.2053 9.148 23.5773 9.052 23.9133 8.86C24.2573 8.66 24.5293 8.376 24.7293 8.008C24.9293 7.632 25.0293 7.196 25.0293 6.7ZM31.6507 10L29.0707 7.096V10H27.9787V1.12H29.0707V6.34L31.6027 3.424H33.1267L30.0307 6.7L33.1387 10H31.6507ZM37.4185 3.304C37.9145 3.304 38.3625 3.412 38.7625 3.628C39.1625 3.836 39.4745 4.152 39.6985 4.576C39.9305 5 40.0465 5.516 40.0465 6.124V10H38.9665V6.28C38.9665 5.624 38.8025 5.124 38.4745 4.78C38.1465 4.428 37.6985 4.252 37.1305 4.252C36.5545 4.252 36.0945 4.432 35.7505 4.792C35.4145 5.152 35.2465 5.676 35.2465 6.364V10H34.1545V1.12H35.2465V4.36C35.4625 4.024 35.7585 3.764 36.1345 3.58C36.5185 3.396 36.9465 3.304 37.4185 3.304ZM42.3943 2.356C42.1863 2.356 42.0103 2.284 41.8663 2.14C41.7223 1.996 41.6503 1.82 41.6503 1.612C41.6503 1.404 41.7223 1.228 41.8663 1.084C42.0103 0.94 42.1863 0.868 42.3943 0.868C42.5943 0.868 42.7623 0.94 42.8983 1.084C43.0423 1.228 43.1143 1.404 43.1143 1.612C43.1143 1.82 43.0423 1.996 42.8983 2.14C42.7623 2.284 42.5943 2.356 42.3943 2.356ZM42.9223 3.424V10H41.8303V3.424H42.9223ZM45.8754 4.492C46.0674 4.116 46.3394 3.824 46.6914 3.616C47.0514 3.408 47.4874 3.304 47.9994 3.304V4.432H47.7114C46.4874 4.432 45.8754 5.096 45.8754 6.424V10H44.7834V3.424H45.8754V4.492ZM60.3672 3.304C60.8792 3.304 61.3352 3.412 61.7352 3.628C62.1352 3.836 62.4512 4.152 62.6832 4.576C62.9152 5 63.0312 5.516 63.0312 6.124V10H61.9512V6.28C61.9512 5.624 61.7872 5.124 61.4592 4.78C61.1392 4.428 60.7032 4.252 60.1512 4.252C59.5832 4.252 59.1312 4.436 58.7952 4.804C58.4592 5.164 58.2912 5.688 58.2912 6.376V10H57.2112V6.28C57.2112 5.624 57.0472 5.124 56.7192 4.78C56.3992 4.428 55.9632 4.252 55.4112 4.252C54.8432 4.252 54.3912 4.436 54.0552 4.804C53.7192 5.164 53.5512 5.688 53.5512 6.376V10H52.4592V3.424H53.5512V4.372C53.7672 4.028 54.0552 3.764 54.4152 3.58C54.7832 3.396 55.1872 3.304 55.6272 3.304C56.1792 3.304 56.6672 3.428 57.0912 3.676C57.5152 3.924 57.8312 4.288 58.0392 4.768C58.2232 4.304 58.5272 3.944 58.9512 3.688C59.3752 3.432 59.8472 3.304 60.3672 3.304ZM64.4144 6.688C64.4144 6.016 64.5504 5.428 64.8224 4.924C65.0944 4.412 65.4664 4.016 65.9384 3.736C66.4184 3.456 66.9504 3.316 67.5344 3.316C68.1104 3.316 68.6104 3.44 69.0344 3.688C69.4584 3.936 69.7744 4.248 69.9824 4.624V3.424H71.0864V10H69.9824V8.776C69.7664 9.16 69.4424 9.48 69.0104 9.736C68.5864 9.984 68.0904 10.108 67.5224 10.108C66.9384 10.108 66.4104 9.964 65.9384 9.676C65.4664 9.388 65.0944 8.984 64.8224 8.464C64.5504 7.944 64.4144 7.352 64.4144 6.688ZM69.9824 6.7C69.9824 6.204 69.8824 5.772 69.6824 5.404C69.4824 5.036 69.2104 4.756 68.8664 4.564C68.5304 4.364 68.1584 4.264 67.7504 4.264C67.3424 4.264 66.9704 4.36 66.6344 4.552C66.2984 4.744 66.0304 5.024 65.8304 5.392C65.6304 5.76 65.5304 6.192 65.5304 6.688C65.5304 7.192 65.6304 7.632 65.8304 8.008C66.0304 8.376 66.2984 8.66 66.6344 8.86C66.9704 9.052 67.3424 9.148 67.7504 9.148C68.1584 9.148 68.5304 9.052 68.8664 8.86C69.2104 8.66 69.4824 8.376 69.6824 8.008C69.8824 7.632 69.9824 7.196 69.9824 6.7ZM75.2598 10.108C74.7558 10.108 74.3038 10.024 73.9038 9.856C73.5038 9.68 73.1878 9.44 72.9558 9.136C72.7238 8.824 72.5958 8.468 72.5718 8.068H73.6998C73.7318 8.396 73.8838 8.664 74.1558 8.872C74.4358 9.08 74.7998 9.184 75.2478 9.184C75.6638 9.184 75.9918 9.092 76.2318 8.908C76.4718 8.724 76.5918 8.492 76.5918 8.212C76.5918 7.924 76.4638 7.712 76.2078 7.576C75.9518 7.432 75.5558 7.292 75.0198 7.156C74.5318 7.028 74.1318 6.9 73.8198 6.772C73.5158 6.636 73.2518 6.44 73.0278 6.184C72.8118 5.92 72.7038 5.576 72.7038 5.152C72.7038 4.816 72.8038 4.508 73.0038 4.228C73.2038 3.948 73.4878 3.728 73.8558 3.568C74.2238 3.4 74.6438 3.316 75.1158 3.316C75.8438 3.316 76.4318 3.5 76.8798 3.868C77.3278 4.236 77.5678 4.74 77.5998 5.38H76.5078C76.4838 5.036 76.3438 4.76 76.0878 4.552C75.8398 4.344 75.5038 4.24 75.0798 4.24C74.6878 4.24 74.3758 4.324 74.1438 4.492C73.9118 4.66 73.7958 4.88 73.7958 5.152C73.7958 5.368 73.8638 5.548 73.9998 5.692C74.1438 5.828 74.3198 5.94 74.5278 6.028C74.7438 6.108 75.0398 6.2 75.4158 6.304C75.8878 6.432 76.2718 6.56 76.5678 6.688C76.8638 6.808 77.1158 6.992 77.3238 7.24C77.5398 7.488 77.6518 7.812 77.6598 8.212C77.6598 8.572 77.5598 8.896 77.3598 9.184C77.1598 9.472 76.8758 9.7 76.5078 9.868C76.1478 10.028 75.7318 10.108 75.2598 10.108ZM85.0333 3.424V10H83.9413V9.028C83.7333 9.364 83.4413 9.628 83.0653 9.82C82.6973 10.004 82.2893 10.096 81.8413 10.096C81.3293 10.096 80.8693 9.992 80.4613 9.784C80.0533 9.568 79.7293 9.248 79.4893 8.824C79.2573 8.4 79.1413 7.884 79.1413 7.276V3.424H80.2213V7.132C80.2213 7.78 80.3853 8.28 80.7133 8.632C81.0413 8.976 81.4893 9.148 82.0573 9.148C82.6413 9.148 83.1013 8.968 83.4373 8.608C83.7733 8.248 83.9413 7.724 83.9413 7.036V3.424H85.0333ZM90.5491 10L87.9691 7.096V10H86.8771V1.12H87.9691V6.34L90.5011 3.424H92.0251L88.9291 6.7L92.0371 10H90.5491ZM96.6001 10.072C96.3921 10.072 96.2161 10 96.0721 9.856C95.9281 9.712 95.8561 9.536 95.8561 9.328C95.8561 9.12 95.9281 8.944 96.0721 8.8C96.2161 8.656 96.3921 8.584 96.6001 8.584C96.8001 8.584 96.9681 8.656 97.1041 8.8C97.2481 8.944 97.3201 9.12 97.3201 9.328C97.3201 9.536 97.2481 9.712 97.1041 9.856C96.9681 10 96.8001 10.072 96.6001 10.072ZM96.6001 4.936C96.3921 4.936 96.2161 4.864 96.0721 4.72C95.9281 4.576 95.8561 4.4 95.8561 4.192C95.8561 3.984 95.9281 3.808 96.0721 3.664C96.2161 3.52 96.3921 3.448 96.6001 3.448C96.8001 3.448 96.9681 3.52 97.1041 3.664C97.2481 3.808 97.3201 3.984 97.3201 4.192C97.3201 4.4 97.2481 4.576 97.1041 4.72C96.9681 4.864 96.8001 4.936 96.6001 4.936ZM101.694 9.124C102.71 8.308 103.506 7.64 104.082 7.12C104.658 6.592 105.142 6.044 105.534 5.476C105.934 4.9 106.134 4.336 106.134 3.784C106.134 3.264 106.006 2.856 105.75 2.56C105.502 2.256 105.098 2.104 104.538 2.104C103.994 2.104 103.57 2.276 103.266 2.62C102.97 2.956 102.81 3.408 102.786 3.976H101.73C101.762 3.08 102.034 2.388 102.546 1.9C103.058 1.412 103.718 1.168 104.526 1.168C105.35 1.168 106.002 1.396 106.482 1.852C106.97 2.308 107.214 2.936 107.214 3.736C107.214 4.4 107.014 5.048 106.614 5.68C106.222 6.304 105.774 6.856 105.27 7.336C104.766 7.808 104.122 8.36 103.338 8.992H107.466V9.904H101.694V9.124ZM108.596 9.124C109.612 8.308 110.408 7.64 110.984 7.12C111.56 6.592 112.044 6.044 112.436 5.476C112.836 4.9 113.036 4.336 113.036 3.784C113.036 3.264 112.908 2.856 112.652 2.56C112.404 2.256 112 2.104 111.44 2.104C110.896 2.104 110.472 2.276 110.168 2.62C109.872 2.956 109.712 3.408 109.688 3.976H108.632C108.664 3.08 108.936 2.388 109.448 1.9C109.96 1.412 110.62 1.168 111.428 1.168C112.252 1.168 112.904 1.396 113.384 1.852C113.872 2.308 114.116 2.936 114.116 3.736C114.116 4.4 113.916 5.048 113.516 5.68C113.124 6.304 112.676 6.856 112.172 7.336C111.668 7.808 111.024 8.36 110.24 8.992H114.368V9.904H108.596V9.124ZM123.222 1.636V7.816C123.222 8.504 123.01 9.056 122.586 9.472C122.162 9.88 121.602 10.084 120.906 10.084C120.202 10.084 119.638 9.876 119.214 9.46C118.79 9.036 118.578 8.46 118.578 7.732H119.67C119.678 8.14 119.782 8.472 119.982 8.728C120.19 8.984 120.498 9.112 120.906 9.112C121.314 9.112 121.618 8.992 121.818 8.752C122.018 8.504 122.118 8.192 122.118 7.816V1.636H123.222ZM131.205 3.424V10H130.113V9.028C129.905 9.364 129.613 9.628 129.237 9.82C128.869 10.004 128.461 10.096 128.013 10.096C127.501 10.096 127.041 9.992 126.633 9.784C126.225 9.568 125.901 9.248 125.661 8.824C125.429 8.4 125.313 7.884 125.313 7.276V3.424H126.393V7.132C126.393 7.78 126.557 8.28 126.885 8.632C127.213 8.976 127.661 9.148 128.229 9.148C128.813 9.148 129.273 8.968 129.609 8.608C129.945 8.248 130.113 7.724 130.113 7.036V3.424H131.205ZM136.253 3.304C137.053 3.304 137.701 3.548 138.197 4.036C138.693 4.516 138.941 5.212 138.941 6.124V10H137.861V6.28C137.861 5.624 137.697 5.124 137.369 4.78C137.041 4.428 136.593 4.252 136.025 4.252C135.449 4.252 134.989 4.432 134.645 4.792C134.309 5.152 134.141 5.676 134.141 6.364V10H133.049V3.424H134.141V4.36C134.357 4.024 134.649 3.764 135.017 3.58C135.393 3.396 135.805 3.304 136.253 3.304ZM141.289 2.356C141.081 2.356 140.905 2.284 140.761 2.14C140.617 1.996 140.545 1.82 140.545 1.612C140.545 1.404 140.617 1.228 140.761 1.084C140.905 0.94 141.081 0.868 141.289 0.868C141.489 0.868 141.657 0.94 141.793 1.084C141.937 1.228 142.009 1.404 142.009 1.612C142.009 1.82 141.937 1.996 141.793 2.14C141.657 2.284 141.489 2.356 141.289 2.356ZM141.817 3.424V10H140.725V3.424H141.817ZM146.565 9.124C147.581 8.308 148.377 7.64 148.953 7.12C149.529 6.592 150.013 6.044 150.405 5.476C150.805 4.9 151.005 4.336 151.005 3.784C151.005 3.264 150.877 2.856 150.621 2.56C150.373 2.256 149.969 2.104 149.409 2.104C148.865 2.104 148.441 2.276 148.137 2.62C147.841 2.956 147.681 3.408 147.657 3.976H146.601C146.633 3.08 146.905 2.388 147.417 1.9C147.929 1.412 148.589 1.168 149.397 1.168C150.221 1.168 150.873 1.396 151.353 1.852C151.841 2.308 152.085 2.936 152.085 3.736C152.085 4.4 151.885 5.048 151.485 5.68C151.093 6.304 150.645 6.856 150.141 7.336C149.637 7.808 148.993 8.36 148.209 8.992H152.337V9.904H146.565V9.124ZM153.599 5.572C153.599 4.196 153.823 3.124 154.271 2.356C154.719 1.58 155.503 1.192 156.623 1.192C157.735 1.192 158.515 1.58 158.963 2.356C159.411 3.124 159.635 4.196 159.635 5.572C159.635 6.972 159.411 8.06 158.963 8.836C158.515 9.612 157.735 10 156.623 10C155.503 10 154.719 9.612 154.271 8.836C153.823 8.06 153.599 6.972 153.599 5.572ZM158.555 5.572C158.555 4.876 158.507 4.288 158.411 3.808C158.323 3.32 158.135 2.928 157.847 2.632C157.567 2.336 157.159 2.188 156.623 2.188C156.079 2.188 155.663 2.336 155.375 2.632C155.095 2.928 154.907 3.32 154.811 3.808C154.723 4.288 154.679 4.876 154.679 5.572C154.679 6.292 154.723 6.896 154.811 7.384C154.907 7.872 155.095 8.264 155.375 8.56C155.663 8.856 156.079 9.004 156.623 9.004C157.159 9.004 157.567 8.856 157.847 8.56C158.135 8.264 158.323 7.872 158.411 7.384C158.507 6.896 158.555 6.292 158.555 5.572ZM161.003 9.124C162.019 8.308 162.815 7.64 163.391 7.12C163.967 6.592 164.451 6.044 164.843 5.476C165.243 4.9 165.443 4.336 165.443 3.784C165.443 3.264 165.315 2.856 165.059 2.56C164.811 2.256 164.407 2.104 163.847 2.104C163.303 2.104 162.879 2.276 162.575 2.62C162.279 2.956 162.119 3.408 162.095 3.976H161.039C161.071 3.08 161.343 2.388 161.855 1.9C162.367 1.412 163.027 1.168 163.835 1.168C164.659 1.168 165.311 1.396 165.791 1.852C166.279 2.308 166.523 2.936 166.523 3.736C166.523 4.4 166.323 5.048 165.923 5.68C165.531 6.304 165.083 6.856 164.579 7.336C164.075 7.808 163.431 8.36 162.647 8.992H166.775V9.904H161.003V9.124ZM167.749 2.32V1.324H170.005V10H168.901V2.32H167.749ZM174.792 2.32V1.324H177.048V10H175.944V2.32H174.792ZM180.328 7.672C180.408 8.128 180.592 8.48 180.88 8.728C181.176 8.976 181.572 9.1 182.068 9.1C182.732 9.1 183.22 8.84 183.532 8.32C183.852 7.8 184.004 6.924 183.988 5.692C183.82 6.052 183.54 6.336 183.148 6.544C182.756 6.744 182.32 6.844 181.84 6.844C181.304 6.844 180.824 6.736 180.4 6.52C179.984 6.296 179.656 5.972 179.416 5.548C179.176 5.124 179.056 4.612 179.056 4.012C179.056 3.156 179.304 2.468 179.8 1.948C180.296 1.42 181 1.156 181.912 1.156C183.032 1.156 183.816 1.52 184.264 2.248C184.72 2.976 184.948 4.06 184.948 5.5C184.948 6.508 184.856 7.34 184.672 7.996C184.496 8.652 184.192 9.152 183.76 9.496C183.336 9.84 182.752 10.012 182.008 10.012C181.192 10.012 180.556 9.792 180.1 9.352C179.644 8.912 179.384 8.352 179.32 7.672H180.328ZM182.02 5.92C182.556 5.92 182.996 5.756 183.34 5.428C183.684 5.092 183.856 4.64 183.856 4.072C183.856 3.472 183.688 2.988 183.352 2.62C183.016 2.252 182.544 2.068 181.936 2.068C181.376 2.068 180.928 2.244 180.592 2.596C180.264 2.948 180.1 3.412 180.1 3.988C180.1 4.572 180.264 5.04 180.592 5.392C180.92 5.744 181.396 5.92 182.02 5.92ZM187.01 10.072C186.802 10.072 186.626 10 186.482 9.856C186.338 9.712 186.266 9.536 186.266 9.328C186.266 9.12 186.338 8.944 186.482 8.8C186.626 8.656 186.802 8.584 187.01 8.584C187.21 8.584 187.378 8.656 187.514 8.8C187.658 8.944 187.73 9.12 187.73 9.328C187.73 9.536 187.658 9.712 187.514 9.856C187.378 10 187.21 10.072 187.01 10.072ZM187.01 4.936C186.802 4.936 186.626 4.864 186.482 4.72C186.338 4.576 186.266 4.4 186.266 4.192C186.266 3.984 186.338 3.808 186.482 3.664C186.626 3.52 186.802 3.448 187.01 3.448C187.21 3.448 187.378 3.52 187.514 3.664C187.658 3.808 187.73 3.984 187.73 4.192C187.73 4.4 187.658 4.576 187.514 4.72C187.378 4.864 187.21 4.936 187.01 4.936ZM188.773 8.068V7.24L192.985 1.408H194.293V7.12H195.493V8.068H194.293V10H193.213V8.068H188.773ZM193.261 2.548L190.033 7.12H193.261V2.548ZM202.116 2.272H197.904V5.008C198.088 4.752 198.36 4.544 198.72 4.384C199.08 4.216 199.468 4.132 199.884 4.132C200.548 4.132 201.088 4.272 201.504 4.552C201.92 4.824 202.216 5.18 202.392 5.62C202.576 6.052 202.668 6.512 202.668 7C202.668 7.576 202.56 8.092 202.344 8.548C202.128 9.004 201.796 9.364 201.348 9.628C200.908 9.892 200.36 10.024 199.704 10.024C198.864 10.024 198.184 9.808 197.664 9.376C197.144 8.944 196.828 8.368 196.716 7.648H197.784C197.888 8.104 198.108 8.46 198.444 8.716C198.78 8.972 199.204 9.1 199.716 9.1C200.348 9.1 200.824 8.912 201.144 8.536C201.464 8.152 201.624 7.648 201.624 7.024C201.624 6.4 201.464 5.92 201.144 5.584C200.824 5.24 200.352 5.068 199.728 5.068C199.304 5.068 198.932 5.172 198.612 5.38C198.3 5.58 198.072 5.856 197.928 6.208H196.896V1.312H202.116V2.272ZM204.647 10.072C204.439 10.072 204.263 10 204.119 9.856C203.975 9.712 203.903 9.536 203.903 9.328C203.903 9.12 203.975 8.944 204.119 8.8C204.263 8.656 204.439 8.584 204.647 8.584C204.847 8.584 205.015 8.656 205.151 8.8C205.295 8.944 205.367 9.12 205.367 9.328C205.367 9.536 205.295 9.712 205.151 9.856C205.015 10 204.847 10.072 204.647 10.072ZM204.647 4.936C204.439 4.936 204.263 4.864 204.119 4.72C203.975 4.576 203.903 4.4 203.903 4.192C203.903 3.984 203.975 3.808 204.119 3.664C204.263 3.52 204.439 3.448 204.647 3.448C204.847 3.448 205.015 3.52 205.151 3.664C205.295 3.808 205.367 3.984 205.367 4.192C205.367 4.4 205.295 4.576 205.151 4.72C205.015 4.864 204.847 4.936 204.647 4.936ZM206.674 5.572C206.674 4.196 206.898 3.124 207.346 2.356C207.794 1.58 208.578 1.192 209.698 1.192C210.81 1.192 211.59 1.58 212.038 2.356C212.486 3.124 212.71 4.196 212.71 5.572C212.71 6.972 212.486 8.06 212.038 8.836C211.59 9.612 210.81 10 209.698 10C208.578 10 207.794 9.612 207.346 8.836C206.898 8.06 206.674 6.972 206.674 5.572ZM211.63 5.572C211.63 4.876 211.582 4.288 211.486 3.808C211.398 3.32 211.21 2.928 210.922 2.632C210.642 2.336 210.234 2.188 209.698 2.188C209.154 2.188 208.738 2.336 208.45 2.632C208.17 2.928 207.982 3.32 207.886 3.808C207.798 4.288 207.754 4.876 207.754 5.572C207.754 6.292 207.798 6.896 207.886 7.384C207.982 7.872 208.17 8.264 208.45 8.56C208.738 8.856 209.154 9.004 209.698 9.004C210.234 9.004 210.642 8.856 210.922 8.56C211.21 8.264 211.398 7.872 211.486 7.384C211.582 6.896 211.63 6.292 211.63 5.572ZM214.209 5.572C214.209 4.196 214.433 3.124 214.881 2.356C215.329 1.58 216.113 1.192 217.233 1.192C218.345 1.192 219.125 1.58 219.573 2.356C220.021 3.124 220.245 4.196 220.245 5.572C220.245 6.972 220.021 8.06 219.573 8.836C219.125 9.612 218.345 10 217.233 10C216.113 10 215.329 9.612 214.881 8.836C214.433 8.06 214.209 6.972 214.209 5.572ZM219.165 5.572C219.165 4.876 219.117 4.288 219.021 3.808C218.933 3.32 218.745 2.928 218.457 2.632C218.177 2.336 217.769 2.188 217.233 2.188C216.689 2.188 216.273 2.336 215.985 2.632C215.705 2.928 215.517 3.32 215.421 3.808C215.333 4.288 215.289 4.876 215.289 5.572C215.289 6.292 215.333 6.896 215.421 7.384C215.517 7.872 215.705 8.264 215.985 8.56C216.273 8.856 216.689 9.004 217.233 9.004C217.769 9.004 218.177 8.856 218.457 8.56C218.745 8.264 218.933 7.872 219.021 7.384C219.117 6.896 219.165 6.292 219.165 5.572Z" fill="#727C98"/>
</svg>
