<svg width="16" height="20" viewBox="0 0 16 20" fill="none" xmlns="http://www.w3.org/2000/svg">
<path d="M9.25 5.3125V0H1.4375C0.917969 0 0.5 0.417969 0.5 0.9375V19.0625C0.5 19.582 0.917969 20 1.4375 20H14.5625C15.082 20 15.5 19.582 15.5 19.0625V6.25H10.1875C9.67188 6.25 9.25 5.82812 9.25 5.3125ZM12.375 16V16.75C12.375 17.1645 11.9832 17.5 11.5 17.5H4.5C4.0168 17.5 3.625 17.1641 3.625 16.75V16C3.625 14.7574 4.80039 13.75 6.25 13.75H6.44336C6.92344 13.95 7.44844 14.0625 8 14.0625C8.55156 14.0625 9.07656 13.95 9.55664 13.75H9.75C11.1996 13.75 12.375 14.7574 12.375 16ZM8 12.5C6.61914 12.5 5.5 11.3809 5.5 10C5.5 8.61914 6.61914 7.5 8 7.5C9.38086 7.5 10.5 8.61914 10.5 10C10.5 11.3809 9.38086 12.5 8 12.5ZM15.2266 4.10156L11.4023 0.273438C11.2266 0.0976562 10.9883 0 10.7383 0H10.5V5H15.5V4.76172C15.5 4.51562 15.4023 4.27734 15.2266 4.10156Z" fill="#BCC8E7"/>
</svg>
