<svg width="18" height="19" viewBox="0 0 18 19" fill="none" xmlns="http://www.w3.org/2000/svg">
<path d="M10.4417 16.9993C10.2952 17.2519 10.0849 17.4616 9.83185 17.6073C9.57884 17.753 9.29198 17.8297 9 17.8297C8.70802 17.8297 8.42116 17.753 8.16814 17.6073C7.91513 17.4616 7.70484 17.2519 7.55833 16.9993M14 6.16602C14 4.83993 13.4732 3.56816 12.5355 2.63048C11.5979 1.6928 10.3261 1.16602 9 1.16602C7.67392 1.16602 6.40215 1.6928 5.46447 2.63048C4.52678 3.56816 4 4.83993 4 6.16602C4 11.9993 1.5 13.666 1.5 13.666H16.5C16.5 13.666 14 11.9993 14 6.16602Z" stroke="#BC0001" stroke-width="2" stroke-linecap="round" stroke-linejoin="round"/>
</svg>
