<svg width="18" height="14" viewBox="0 0 18 14" fill="none" xmlns="http://www.w3.org/2000/svg">
<path d="M10.2131 10H6.50001C6.3674 10 6.24023 9.94734 6.14646 9.85357C6.05269 9.7598 6.00001 9.63263 6.00001 9.50002V8.00001H0V12.5C0 13.3 0.700001 14 1.5 14H10.6072C9.96867 12.7663 9.82763 11.3346 10.2131 10ZM16 6.02532V4.50001C16 3.70001 15.3 3.00001 14.5 3.00001H12V1.5C12 0.700001 11.3 0 10.5 0H5.50001C4.70001 0 4.00001 0.700001 4.00001 1.5V3.00001H1.5C0.700001 3.00001 0 3.70001 0 4.50001V7.00001H12.3475C13.2699 6.34915 14.3711 5.99982 15.5 6.00001C15.6688 6.00001 15.835 6.01032 16 6.02532ZM10 3.00001H6.00001V2H10V3.00001ZM17.1966 11H16V9.30377C15.9998 9.22337 15.9677 9.14633 15.9109 9.08948C15.854 9.03262 15.777 9.00058 15.6966 9.00033H15.3038C15.2234 9.00058 15.1463 9.03262 15.0895 9.08948C15.0326 9.14633 15.0006 9.22337 15.0003 9.30377V11.6966C15.0006 11.777 15.0326 11.854 15.0895 11.9109C15.1463 11.9677 15.2234 11.9998 15.3038 12H17.1966C17.277 11.9998 17.354 11.9677 17.4109 11.9109C17.4677 11.854 17.4998 11.777 17.5 11.6966V11.3035C17.4998 11.2231 17.4677 11.146 17.4109 11.0892C17.354 11.0323 17.277 11.0003 17.1966 11Z" fill="#BCC8E7"/>
</svg>
